SplineFontDB: 1.0
FontName: CenturySchL-BoldItal
FullName: Century Schoolbook L Bold Italic
FamilyName: Century Schoolbook L
Weight: Bold
Copyright: Copyright (URW)++,Copyright 1999 by (URW)++ Design & Development; Cyrillic glyphs added by Valek Filippov (C) 2001
Version: 1.06
ItalicAngle: -15
UnderlinePosition: -102
UnderlineWidth: 54
Ascent: 800
Descent: 200
NeedsXUIDChange: 1
UniqueID: 4097745
FSType: 0
OS2WinAscent: 0
OS2WinAOffset: 1
OS2WinDescent: 0
OS2WinDOffset: 1
HheadAscent: 0
HheadAOffset: 1
HheadDescent: 0
HheadDOffset: 1
ScriptLang: 2
 1 latn 1 dflt 
 1 DFLT 1 dflt 
Encoding: adobestandard
UnicodeInterp: none
DisplaySize: -36
AntiAlias: 1
FitToEm: 1
WinInfo: 414 23 12
BeginPrivate: 7
BlueValues 31 [-20 0 464 484 722 742 690 710]
BlueScale 8 0.039625
StdHW 4 [48]
StdVW 5 [155]
StemSnapH 210 [44 48 53 57 62 71 81 84 169] 
systemdict /internaldict known
{1183615869 systemdict /internaldict get exec
/StemSnapLength 2 copy known { get 9 lt } { pop pop true } ifelse }
{ true } ifelse { pop [53 62] } if
StemSnapV 2 []
ForceBold 5 false
EndPrivate
BeginChars: 766 660
StartChar: exclam
Encoding: 33 33 2
Width: 333
Flags: W
HStem: -15 174<82 102> 717 20G<225.5 267>
Fore
152 203 m 1
 100 216 l 1
 130 351 147 468 151 567 c 0
 155 657 158 677 175 702 c 0
 190 724 213 737 238 737 c 0
 296 737 336 704 336 657 c 0
 336 625 336 625 281 514 c 0
 221 394 197 335 152 203 c 1
90 159 m 0
 138 159 177 120 177 72 c 0
 177 24 138 -15 89 -15 c 0
 42 -15 3 25 3 72 c 0
 3 120 42 159 90 159 c 0
EndSplineSet
EndChar
StartChar: quotedbl
Encoding: 34 34 3
Width: 400
Flags: W
HStem: 714 20G<173.5 216 411.5 454>
Fore
146 397 m 1
 100 410 l 1
 121 646 l 2
 126 703 152 734 195 734 c 0
 237 734 269 703 269 663 c 0
 269 647 264 629 253 609 c 1
 146 397 l 1
384 397 m 1
 338 410 l 1
 359 646 l 2
 364 703 390 734 433 734 c 0
 475 734 507 703 507 663 c 0
 507 647 502 629 491 609 c 1
 384 397 l 1
EndSplineSet
EndChar
StartChar: numbersign
Encoding: 35 35 4
Width: 574
Flags: W
HStem: 0 21G<103 193 279 369> 221 83<41 135 237 311 413 507> 412 83<67 163 264 338 440 533>
DStem: 135 221 225 221 103 0 193 0 163 412 253 412 147 304 237 304 204 700 294 700 174 495 264 495 311 221 401 221 279 0 369 0 338 412 428 412 322 304 413 304 379 700 469 700 350 495 440 495
Fore
135 221 m 1
 41 221 l 1
 41 304 l 1
 147 304 l 1
 163 412 l 1
 67 412 l 1
 67 495 l 1
 174 495 l 1
 204 700 l 1
 294 700 l 1
 264 495 l 1
 350 495 l 1
 379 700 l 1
 469 700 l 1
 440 495 l 1
 533 495 l 1
 533 412 l 1
 428 412 l 1
 413 304 l 1
 507 304 l 1
 507 221 l 1
 401 221 l 1
 369 0 l 1
 279 0 l 1
 311 221 l 1
 225 221 l 1
 193 0 l 1
 103 0 l 1
 135 221 l 1
253 412 m 1
 237 304 l 1
 322 304 l 1
 338 412 l 1
 253 412 l 1
EndSplineSet
EndChar
StartChar: dollar
Encoding: 36 36 5
Width: 574
Flags: W
HStem: -15 49<227 248> 674 20G<346 354>
VStem: 3 166<151 181> 96 112<475 533> 381 119<153 212> 404 155<515 532>
DStem: 166 -9 218 -15 129 -145 183 -145 245 285 293 263 179 40 231 34 341 644 394 640 286 438 333 414 381 794 435 794 354 694 407 688
Fore
333 414 m 1xc4
 359 402 l 2
 448 359 500 289 500 212 c 0
 500 124 439 39 351 6 c 0
 322 -5 263 -15 227 -15 c 2
 218 -15 l 1
 183 -145 l 1
 129 -145 l 1
 166 -9 l 1
 66 10 3 72 3 151 c 0
 3 211 39 251 93 251 c 0
 137 251 169 222 169 181 c 0xe8
 169 153 155 132 127 118 c 0
 107 107 102 102 102 91 c 0
 102 71 130 52 179 40 c 1
 245 285 l 1
 231 292 l 2
 141 334 96 395 96 475 c 0
 96 606 197 694 346 694 c 2
 354 694 l 1
 381 794 l 1xd8
 435 794 l 1
 407 688 l 1
 502 671 559 612 559 532 c 0
 559 479 526 443 476 443 c 0
 433 443 404 472 404 515 c 0
 404 547 417 565 450 579 c 0
 459 583 463 587 463 594 c 0
 463 613 433 632 394 640 c 1
 333 414 l 1xc4
293 263 m 1
 231 34 l 1
 319 36 381 85 381 153 c 0
 381 202 357 231 293 263 c 1
286 438 m 1
 341 644 l 1
 257 641 208 599 208 533 c 0xd0
 208 490 232 461 286 438 c 1
EndSplineSet
EndChar
StartChar: percent
Encoding: 37 37 6
Width: 889
Flags: W
HStem: 14 49<616 633> 315 49<184 206> 356 51<714 737> 597 43<450 483> 702 20G<629 676>
VStem: 51 104<418 443> 364 40<567 584> 481 102<115 140> 794 42<271 289>
DStem: 562 615 676 722 210 0 262 0
Fore
676 722 m 1xdf80
 262 0 l 1
 210 0 l 1
 562 615 l 1
 519 601 496 597 464 597 c 0
 442 597 427 599 401 606 c 1
 403 589 404 579 404 569 c 0
 404 515 374 441 333 392 c 0
 288 339 241 315 184 315 c 0
 107 315 51 369 51 443 c 0
 51 512 97 603 157 655 c 0
 197 689 243 708 287 708 c 0
 327 708 354 694 380 660 c 1
 408 646 433 640 467 640 c 0
 537 640 586 665 629 722 c 1
 676 722 l 1xdf80
300 658 m 1
 263 645 251 633 215 569 c 0
 170 491 155 452 155 418 c 0
 155 386 176 364 206 364 c 0
 282 364 364 477 364 582 c 0
 364 595 362 606 358 619 c 1
 332 629 318 638 300 658 c 1
714 407 m 0xbf80
 785 407 836 355 836 283 c 0
 836 223 806 147 760 89 c 0
 722 41 669 14 616 14 c 0
 538 14 481 67 481 140 c 0
 481 197 508 266 550 319 c 0
 597 376 654 407 714 407 c 0xbf80
737 356 m 0
 709 356 684 334 655 287 c 0
 603 201 583 153 583 115 c 0
 583 86 605 63 633 63 c 0
 710 63 794 177 794 280 c 0
 794 322 769 356 737 356 c 0
EndSplineSet
EndChar
StartChar: ampersand
Encoding: 38 38 7
Width: 889
Flags: W
HStem: -15 82<589 663> 685 52<470 481>
VStem: 31 168<179 240> 255 155<528 575> 540 114<597 614>
Fore
823 397 m 1
 817 346 l 1
 746 340 727 325 633 203 c 0
 624 190 601 166 569 134 c 1
 614 80 633 67 663 67 c 0
 694 67 728 94 767 150 c 1
 806 120 l 1
 748 30 675 -15 589 -15 c 0
 531 -15 477 7 439 48 c 1
 380 6 318 -15 248 -15 c 0
 119 -15 31 63 31 179 c 0
 31 251 69 320 130 359 c 0
 169 385 198 398 270 425 c 1
 258 471 255 495 255 528 c 0
 255 598 272 645 312 682 c 0
 353 721 399 737 472 737 c 0
 584 737 654 684 654 599 c 0
 654 540 619 496 543 461 c 0
 517 448 492 440 439 425 c 1
 456 355 501 248 541 182 c 1
 606 249 626 277 626 304 c 0
 626 315 618 328 608 334 c 0
 597 341 584 343 541 346 c 1
 547 397 l 1
 823 397 l 1
425 477 m 1
 499 506 540 553 540 612 c 0
 540 655 515 685 479 685 c 0
 436 685 410 644 410 575 c 0
 410 543 414 515 425 477 c 1
283 372 m 1
 227 346 199 302 199 240 c 0
 199 143 257 69 334 69 c 0
 360 69 377 74 406 90 c 1
 353 175 315 263 283 372 c 1
EndSplineSet
EndChar
StartChar: quoteright
Encoding: 39 8217 8
Width: 259
Flags: W
HStem: 702 20G<169 227.5>
Fore
91 377 m 1
 70 417 l 1
 162 459 207 504 207 555 c 1
 195 553 189 552 180 552 c 0
 131 552 102 581 102 631 c 0
 102 685 141 722 197 722 c 0
 258 722 301 675 301 607 c 0
 301 510 227 429 91 377 c 1
EndSplineSet
KernsSLIF: 121 30 1 0 119 21 1 0 118 10 1 0 116 16 1 0 115 9 1 0 114 12 1 0 46 -15 1 0 111 -8 1 0 100 -5 1 0 44 -2 1 0 262 -54 1 0 256 -54 1 0 257 -54 1 0 225 -24 1 0 65 -54 1 0
EndChar
StartChar: parenleft
Encoding: 40 40 9
Width: 407
Flags: W
VStem: 71 114<117 238>
Fore
436 737 m 1
 452 705 l 1
 359 651 308 592 263 489 c 0
 219 387 185 225 185 117 c 0
 185 38 207 -33 251 -96 c 1
 221 -118 l 1
 125 -21 71 108 71 238 c 0
 71 449 221 653 436 737 c 1
EndSplineSet
EndChar
StartChar: parenright
Encoding: 41 41 10
Width: 407
Flags: W
VStem: 194 114<381 502>
Fore
-54 -118 m 1
 -70 -86 l 1
 21 -33 71 26 116 130 c 0
 160 234 194 395 194 502 c 0
 194 581 172 652 128 715 c 1
 158 737 l 1
 254 640 308 511 308 381 c 0
 308 171 158 -36 -54 -118 c 1
EndSplineSet
EndChar
StartChar: asterisk
Encoding: 42 42 11
Width: 500
Flags: W
HStem: 422 99<81 93> 511 101<411 423> 670 20G<110.5 132> 717 20G<283.5 311.5>
VStem: 160 99<344 358> 245 102<677 690>
Fore
278 510 m 1x74
 290 498 l 2
 321 468 321 468 374 451 c 0
 407 440 426 419 426 392 c 0
 426 365 404 343 377 343 c 0
 360 343 344 352 332 367 c 0
 324 377 323 379 310 419 c 0
 302 444 295 455 272 479 c 2
 259 492 l 1
 254 474 l 2
 249 456 247 442 247 430 c 0
 247 421 247 420 256 378 c 0
 258 371 259 363 259 356 c 0
 259 324 235 297 206 297 c 0
 180 297 160 319 160 347 c 0
 160 369 165 378 197 417 c 0
 214 437 219 448 228 481 c 2
 233 499 l 1
 216 494 l 2
 175 482 174 481 134 444 c 1
 117 430 100 422 83 422 c 0
 55 422 32 443 32 470 c 0
 32 498 59 521 93 521 c 0xb8
 103 521 103 521 138 515 c 0
 148 513 156 512 162 512 c 0
 174 512 190 515 209 520 c 2
 226 524 l 1
 214 537 l 1
 183 566 181 567 130 583 c 0
 97 594 78 616 78 643 c 0
 78 669 98 690 123 690 c 0
 141 690 158 681 170 665 c 0
 178 654 179 652 193 615 c 0
 202 590 208 581 232 556 c 2
 245 543 l 1
 250 560 l 2
 255 578 257 593 257 604 c 0
 257 614 257 615 248 656 c 0
 246 664 245 672 245 679 c 0
 245 710 269 737 298 737 c 0
 325 737 347 714 347 686 c 0
 347 663 342 655 308 617 c 0
 290 597 285 586 275 553 c 1
 271 536 l 1
 288 541 l 2
 328 553 329 553 370 590 c 0
 387 605 403 612 421 612 c 0
 449 612 472 590 472 563 c 0
 472 534 446 511 413 511 c 0
 402 511 402 511 366 518 c 0
 355 521 345 522 339 522 c 0
 326 522 313 520 295 515 c 2
 278 510 l 1x74
EndSplineSet
EndChar
StartChar: plus
Encoding: 43 43 12
Width: 606
Flags: W
HStem: 0 21G<236 351> 195 115<41 236 351 545>
VStem: 236 115<0 195 310 505>
Fore
236 195 m 1
 41 195 l 1
 41 310 l 1
 236 310 l 1
 236 505 l 1
 351 505 l 1
 351 310 l 1
 545 310 l 1
 545 195 l 1
 351 195 l 1
 351 0 l 1
 236 0 l 1
 236 195 l 1
EndSplineSet
EndChar
StartChar: comma
Encoding: 44 44 13
Width: 287
Flags: W
HStem: -11 21G<37.5 66>
Fore
-27 -187 m 1
 -48 -146 l 1
 42 -105 86 -60 86 -9 c 1
 76 -11 70 -11 62 -11 c 0
 13 -11 -16 18 -16 68 c 0
 -16 121 23 159 78 159 c 0
 139 159 180 112 180 43 c 0
 180 -54 107 -134 -27 -187 c 1
EndSplineSet
KernsSLIF: 39 1 1 0 186 7 1 0 49 -25 1 0
EndChar
StartChar: hyphen
Encoding: 45 45 14
Width: 333
Flags: W
HStem: 180 130<44 237>
Fore
45 310 m 1
 272 310 l 1
 237 180 l 1
 10 180 l 1
 45 310 l 1
EndSplineSet
KernsSLIF: 89 -63 1 0 87 -35 1 0 86 -56 1 0 84 -68 1 0 262 -14 1 0 256 -14 1 0 257 -14 1 0 225 8 1 0 65 -14 1 0
EndChar
StartChar: period
Encoding: 46 46 15
Width: 287
Flags: W
HStem: -15 21G<74.5 122.5>
Fore
99 159 m 0
 147 159 186 120 186 72 c 0
 186 24 147 -15 98 -15 c 0
 51 -15 12 25 12 72 c 0
 12 120 51 159 99 159 c 0
EndSplineSet
KernsSLIF: 39 3 1 0 186 8 1 0 49 -27 1 0
EndChar
StartChar: slash
Encoding: 47 47 16
Width: 278
Flags: W
HStem: -15 21G<-25 49> 717 20G<237 311>
DStem: 237 737 311 737 -25 -15 49 -15
Fore
237 737 m 1
 311 737 l 1
 49 -15 l 1
 -25 -15 l 1
 237 737 l 1
EndSplineSet
EndChar
StartChar: zero
Encoding: 48 48 17
Width: 574
Flags: W
HStem: -15 51<212 232> 656 49<342.799 360>
VStem: 21 145<107 236> 406 147<452 572>
Fore
358 705 m 0
 477 705 553 606 553 452 c 0
 553 202 398 -15 221 -15 c 0
 100 -15 21 84 21 236 c 0
 21 352 62 480 127 568 c 0
 195 660 272 705 358 705 c 0
353 656 m 0
 306 656 265 593 230 469 c 0
 197 350 166 176 166 107 c 0
 166 63 188 36 223 36 c 0
 270 36 301 81 340 209 c 0
 375 323 406 495 406 572 c 0
 406 625 386 656 353 656 c 0
EndSplineSet
KernsSLIF: 55 -7 1 0 49 -46 1 0 52 10 1 0
EndChar
StartChar: one
Encoding: 49 49 18
Width: 574
Flags: W
HStem: 0 54<32 447> 687 20G<448 489>
DStem: 287 521 489 707 187 144 338 144
Fore
489 707 m 1
 338 144 l 1
 330 112 325 90 325 81 c 0
 325 59 339 54 404 54 c 2
 454 54 l 1
 447 0 l 1
 25 0 l 1
 33 54 l 1
 84 54 l 2
 126 54 150 58 160 68 c 0
 168 75 168 75 187 144 c 1
 287 521 l 1
 294 544 295 550 295 559 c 0
 295 579 284 585 250 585 c 2
 160 585 l 1
 173 635 l 1
 274 639 403 673 448 707 c 1
 489 707 l 1
EndSplineSet
KernsSLIF: 48 -34 1 0 50 -5 1 0 51 -34 1 0 54 -40 1 0 55 -61 1 0 46 -23 1 0 49 -39 1 0 57 -30 1 0 52 -54 1 0 53 -35 1 0 56 -36 1 0 44 -12 1 0
EndChar
StartChar: two
Encoding: 50 50 19
Width: 574
Flags: W
HStem: 0 135<125 416> 644 61<265 322>
VStem: 71 179<467 496> 374 164<521 541>
Fore
458 249 m 1
 501 234 l 1
 416 0 l 1
 -40 0 l 1
 -45 42 0 97 135 214 c 0
 233 299 285 349 314 386 c 0
 352 433 374 489 374 537 c 0
 374 600 329 644 265 644 c 0
 212 644 159 609 159 574 c 0
 159 559 165 554 198 539 c 0
 234 523 250 501 250 467 c 0
 250 419 217 386 169 386 c 0
 112 386 71 432 71 496 c 0
 71 616 177 705 322 705 c 0
 384 705 442 687 478 657 c 0
 514 626 538 574 538 523 c 0
 538 455 496 385 417 324 c 0
 398 309 398 309 225 205 c 1
 169 170 140 150 125 135 c 1
 321 135 l 2
 389 135 407 148 448 230 c 2
 458 249 l 1
EndSplineSet
KernsSLIF: 55 -20 1 0 49 -47 1 0 52 4 1 0
EndChar
StartChar: three
Encoding: 51 51 20
Width: 574
Flags: W
HStem: -15 50<180 210> 329 69<199 212> 339 47<250 268> 652 53<295 325>
VStem: -5 172<148 172> 103 159<532 548> 324 164<210 245> 382 156<543 562>
Fore
344 361 m 1xb5
 393 348 410 341 430 328 c 0
 464 305 488 257 488 210 c 0
 488 81 370 -15 210 -15 c 0
 78 -15 -5 47 -5 148 c 0
 -5 208 32 249 86 249 c 0
 134 249 167 217 167 172 c 0
 167 137 148 112 115 102 c 0
 98 96 95 93 95 82 c 0
 95 59 139 35 180 35 c 0
 223 35 264 59 286 96 c 0
 310 136 324 192 324 245 c 0
 324 306 300 339 257 339 c 0xba
 248 339 248 339 226 333 c 0
 218 330 210 329 203 329 c 0
 181 329 168 342 168 363 c 0
 168 384 181 398 201 398 c 0xda
 209 398 215 397 227 392 c 0
 241 387 248 386 259 386 c 0
 288 386 309 396 330 421 c 0
 364 459 382 507 382 555 c 0
 382 616 350 652 295 652 c 0
 254 652 212 632 212 612 c 0
 212 608 214 605 219 600 c 0
 253 573 262 559 262 532 c 0
 262 492 228 461 185 461 c 0
 137 461 103 497 103 548 c 0
 103 636 201 705 325 705 c 0
 451 705 538 639 538 545 c 0
 538 474 493 414 416 382 c 0
 397 374 385 370 358 364 c 0
 354 363 349 362 344 361 c 1xb5
EndSplineSet
KernsSLIF: 55 -27 1 0 49 -56 1 0
EndChar
StartChar: four
Encoding: 52 52 21
Width: 574
Flags: W
HStem: 0 54<113 470> 0 250<77 470> 184 66<77 252 422 524> 687 20G<449 544>
DStem: 344 525 544 707 270 250 422 250 449 707 344 525 -13 239 77 250
Fore
535 250 m 1x30
 524 184 l 1
 404 184 l 1
 393 144 l 2
 384 111 380 90 380 81 c 0
 380 59 394 54 459 54 c 2
 477 54 l 1
 470 0 l 1xb0
 107 0 l 1x50
 114 54 l 1
 139 54 l 2
 181 54 205 58 215 68 c 0
 223 76 223 76 242 144 c 1
 252 184 l 1
 -13 184 l 1xb0
 -13 239 l 1
 449 707 l 1
 544 707 l 1
 422 250 l 1x50
 535 250 l 1x30
270 250 m 1x50
 344 525 l 1
 77 250 l 1
 270 250 l 1x50
EndSplineSet
KernsSLIF: 55 -21 1 0 49 -28 1 0 52 22 1 0
EndChar
StartChar: five
Encoding: 53 53 22
Width: 574
Flags: W
HStem: -15 51<182 206> 387 64<244 308> 537 139<338 417> 685 20G<566 569>
VStem: 0 172<142 169> 345 165<243 274>
DStem: 197 705 213 553 105 388 175 424
Fore
105 388 m 1
 197 705 l 1
 277 686 351 676 417 676 c 0
 472 676 507 683 557 702 c 0
 563 704 565 705 567 705 c 0
 571 705 573 702 573 697 c 0
 573 666 546 616 515 589 c 0
 473 553 418 537 338 537 c 0
 295 537 286 538 223 551 c 2
 213 553 l 1
 175 424 l 1
 226 443 263 451 308 451 c 0
 430 451 510 379 510 268 c 0
 510 106 381 -15 206 -15 c 0
 80 -15 0 46 0 142 c 0
 0 203 37 244 92 244 c 0
 140 244 172 214 172 169 c 0
 172 130 152 103 113 91 c 0
 105 88 101 84 101 79 c 0
 101 56 140 36 184 36 c 0
 274 36 345 134 345 256 c 0
 345 338 307 387 244 387 c 0
 218 387 200 382 152 361 c 1
 147 323 128 303 99 303 c 0
 80 303 66 318 66 338 c 0
 66 360 79 376 105 388 c 1
EndSplineSet
KernsSLIF: 55 -30 1 0 49 -56 1 0 52 8 1 0
EndChar
StartChar: six
Encoding: 54 54 23
Width: 574
Flags: W
HStem: -15 46<237 255> 371 60<294 338> 654 51<397 415>
VStem: 30 151<138 230> 358 162<240 274> 410 163<566 581>
Fore
225 390 m 1xf4
 263 421 292 431 338 431 c 0
 444 431 520 357 520 253 c 0xf8
 520 107 394 -15 243 -15 c 0
 112 -15 30 79 30 230 c 0
 30 346 73 472 145 565 c 0
 217 659 303 705 405 705 c 0
 502 705 573 653 573 581 c 0
 573 531 538 496 488 496 c 0
 443 496 410 526 410 568 c 0
 410 586 416 601 432 620 c 0
 438 627 440 631 440 636 c 0
 440 646 425 654 404 654 c 0
 362 654 314 614 283 552 c 0
 260 505 249 473 225 390 c 1xf4
294 371 m 0
 227 371 181 276 181 138 c 0
 181 69 204 31 245 31 c 0
 279 31 308 55 326 97 c 0
 346 147 358 212 358 270 c 0
 358 334 335 371 294 371 c 0
EndSplineSet
KernsSLIF: 55 -16 1 0 49 -44 1 0 52 14 1 0
EndChar
StartChar: seven
Encoding: 55 55 24
Width: 574
Flags: W
HStem: -15 21G<206.5 250.5> 559 135<303 470>
Fore
592 705 m 1
 593 667 l 1
 409 354 367 260 339 106 c 0
 330 60 326 46 314 27 c 0
 298 1 268 -15 233 -15 c 0
 180 -15 144 18 144 66 c 0
 144 114 163 151 240 258 c 0
 272 302 349 403 470 559 c 1
 258 559 l 2
 196 559 166 537 126 462 c 2
 110 432 l 1
 64 448 l 1
 167 705 l 1
 249 696 288 694 355 694 c 0
 426 694 482 697 592 705 c 1
EndSplineSet
KernsSLIF: 50 -21 1 0 51 -25 1 0 54 -27 1 0 55 -29 1 0 46 -46 1 0 49 -49 1 0 52 -59 1 0 53 -27 1 0 56 -24 1 0 44 -33 1 0 58 -43 1 0
EndChar
StartChar: eight
Encoding: 56 56 25
Width: 574
Flags: W
HStem: -15 48<224 247> 655 50<331 351>
VStem: 0 121<144 162> 98 121<488 550> 375 130<148 206> 440 111<528 562>
Fore
406 382 m 1xd4
 469 341 505 278 505 206 c 0
 505 76 389 -15 224 -15 c 0
 90 -15 0 51 0 148 c 0xe8
 0 200 28 252 74 287 c 0
 100 307 130 323 172 339 c 1
 119 384 98 427 98 488 c 0
 98 615 202 705 349 705 c 0
 469 705 551 641 551 546 c 0
 551 471 505 419 406 382 c 1xd4
365 410 m 1
 370 413 370 414 375 418 c 0xd8
 419 451 440 491 440 543 c 0
 440 613 399 655 333 655 c 0
 266 655 219 611 219 550 c 0xd4
 219 507 236 483 287 452 c 0
 292 449 318 435 365 410 c 1
211 306 m 1
 204 302 202 301 200 300 c 0
 152 270 121 212 121 153 c 0xe8
 121 81 171 33 245 33 c 0
 318 33 375 83 375 148 c 0
 375 189 354 222 310 252 c 0
 289 266 289 266 232 295 c 0
 229 297 222 301 211 306 c 1
EndSplineSet
KernsSLIF: 55 -19 1 0 49 -46 1 0 52 7 1 0
EndChar
StartChar: nine
Encoding: 57 57 26
Width: 574
Flags: W
HStem: -15 51<160 178> 259 60<236 280> 659 46<320 338>
VStem: 1 163<109 124> 54 162<416 439> 393 151<460 552>
Fore
349 300 m 1xf4
 310 269 282 259 236 259 c 0
 130 259 54 333 54 437 c 0xec
 54 583 180 705 331 705 c 0
 462 705 544 611 544 460 c 0
 544 344 501 218 429 125 c 0
 357 31 271 -15 169 -15 c 0
 72 -15 1 37 1 109 c 0
 1 159 36 194 86 194 c 0
 131 194 164 164 164 122 c 0
 164 104 158 89 142 70 c 0
 136 63 134 59 134 54 c 0
 134 44 149 36 170 36 c 0
 212 36 260 76 291 138 c 0
 314 185 326 217 349 300 c 1xf4
329 659 m 0
 295 659 266 635 248 593 c 0
 229 544 216 478 216 420 c 0
 216 356 239 319 280 319 c 0
 319 319 348 346 368 399 c 0
 383 437 393 500 393 552 c 0
 393 621 370 659 329 659 c 0
EndSplineSet
KernsSLIF: 55 -12 1 0 49 -54 1 0
EndChar
StartChar: colon
Encoding: 58 58 27
Width: 287
Flags: W
HStem: -15 174<77 95> 307 174<157 174>
Fore
85 159 m 0
 133 159 172 120 172 72 c 0
 172 24 133 -15 84 -15 c 0
 37 -15 -2 25 -2 72 c 0
 -2 120 37 159 85 159 c 0
170 481 m 0
 218 481 257 442 257 394 c 0
 257 346 218 307 169 307 c 0
 122 307 83 347 83 394 c 0
 83 442 122 481 170 481 c 0
EndSplineSet
EndChar
StartChar: semicolon
Encoding: 59 59 28
Width: 287
Flags: W
HStem: -11 170<71 89> 307 174<156.681 172>
Fore
-18 -187 m 1
 -39 -146 l 1
 51 -105 95 -60 95 -9 c 1
 85 -11 79 -11 71 -11 c 0
 22 -11 -7 18 -7 68 c 0
 -7 121 32 159 87 159 c 0
 148 159 189 112 189 43 c 0
 189 -54 116 -134 -18 -187 c 1
170 481 m 0
 218 481 257 442 257 394 c 0
 257 346 218 307 169 307 c 0
 122 307 83 347 83 394 c 0
 83 442 122 481 170 481 c 0
EndSplineSet
EndChar
StartChar: less
Encoding: 60 60 29
Width: 606
Flags: W
DStem: 14 207 195 253 523 -25 523 100 523 529 523 404 14 297 195 253
Fore
523 404 m 1
 195 253 l 1
 523 100 l 1
 523 -25 l 1
 14 207 l 1
 14 297 l 1
 523 529 l 1
 523 404 l 1
EndSplineSet
EndChar
StartChar: equal
Encoding: 61 61 30
Width: 606
Flags: W
HStem: 92 115<41 545> 298 115<41 545>
Fore
41 92 m 1
 41 207 l 1
 545 207 l 1
 545 92 l 1
 41 92 l 1
41 298 m 1
 41 413 l 1
 545 413 l 1
 545 298 l 1
 41 298 l 1
EndSplineSet
EndChar
StartChar: greater
Encoding: 62 62 31
Width: 606
Flags: W
DStem: 38 404 38 529 366 253 547 297 366 253 547 207 38 100 38 -25
Fore
38 404 m 1
 38 529 l 1
 547 297 l 1
 547 207 l 1
 38 -25 l 1
 38 100 l 1
 366 253 l 1
 38 404 l 1
EndSplineSet
EndChar
StartChar: question
Encoding: 63 63 32
Width: 481
Flags: W
HStem: -15 174<158 176> 212 50<233 251> 689 48<264 287>
VStem: 99 48<536 548> 112 93<304 332> 346 106<582 625>
Fore
325 335 m 1xec
 374 323 l 1
 353 255 299 212 233 212 c 0
 165 212 112 265 112 332 c 0xec
 112 410 165 482 264 538 c 0
 329 575 346 594 346 625 c 0
 346 663 317 689 273 689 c 0
 207 689 147 618 147 539 c 0
 147 535 148 530 149 520 c 1
 101 520 l 1
 100 532 99 542 99 546 c 0xf4
 99 586 115 633 142 668 c 0
 174 712 226 737 285 737 c 0
 381 737 452 672 452 582 c 0
 452 499 404 441 281 376 c 0
 218 343 205 330 205 304 c 0
 205 278 223 262 251 262 c 0
 284 262 307 285 325 335 c 1xec
166 159 m 0
 214 159 253 120 253 72 c 0
 253 24 214 -15 165 -15 c 0
 118 -15 79 25 79 72 c 0
 79 120 118 159 166 159 c 0
EndSplineSet
EndChar
StartChar: at
Encoding: 64 64 33
Width: 747
Flags: W
HStem: -15 61<373 406> 145 51<291 309> 523 51<384 404> 676 61<373 406>
VStem: 22 65<352 386> 159 101<256 294> 402 92<204 231> 657 65<416 434>
Fore
643 190 m 1
 712 190 l 1
 697 153 680 130 648 98 c 0
 572 21 487 -15 386 -15 c 0
 184 -15 22 152 22 362 c 0
 22 570 185 737 388 737 c 0
 574 737 722 599 722 425 c 0
 722 281 605 147 479 147 c 0
 433 147 402 170 402 204 c 0
 402 207 403 213 404 220 c 1
 377 169 341 145 291 145 c 0
 216 145 159 210 159 294 c 0
 159 358 185 431 227 489 c 0
 267 543 325 574 384 574 c 0
 427 574 453 560 477 522 c 1
 489 556 l 1
 593 556 l 1
 501 268 l 1
 497 253 494 240 494 231 c 0
 494 216 502 208 518 208 c 0
 537 208 560 219 582 238 c 0
 631 280 657 343 657 418 c 0
 657 568 544 676 387 676 c 0
 215 676 87 543 87 366 c 0
 87 185 218 46 388 46 c 0
 495 46 586 97 643 190 c 1
404 523 m 0
 373 523 345 499 317 449 c 0
 282 387 260 312 260 256 c 0
 260 217 277 196 307 196 c 0
 339 196 368 225 392 280 c 0
 419 343 452 452 452 477 c 0
 452 502 430 523 404 523 c 0
EndSplineSet
EndChar
StartChar: A
Encoding: 65 65 34
Width: 741
Flags: W
HStem: 0 54<-69 211 341 709> 220 54<217 417> 716 20G<419 481>
DStem: 419 736 358 515 71 157 217 274 419 736 185 220 71 157 139 139
Fore
481 736 m 1
 612 114 l 2
 622 67 641 54 702 54 c 2
 716 54 l 1
 709 0 l 1
 335 0 l 1
 342 54 l 1
 358 54 l 2
 399 54 410 55 424 62 c 0
 434 66 441 76 441 85 c 0
 441 92 440 103 437 117 c 1
 417 220 l 1
 185 220 l 1
 139 139 l 2
 130 124 125 108 125 96 c 0
 125 67 150 54 206 54 c 2
 219 54 l 1
 211 0 l 1
 -75 0 l 1
 -68 54 l 1
 -62 54 l 2
 -18 54 33 93 71 157 c 2
 419 736 l 1
 481 736 l 1
404 274 m 1
 358 515 l 1
 217 274 l 1
 404 274 l 1
EndSplineSet
KernsSLIF: 121 -48 0 0 119 3 0 0 118 -20 0 0 117 -4 0 0 116 4 0 0 39 -66 0 0 186 -61 0 0 113 5 0 0 46 32 0 0 111 -7 0 0 45 -5 0 0 172 -10 0 0 171 -10 0 0 103 14 0 0 101 3 0 0 100 -1 0 0 44 37 0 0 332 -2 0 0 98 -10 0 0 97 -9 0 0 89 -13 0 0 87 -71 0 0 86 -87 0 0 300 -46 0 0 298 -46 0 0 301 -46 0 0 299 -46 0 0 85 -46 0 0 84 -12 0 0 81 -34 0 0 286 -35 0 0 79 -35 0 0 71 -32 0 0 264 -37 0 0 67 -35 0 0
EndChar
StartChar: B
Encoding: 66 66 35
Width: 759
Flags: W
HStem: 0 54<-44 368> 343 54<308 371> 668 54<103 143 104 457>
VStem: 492 191<195 233> 537 183<549 569>
DStem: 181 578 365 608 64 144 308 397 181 578 294 343 64 144 235 122
Fore
104 722 m 1xf0
 456 722 l 2
 538 722 605 710 643 687 c 0
 692 658 720 609 720 551 c 0xe8
 720 451 637 385 489 368 c 1
 620 345 683 289 683 195 c 0
 683 124 643 62 578 36 c 0
 523 13 446 0 368 0 c 2
 -50 0 l 1
 -43 54 l 1
 -39 54 l 2
 3 54 27 58 38 68 c 0
 46 76 46 76 64 144 c 1
 181 578 l 2
 190 611 194 632 194 641 c 0
 194 663 180 668 115 668 c 2
 96 668 l 1
 104 722 l 1xf0
308 397 m 1
 339 397 l 2
 410 397 438 403 468 423 c 0
 511 452 537 507 537 567 c 0
 537 632 502 668 440 668 c 2
 425 668 l 2
 389 668 378 657 365 608 c 2
 308 397 l 1
294 343 m 1
 235 122 l 1
 229 101 227 91 227 84 c 0
 227 63 244 54 280 54 c 2
 313 54 l 2
 365 54 408 67 436 91 c 0
 471 120 492 175 492 233 c 0xf0
 492 276 480 304 455 322 c 0
 430 339 411 343 344 343 c 2
 294 343 l 1
EndSplineSet
KernsSLIF: 89 -8 0 0 87 -23 0 0 86 -19 0 0 233 -5 0 0 288 -6 0 0 286 -6 0 0 289 -6 0 0 287 -6 0 0 79 -6 0 0 261 1 0 0 262 1 0 0 256 1 0 0 259 1 0 0 257 1 0 0 225 4 0 0 65 1 0 0
EndChar
StartChar: C
Encoding: 67 67 36
Width: 759
Flags: W
HStem: -15 63<368 397> 684 53<471 500>
VStem: 35 190<238 292>
Fore
759 712 m 1
 701 426 l 1
 652 432 l 1
 647 603 594 684 487 684 c 0
 421 684 361 646 320 576 c 0
 261 479 225 349 225 238 c 0
 225 121 291 48 397 48 c 0
 488 48 579 116 616 212 c 1
 679 212 l 1
 663 161 633 112 591 70 c 0
 536 15 458 -15 368 -15 c 0
 274 -15 178 18 122 71 c 0
 67 123 35 204 35 292 c 0
 35 531 238 737 473 737 c 0
 552 737 611 711 657 655 c 1
 713 712 l 1
 759 712 l 1
EndSplineSet
KernsSLIF: 286 -7 0 0 287 -7 0 0 79 -7 0 0 75 -15 0 0 72 -15 0 0 262 -17 0 0 256 -17 0 0 257 -17 0 0 225 -14 0 0 65 -17 0 0
EndChar
StartChar: D
Encoding: 68 68 37
Width: 833
Flags: W
HStem: 0 54<-43 320> 668 54<104 144 105 480>
VStem: 610 186<437 501>
DStem: 182 578 365 605 66 144 237 127
Fore
-49 0 m 1
 -42 54 l 1
 -38 54 l 2
 4 54 28 58 39 68 c 0
 47 76 47 76 66 144 c 1
 182 578 l 2
 191 612 195 632 195 641 c 0
 195 663 181 668 116 668 c 2
 98 668 l 1
 105 722 l 1
 463 722 l 2
 572 722 633 707 691 666 c 0
 760 618 796 540 796 437 c 0
 796 305 740 180 645 100 c 0
 559 28 459 0 285 0 c 2
 -49 0 l 1
281 54 m 2
 310 54 l 2
 396 54 467 91 515 162 c 0
 570 244 610 388 610 501 c 0
 610 610 558 668 461 668 c 2
 439 668 l 2
 393 668 379 655 365 605 c 1
 237 127 l 1
 229 91 228 88 228 81 c 0
 228 61 243 54 281 54 c 2
EndSplineSet
KernsSLIF: 89 -27 0 0 88 -43 0 0 87 -32 0 0 86 -39 0 0 84 -5 0 0 74 -1 0 0 261 -44 0 0 262 -44 0 0 258 -44 0 0 256 -44 0 0 259 -44 0 0 257 -44 0 0 65 -44 0 0
EndChar
StartChar: E
Encoding: 69 69 38
Width: 741
Flags: W
HStem: 0 54<-35 602> 477 245<113 688> 668 54<112 152 113 488>
DStem: 190 578 377 620 73 144 318 401 190 578 304 347 73 144 241 111
Fore
728 722 m 1xa0
 688 477 l 1
 636 477 l 1xc0
 635 540 629 577 615 604 c 0
 595 646 548 668 478 668 c 2
 440 668 l 2
 399 668 388 659 377 620 c 1
 318 401 l 1
 339 401 l 2
 426 401 471 434 505 523 c 1
 558 516 l 1
 468 181 l 1
 415 188 l 1
 419 218 420 232 420 250 c 0
 420 315 389 347 326 347 c 2
 304 347 l 1
 241 111 l 1
 237 98 235 85 235 79 c 0
 235 61 251 54 289 54 c 2
 325 54 l 2
 405 54 463 79 528 141 c 0
 566 177 593 213 616 259 c 1
 668 248 l 1
 602 0 l 1
 -41 0 l 1
 -34 54 l 1
 -30 54 l 2
 39 54 51 60 62 102 c 2
 73 144 l 1
 190 578 l 1
 199 613 203 632 203 641 c 0
 203 663 189 668 124 668 c 2
 105 668 l 1xa0
 113 722 l 1xc0
 728 722 l 1xa0
EndSplineSet
EndChar
StartChar: F
Encoding: 70 70 39
Width: 704
Flags: W
HStem: 0 54<-35 334> 477 245<113 686> 668 54<112 152 113 488>
DStem: 190 578 377 620 73 144 318 401 190 578 304 347 73 144 250 144
Fore
726 722 m 1xa0
 686 477 l 1
 634 477 l 1xc0
 633 540 627 577 613 604 c 0
 593 646 546 668 476 668 c 2
 440 668 l 2
 399 668 388 659 377 620 c 1
 318 401 l 1
 339 401 l 2
 426 401 471 434 505 523 c 1
 558 516 l 1
 468 181 l 1
 415 189 l 1
 419 218 420 232 420 250 c 0
 420 315 389 347 326 347 c 2
 304 347 l 1
 250 144 l 1
 240 108 236 90 236 81 c 0
 236 59 250 54 315 54 c 2
 342 54 l 1
 334 0 l 1
 -41 0 l 1
 -34 54 l 1
 -30 54 l 2
 39 54 51 60 62 102 c 2
 73 144 l 1
 190 578 l 1
 199 613 203 632 203 641 c 0
 203 663 189 668 124 668 c 2
 105 668 l 1xa0
 113 722 l 1xc0
 726 722 l 1xa0
EndSplineSet
KernsSLIF: 117 -7 0 0 114 -2 0 0 46 -80 0 0 249 -69 0 0 250 -56 0 0 351 -52 0 0 352 -66 0 0 111 -65 0 0 106 -21 0 0 105 3 0 0 45 -38 0 0 335 -61 0 0 101 -60 0 0 44 -67 0 0 328 -66 0 0 241 -41 0 0 322 -66 0 0 323 -66 0 0 97 -66 0 0 286 -7 0 0 79 -7 0 0 74 -61 0 0 261 -79 0 0 262 -79 0 0 258 -79 0 0 256 -79 0 0 259 -79 0 0 257 -79 0 0 65 -79 0 0
EndChar
StartChar: G
Encoding: 71 71 40
Width: 815
Flags: W
HStem: -15 52<346 371> 282 54<429 487 430 795> 683 54<481 515>
VStem: 34 188<229 284>
Fore
775 715 m 1
 718 432 l 1
 667 439 l 1
 666 492 659 533 644 576 c 0
 619 646 569 683 498 683 c 0
 419 683 352 632 298 531 c 0
 253 447 222 322 222 229 c 0
 222 181 232 133 248 103 c 0
 269 64 315 37 363 37 c 0
 426 37 480 81 504 152 c 0
 514 182 528 241 528 255 c 0
 528 278 516 282 451 282 c 2
 423 282 l 1
 430 336 l 1
 802 336 l 1
 795 282 l 1
 785 282 l 2
 716 282 704 276 694 234 c 0
 690 220 686 205 682 192 c 1
 627 -14 l 1
 579 -14 l 1
 560 81 l 1
 506 16 438 -15 347 -15 c 0
 277 -15 207 6 149 44 c 0
 77 92 34 182 34 284 c 0
 34 529 241 737 485 737 c 0
 568 737 616 716 670 657 c 1
 730 715 l 1
 775 715 l 1
EndSplineSet
KernsSLIF: 89 5 0 0 87 -7 0 0 86 -3 0 0 84 -27 0 0 261 -14 0 0 262 -14 0 0 258 -14 0 0 256 -14 0 0 259 -14 0 0 257 -14 0 0 225 -11 0 0 65 -14 0 0
EndChar
StartChar: H
Encoding: 72 72 41
Width: 870
Flags: W
HStem: 0 54<-35 318 389 762> 340 61<318 558> 668 54<112 152 113 482 552 584 553 905>
DStem: 190 578 366 578 73 144 318 401 190 578 302 340 73 144 250 144 558 340 798 578 505 144 681 144 621 578 798 578 574 401 681 144
Fore
558 340 m 1
 302 340 l 1
 250 144 l 1
 240 110 236 89 236 81 c 0
 236 59 250 54 315 54 c 2
 326 54 l 1
 318 0 l 1
 -41 0 l 1
 -34 54 l 1
 -30 54 l 2
 39 54 51 60 62 102 c 0
 65 114 70 130 73 144 c 1
 190 578 l 2
 199 612 203 632 203 641 c 0
 203 663 189 668 124 668 c 2
 105 668 l 1
 113 722 l 1
 488 722 l 1
 481 668 l 1
 469 668 l 2
 427 668 403 664 393 654 c 1
 384 647 384 647 366 578 c 1
 318 401 l 1
 574 401 l 1
 621 578 l 1
 631 613 635 632 635 641 c 0
 635 663 621 668 556 668 c 2
 545 668 l 1
 553 722 l 1
 912 722 l 1
 905 668 l 1
 901 668 l 2
 859 668 835 664 824 654 c 0
 816 647 816 647 798 578 c 1
 681 144 l 1
 673 112 668 90 668 81 c 0
 668 59 682 54 747 54 c 2
 769 54 l 1
 762 0 l 1
 383 0 l 1
 390 54 l 1
 402 54 l 2
 444 54 468 58 478 68 c 0
 487 76 487 76 505 144 c 1
 558 340 l 1
EndSplineSet
EndChar
StartChar: I
Encoding: 73 73 42
Width: 444
Flags: W
HStem: 0 54<-35 332> 668 54<112 152 113 479>
DStem: 192 578 369 578 76 144 253 144
Fore
332 0 m 1
 -41 0 l 1
 -34 54 l 1
 -27 54 l 2
 15 54 39 58 49 68 c 0
 58 76 58 76 76 144 c 2
 192 578 l 1
 202 612 206 632 206 641 c 0
 206 663 192 668 127 668 c 2
 105 668 l 1
 113 722 l 1
 486 722 l 1
 479 668 l 1
 472 668 l 2
 430 668 406 664 396 654 c 1
 387 647 387 647 369 578 c 1
 253 144 l 1
 239 89 239 89 239 81 c 0
 239 59 253 54 318 54 c 2
 340 54 l 1
 332 0 l 1
EndSplineSet
EndChar
StartChar: J
Encoding: 74 74 43
Width: 667
Flags: W
HStem: -15 57<170 226> 138 190<124 144> 668 54<339 392 340 711>
VStem: -9 68<135 169>
DStem: 427 578 604 578 342 260 522 274
Fore
332 668 m 1
 340 722 l 1
 718 722 l 1
 711 668 l 1
 707 668 l 2
 665 668 641 664 630 654 c 0
 622 646 622 646 604 578 c 1
 522 274 l 2
 487 144 487 144 470 113 c 0
 421 24 346 -15 226 -15 c 0
 75 -15 -9 51 -9 169 c 0
 -9 262 46 328 124 328 c 0
 188 328 231 289 231 231 c 0
 231 179 193 138 144 138 c 0
 129 138 115 142 100 151 c 0
 85 159 82 160 77 160 c 0
 65 160 59 151 59 135 c 0
 59 83 108 42 170 42 c 0
 217 42 262 69 290 114 c 0
 312 150 315 158 342 260 c 2
 427 578 l 1
 437 614 441 632 441 641 c 0
 441 663 427 668 362 668 c 2
 332 668 l 1
EndSplineSet
KernsSLIF: 262 -48 0 0 256 -48 0 0 225 -43 0 0 65 -48 0 0
EndChar
StartChar: K
Encoding: 75 75 44
Width: 778
Flags: W
HStem: 0 54<-35 318 381 749> 668 54<112 152 113 481 532 574>
DStem: 189 578 366 578 74 145 305 353 360 320 491 437 462 107 634 129 572 601 653 587 305 353 491 437
Fore
305 353 m 1
 572 601 l 2
 593 621 602 633 602 643 c 0
 602 659 587 668 561 668 c 2
 526 668 l 1
 533 722 l 1
 832 722 l 1
 825 668 l 1
 755 664 712 644 653 587 c 1
 491 437 l 1
 634 129 l 2
 666 59 673 54 742 54 c 2
 757 54 l 1
 749 0 l 1
 375 0 l 1
 382 54 l 1
 413 54 l 2
 459 54 473 59 473 76 c 0
 473 84 473 84 462 107 c 2
 360 320 l 1
 276 243 l 1
 250 144 l 1
 240 110 236 90 236 81 c 0
 236 59 250 54 315 54 c 2
 326 54 l 1
 318 0 l 1
 -41 0 l 1
 -34 54 l 1
 -30 54 l 2
 12 54 36 59 47 68 c 0
 55 76 55 76 74 145 c 1
 189 578 l 1
 199 613 203 632 203 641 c 0
 203 663 189 668 124 668 c 2
 105 668 l 1
 113 722 l 1
 488 722 l 1
 481 668 l 1
 469 668 l 2
 427 668 403 664 393 654 c 0
 384 646 384 646 366 578 c 1
 305 353 l 1
EndSplineSet
KernsSLIF: 121 -69 0 0 362 -2 0 0 117 -2 0 0 351 -5 0 0 352 -5 0 0 111 -5 0 0 45 -24 0 0 101 5 0 0 328 -7 0 0 241 25 0 0 322 -7 0 0 97 -7 0 0 84 9 0 0 83 22 0 0 286 -33 0 0 287 -33 0 0 234 -22 0 0 79 -33 0 0 71 -30 0 0 67 -33 0 0
EndChar
StartChar: L
Encoding: 76 76 45
Width: 704
Flags: W
HStem: 0 54<-35 602> 668 54<112 152 113 487>
DStem: 190 578 366 578 73 144 250 144
Fore
618 266 m 1
 670 255 l 1
 602 0 l 1
 -41 0 l 1
 -34 54 l 1
 -30 54 l 2
 12 54 36 58 47 68 c 0
 55 76 55 76 73 144 c 1
 190 578 l 1
 199 613 203 632 203 641 c 0
 203 663 189 668 124 668 c 2
 105 668 l 1
 113 722 l 1
 495 722 l 1
 487 668 l 1
 469 668 l 2
 427 668 403 664 393 654 c 0
 384 646 384 646 366 578 c 2
 250 144 l 1
 240 109 236 89 236 80 c 0
 236 60 249 54 289 54 c 2
 325 54 l 2
 405 54 463 79 528 141 c 0
 570 180 596 217 618 266 c 1
EndSplineSet
KernsSLIF: 121 11 0 0 117 2 0 0 39 -39 0 0 186 -36 0 0 45 44 0 0 89 -43 0 0 87 -50 0 0 86 -67 0 0 298 -27 0 0 85 -27 0 0 84 -43 0 0 83 -3 0 0 71 1 0 0 262 27 0 0 256 27 0 0 257 27 0 0 225 30 0 0 65 27 0 0
EndChar
StartChar: M
Encoding: 77 77 46
Width: 944
Flags: W
HStem: 0 54<202 221 473 834> 668 54<112 162 719 981>
DStem: 190 578 254 566 93 216 160 216 254 566 406 722 293 0 441 259 693 562 874 578 581 144 757 144 719 722 693 562 441 259 356 0
Fore
406 722 m 1
 441 259 l 1
 719 722 l 1
 988 722 l 1
 981 668 l 1
 977 668 l 2
 935 668 911 664 900 654 c 0
 892 647 892 647 874 578 c 1
 757 144 l 1
 749 112 744 89 744 81 c 0
 744 59 758 54 823 54 c 2
 842 54 l 1
 834 0 l 1
 467 0 l 1
 474 54 l 1
 478 54 l 2
 520 54 544 58 554 68 c 0
 563 76 563 76 581 144 c 2
 693 562 l 1
 356 0 l 1
 293 0 l 1
 254 566 l 1
 160 216 l 1
 140 136 139 129 139 109 c 0
 139 74 168 54 221 54 c 1
 213 0 l 1
 -24 0 l 1
 -17 54 l 1
 38 58 58 89 93 216 c 1
 190 578 l 2
 201 619 204 632 204 641 c 0
 204 663 190 668 125 668 c 2
 106 668 l 1
 113 722 l 1
 406 722 l 1
EndSplineSet
EndChar
StartChar: N
Encoding: 78 78 47
Width: 852
Flags: W
HStem: 0 54<202 227> 668 54<95 160 635 651.657 635 905>
DStem: 204 636 248 552 91 217 158 217 248 552 350 722 544 -14 618 215 696 505 763 505 618 215 624 -14
Fore
350 722 m 1
 618 215 l 1
 696 505 l 1
 717 585 718 591 718 613 c 0
 718 650 688 668 628 668 c 1
 635 722 l 1
 912 722 l 1
 905 668 l 1
 871 668 844 659 824 641 c 0
 796 614 794 611 763 505 c 1
 624 -14 l 1
 544 -14 l 1
 248 552 l 1
 158 217 l 1
 138 137 137 130 137 109 c 0
 137 72 166 54 224 54 c 2
 235 54 l 1
 227 0 l 1
 -57 0 l 1
 -50 54 l 1
 -16 55 11 64 31 81 c 0
 59 107 61 113 91 217 c 1
 204 636 l 1
 192 659 176 668 145 668 c 2
 89 668 l 1
 96 722 l 1
 350 722 l 1
EndSplineSet
KernsSLIF: 362 -39 0 0 117 -38 0 0 46 -24 0 0 249 -40 0 0 351 -35 0 0 352 -37 0 0 111 -36 0 0 335 -32 0 0 101 -30 0 0 44 -11 0 0 328 -38 0 0 241 -32 0 0 322 -38 0 0 323 -38 0 0 97 -38 0 0 286 -21 0 0 287 -21 0 0 79 -21 0 0 71 -20 0 0 264 -20 0 0 67 -20 0 0 262 -33 0 0 256 -33 0 0 257 -33 0 0 225 -30 0 0 65 -33 0 0
EndChar
StartChar: O
Encoding: 79 79 48
Width: 833
Flags: W
HStem: -15 54<324.757 357> 683 54<468.793 501>
VStem: 36 179<193 286> 613 184<441 520>
Fore
490 737 m 0
 582 737 655 708 714 646 c 0
 769 590 797 520 797 441 c 0
 797 193 589 -15 342 -15 c 0
 157 -15 36 104 36 286 c 0
 36 406 88 526 176 610 c 0
 267 696 368 737 490 737 c 0
487 683 m 0
 412 683 352 633 300 528 c 0
 251 428 215 287 215 193 c 0
 215 98 264 39 342 39 c 0
 415 39 477 90 533 196 c 0
 582 291 613 415 613 520 c 0
 613 568 605 603 586 631 c 0
 566 662 526 683 487 683 c 0
EndSplineSet
KernsSLIF: 89 -26 0 0 88 -45 0 0 87 -35 0 0 86 -38 0 0 84 -4 0 0 262 -49 0 0 256 -49 0 0 257 -49 0 0 225 -32 0 0 65 -49 0 0
EndChar
StartChar: P
Encoding: 80 80 49
Width: 741
Flags: W
HStem: 0 54<-32 336> 311 54<311 381> 668 54<118 155 119 461>
VStem: 552 179<533 563>
DStem: 192 578 378 615 76 144 311 365 192 578 297 311 76 144 252 144
Fore
297 311 m 1
 252 144 l 2
 240 100 238 90 238 81 c 0
 238 59 252 54 318 54 c 2
 343 54 l 1
 336 0 l 1
 -38 0 l 1
 -31 54 l 1
 -27 54 l 2
 42 54 54 60 65 102 c 2
 76 144 l 1
 192 578 l 2
 204 623 206 632 206 641 c 0
 206 663 192 668 126 668 c 2
 112 668 l 1
 119 722 l 1
 434 722 l 2
 549 722 614 709 659 677 c 0
 706 644 731 593 731 533 c 0
 731 448 686 379 608 345 c 0
 555 321 487 311 377 311 c 2
 297 311 l 1
311 365 m 1
 360 365 l 2
 416 365 459 377 487 400 c 0
 525 431 552 499 552 563 c 0
 552 627 516 668 459 668 c 2
 442 668 l 2
 400 668 390 660 378 615 c 2
 311 365 l 1
EndSplineSet
KernsSLIF: 46 -109 0 0 249 -56 0 0 250 -38 0 0 351 -51 0 0 352 -51 0 0 111 -51 0 0 45 -45 0 0 335 -48 0 0 101 -48 0 0 44 -96 0 0 328 -50 0 0 241 -30 0 0 322 -50 0 0 323 -50 0 0 97 -50 0 0 74 -60 0 0 262 -89 0 0 256 -89 0 0 257 -89 0 0 225 -65 0 0 65 -89 0 0
EndChar
StartChar: Q
Encoding: 81 81 50
Width: 833
Flags: W
HStem: -186 82<536 612> -15 53<331 356> 217 60<338 366> 685 52<467.495 500>
VStem: 35 181<209 282> 614 182<437 512>
Fore
682 -30 m 1
 724 -52 l 1
 686 -140 621 -186 536 -186 c 0
 473 -186 422 -158 403 -113 c 0
 391 -85 388 -62 388 -12 c 1
 364 -14 345 -15 333 -15 c 0
 257 -15 178 14 126 61 c 0
 67 114 35 192 35 282 c 0
 35 529 240 737 484 737 c 0
 582 737 657 707 717 643 c 0
 770 587 796 520 796 437 c 0
 796 331 758 223 692 141 c 0
 656 97 619 69 560 41 c 1
 567 -33 571 -57 580 -76 c 0
 589 -95 599 -104 612 -104 c 0
 637 -104 662 -77 682 -30 c 1
525 180 m 1
 576 243 614 385 614 512 c 0
 614 567 604 611 585 638 c 0
 565 666 525 685 485 685 c 0
 406 685 340 625 288 506 c 0
 245 406 216 288 216 209 c 0
 216 193 217 179 219 154 c 1
 230 234 282 277 366 277 c 0
 442 277 494 245 525 180 c 1
397 54 m 1
 410 122 410 124 410 149 c 0
 410 188 379 217 338 217 c 0
 292 217 258 177 258 124 c 0
 258 71 292 38 346 38 c 0
 367 38 379 42 397 54 c 1
EndSplineSet
EndChar
StartChar: R
Encoding: 82 82 51
Width: 796
Flags: W
HStem: 0 54<-35 333> 668 54<111 152 112 472>
VStem: 424 179<112 149> 567 184<553 572>
DStem: 189 578 380 630 73 144 319 404 189 578 304 350 73 144 249 144
Fore
304 350 m 1xe0
 249 144 l 1
 241 112 236 90 236 81 c 0
 236 59 250 54 315 54 c 2
 341 54 l 1
 333 0 l 1
 -41 0 l 1
 -34 54 l 1
 -30 54 l 2
 12 54 36 58 46 68 c 0
 55 76 55 76 73 144 c 2
 189 578 l 1
 200 618 203 632 203 641 c 0
 203 663 189 668 124 668 c 2
 105 668 l 1
 112 722 l 1
 459 722 l 2
 557 722 623 712 671 690 c 0
 719 668 751 615 751 555 c 0xd0
 751 441 653 374 464 359 c 1
 515 345 538 331 564 304 c 0
 592 273 603 239 603 181 c 2
 603 147 l 2xe0
 603 81 603 81 610 72 c 0
 615 65 621 61 628 61 c 0
 646 61 668 82 682 114 c 0
 687 125 690 132 699 157 c 1
 742 136 l 1
 708 33 652 -15 567 -15 c 0xd0
 483 -15 424 44 424 127 c 0
 424 148 427 179 431 211 c 0
 434 232 436 254 436 269 c 0
 436 324 403 350 334 350 c 2
 304 350 l 1xe0
319 404 m 1
 353 404 l 2
 443 404 469 409 502 435 c 1
 542 464 567 517 567 570 c 0
 567 633 529 668 459 668 c 2
 434 668 l 2
 398 668 388 661 380 630 c 1
 319 404 l 1
EndSplineSet
KernsSLIF: 121 -32 0 0 362 -12 0 0 363 -12 0 0 117 -11 0 0 250 2 0 0 351 -4 0 0 352 -4 0 0 111 -4 0 0 45 19 0 0 335 2 0 0 101 2 0 0 328 -6 0 0 241 7 0 0 322 -6 0 0 323 -6 0 0 97 -6 0 0 89 -7 0 0 87 -22 0 0 86 -18 0 0 298 -25 0 0 85 -25 0 0 84 -19 0 0 286 -9 0 0 287 -9 0 0 234 -2 0 0 79 -9 0 0 71 -8 0 0 264 -8 0 0 67 -8 0 0
EndChar
StartChar: S
Encoding: 83 83 52
Width: 685
Flags: W
HStem: -15 54<301 338> 683 54<366 386>
VStem: 102 135<495 575> 474 138<152 224>
Fore
666 715 m 1
 622 452 l 1
 570 461 l 1
 568 517 561 551 545 584 c 0
 513 647 453 683 380 683 c 0
 294 683 237 640 237 575 c 0
 237 548 248 521 269 503 c 1
 282 490 308 478 349 464 c 0
 423 440 485 414 522 392 c 0
 580 359 612 299 612 224 c 0
 612 83 493 -15 320 -15 c 0
 230 -15 169 8 103 65 c 1
 45 0 l 1
 1 0 l 1
 51 283 l 1
 103 275 l 1
 103 260 l 2
 103 126 187 39 317 39 c 0
 411 39 474 85 474 152 c 0
 474 211 438 239 303 285 c 0
 219 313 189 329 158 359 c 0
 121 394 102 441 102 495 c 0
 102 633 216 737 368 737 c 0
 447 737 507 714 568 661 c 1
 621 715 l 1
 666 715 l 1
EndSplineSet
KernsSLIF: 116 -6 0 0 89 16 0 0 87 3 0 0 86 7 0 0 84 -17 0 0 262 -2 0 0 256 -2 0 0 257 -2 0 0 65 -2 0 0
EndChar
StartChar: T
Encoding: 84 84 53
Width: 722
Flags: W
HStem: 0 54<72 463> 668 54<115 317 115 557>
DStem: 333 629 507 623 203 144 379 144
Fore
762 722 m 1
 718 439 l 1
 665 444 l 1
 667 467 668 492 668 504 c 0
 668 609 626 668 550 668 c 0
 521 668 519 666 507 623 c 1
 379 144 l 2
 367 100 365 90 365 81 c 0
 365 59 379 54 445 54 c 2
 470 54 l 1
 463 0 l 1
 66 0 l 1
 73 54 l 1
 100 54 l 2
 142 54 166 58 176 68 c 0
 185 76 185 76 203 144 c 2
 333 629 l 1
 336 639 337 648 337 653 c 0
 337 663 327 668 309 668 c 0
 224 668 163 603 94 439 c 1
 44 455 l 1
 115 722 l 1
 762 722 l 1
EndSplineSet
KernsSLIF: 121 -3 0 0 119 16 0 0 118 11 0 0 117 6 0 0 59 -12 0 0 115 -21 0 0 114 12 0 0 46 -86 0 0 249 -59 0 0 111 -51 0 0 106 -12 0 0 105 13 0 0 45 -86 0 0 172 -90 0 0 171 -90 0 0 103 -40 0 0 101 -48 0 0 44 -73 0 0 58 -9 0 0 99 -56 0 0 241 -18 0 0 97 -45 0 0 89 45 0 0 87 33 0 0 86 37 0 0 83 -9 0 0 290 5 0 0 233 5 0 0 288 5 0 0 286 5 0 0 289 5 0 0 287 5 0 0 234 10 0 0 79 5 0 0 74 -58 0 0 71 5 0 0 67 6 0 0 261 -55 0 0 262 -55 0 0 258 -55 0 0 256 -55 0 0 259 -55 0 0 257 -55 0 0 225 -50 0 0 65 -55 0 0
EndChar
StartChar: U
Encoding: 85 85 54
Width: 833
Flags: W
HStem: -15 62<371 409> 668 54<101 137 102 470 621 638.394>
VStem: 88 171<184 198>
DStem: 179 578 355 578 105 303 274 274 682 506 749 506 615 254 675 227
Fore
95 668 m 1
 102 722 l 1
 478 722 l 1
 470 668 l 1
 458 668 l 2
 416 668 392 664 382 654 c 0
 373 646 373 646 355 578 c 2
 274 274 l 1
 263 234 259 210 259 186 c 0
 259 98 314 47 409 47 c 0
 464 47 506 65 544 106 c 1
 578 140 594 175 615 254 c 2
 682 506 l 2
 703 585 704 592 704 613 c 0
 704 651 675 668 614 668 c 1
 621 722 l 1
 895 722 l 1
 888 668 l 1
 862 669 829 658 810 641 c 0
 782 616 779 609 749 506 c 1
 675 227 l 2
 630 58 537 -15 371 -15 c 0
 301 -15 243 -3 200 19 c 0
 135 54 88 127 88 196 c 0
 88 224 94 261 105 303 c 2
 179 578 l 1
 191 624 193 632 193 641 c 0
 193 663 179 668 113 668 c 2
 95 668 l 1
EndSplineSet
KernsSLIF: 114 -36 0 0 46 -36 0 0 112 -37 0 0 110 -35 0 0 109 -39 0 0 44 -23 0 0 261 -51 0 0 262 -51 0 0 256 -51 0 0 259 -51 0 0 257 -51 0 0 225 -40 0 0 65 -51 0 0
EndChar
StartChar: V
Encoding: 86 86 55
Width: 741
Flags: W
HStem: -14 21G<258 324> 668 54<38 81 39 398 522 561>
DStem: 138 593 309 611 258 -14 384 209
Fore
384 209 m 1
 591 572 l 2
 604 595 610 614 610 629 c 0
 610 656 589 668 543 668 c 2
 516 668 l 1
 523 722 l 1
 802 722 l 1
 795 668 l 1
 734 659 712 642 662 560 c 1
 324 -14 l 1
 258 -14 l 1
 138 593 l 1
 125 657 114 668 64 668 c 2
 32 668 l 1
 39 722 l 1
 406 722 l 1
 398 668 l 1
 371 668 l 2
 332 668 324 667 314 660 c 0
 308 655 304 648 304 641 c 0
 304 638 306 627 309 611 c 2
 384 209 l 1
EndSplineSet
KernsSLIF: 121 -74 0 0 117 -61 0 0 59 -80 0 0 114 -55 0 0 46 -99 0 0 249 -94 0 0 111 -90 0 0 105 -25 0 0 45 -60 0 0 172 -64 0 0 171 -64 0 0 103 -94 0 0 101 -84 0 0 44 -86 0 0 58 -81 0 0 241 -85 0 0 97 -91 0 0 84 12 0 0 83 -19 0 0 290 -50 0 0 233 -48 0 0 288 -50 0 0 286 -50 0 0 289 -50 0 0 287 -50 0 0 79 -50 0 0 71 -49 0 0 67 -45 0 0 261 -101 0 0 262 -101 0 0 258 -101 0 0 256 -101 0 0 259 -101 0 0 257 -101 0 0 225 -40 0 0 65 -101 0 0
EndChar
StartChar: W
Encoding: 87 87 56
Width: 944
Flags: W
HStem: -14 21G<200 266 556 622> 668 54<46 73 47 343 395 425 396 700 758 777>
DStem: 114 630 284 616 200 -14 328 264 476 593 488 469 328 264 266 -14 488 469 635 613 556 -14 682 276 811 586 855 524 682 276 622 -14
Fore
682 276 m 1
 811 586 l 2
 820 607 824 622 824 632 c 0
 824 653 802 668 770 668 c 2
 752 668 l 1
 759 722 l 1
 994 722 l 1
 987 668 l 1
 925 658 899 630 855 524 c 1
 622 -14 l 1
 556 -14 l 1
 488 469 l 1
 266 -14 l 1
 200 -14 l 1
 114 630 l 2
 110 660 97 668 55 668 c 2
 40 668 l 1
 47 722 l 1
 350 722 l 1
 343 668 l 1
 328 668 l 2
 292 668 283 661 283 632 c 1
 284 616 l 1
 328 264 l 1
 476 593 l 1
 473 623 l 1
 469 657 453 668 405 668 c 2
 389 668 l 1
 396 722 l 1
 707 722 l 1
 700 668 l 1
 678 668 l 2
 644 668 631 660 632 640 c 0
 632 634 633 625 635 613 c 1
 682 276 l 1
EndSplineSet
KernsSLIF: 121 -58 0 0 117 -51 0 0 59 -52 0 0 114 -45 0 0 46 -61 0 0 249 -66 0 0 111 -62 0 0 105 -30 0 0 45 -33 0 0 172 -37 0 0 171 -37 0 0 103 -66 0 0 101 -57 0 0 44 -48 0 0 58 -53 0 0 241 -58 0 0 97 -64 0 0 84 7 0 0 83 -24 0 0 290 -39 0 0 233 -37 0 0 288 -39 0 0 286 -39 0 0 289 -39 0 0 287 -39 0 0 79 -39 0 0 71 -38 0 0 67 -38 0 0 261 -74 0 0 262 -74 0 0 258 -74 0 0 256 -74 0 0 259 -74 0 0 257 -74 0 0 225 -45 0 0 65 -74 0 0
EndChar
StartChar: X
Encoding: 88 88 57
Width: 741
Flags: W
HStem: 0 54<-65 -43.4484 215 241 317 698> 668 54<70 121 71 438 506 521>
DStem: 300 342 326 279 83 129 191 147 326 279 453 404 399 109 585 109 552 590 633 577 429 468 453 404
Fore
453 404 m 1
 585 109 l 2
 605 65 624 54 682 54 c 2
 705 54 l 1
 698 0 l 1
 311 0 l 1
 318 54 l 1
 359 54 l 2
 397 54 409 59 409 76 c 0
 409 84 408 88 399 109 c 2
 326 279 l 1
 191 147 l 2
 170 127 160 109 160 94 c 0
 160 67 182 54 226 54 c 2
 248 54 l 1
 241 0 l 1
 -72 0 l 1
 -65 54 l 1
 -15 53 24 73 83 129 c 1
 300 342 l 1
 174 622 l 2
 156 661 145 668 100 668 c 2
 63 668 l 1
 71 722 l 1
 445 722 l 1
 438 668 l 1
 405 668 l 2
 364 668 351 663 351 648 c 0
 351 642 354 633 360 619 c 2
 429 468 l 1
 552 590 l 2
 568 605 576 621 576 636 c 0
 576 658 556 668 516 668 c 2
 500 668 l 1
 507 722 l 1
 811 722 l 1
 804 668 l 1
 732 663 710 651 633 577 c 2
 453 404 l 1
EndSplineSet
KernsSLIF: 121 -75 0 0 117 -9 0 0 111 -12 0 0 45 -35 0 0 101 -2 0 0 97 -14 0 0 81 -35 0 0 286 -37 0 0 79 -37 0 0 67 -35 0 0
EndChar
StartChar: Y
Encoding: 89 89 58
Width: 704
Flags: W
HStem: 0 54<74 457> 668 54<21 48 22 381 484 528>
DStem: 123 611 303 610 240 307 394 379 553 589 616 567 394 379 416 307
Fore
394 379 m 1
 553 589 l 2
 564 603 570 619 570 632 c 0
 570 655 549 668 513 668 c 2
 477 668 l 1
 485 722 l 1
 777 722 l 1
 770 668 l 1
 707 666 675 644 616 567 c 2
 416 307 l 1
 373 144 l 2
 362 102 359 90 359 81 c 0
 359 59 373 54 439 54 c 2
 464 54 l 1
 457 0 l 1
 68 0 l 1
 75 54 l 1
 94 54 l 2
 136 54 160 58 170 68 c 0
 179 76 179 76 197 144 c 2
 240 307 l 1
 123 611 l 2
 106 656 87 668 38 668 c 2
 15 668 l 1
 22 722 l 1
 388 722 l 1
 381 668 l 1
 338 668 l 2
 304 668 294 663 294 644 c 0
 294 636 296 627 303 610 c 2
 394 379 l 1
EndSplineSet
KernsSLIF: 118 -68 0 0 117 -75 0 0 59 -80 0 0 46 -80 0 0 112 -70 0 0 249 -97 0 0 111 -93 0 0 105 -18 0 0 45 -78 0 0 172 -80 0 0 171 -80 0 0 103 -92 0 0 101 -88 0 0 44 -67 0 0 58 -82 0 0 241 -83 0 0 97 -95 0 0 84 20 0 0 83 -8 0 0 290 -38 0 0 233 -36 0 0 288 -38 0 0 286 -38 0 0 289 -38 0 0 287 -38 0 0 79 -38 0 0 71 -37 0 0 67 -33 0 0 261 -49 0 0 262 -49 0 0 258 -49 0 0 256 -49 0 0 259 -49 0 0 257 -49 0 0 225 -33 0 0 65 -49 0 0
EndChar
StartChar: Z
Encoding: 90 90 59
Width: 704
Flags: W
HStem: 0 54<197 582> 668 54<134 486>
DStem: 486 668 707 668 -21 54 197 54
Fore
715 722 m 1
 707 668 l 1
 197 54 l 1
 288 54 l 2
 432 54 522 117 601 273 c 1
 652 260 l 1
 582 0 l 1
 -29 0 l 1
 -21 54 l 1
 486 668 l 1
 407 668 l 2
 278 668 196 612 117 468 c 1
 68 478 l 1
 134 722 l 1
 715 722 l 1
EndSplineSet
KernsSLIF: 121 2 0 0 118 -16 0 0
EndChar
StartChar: bracketleft
Encoding: 91 91 60
Width: 407
Flags: W
HStem: -108 44<103 210> 678 44<191 420>
DStem: 191 722 302 678 -31 -108 103 -64
Fore
432 722 m 1
 420 678 l 1
 302 678 l 1
 103 -64 l 1
 221 -64 l 1
 210 -108 l 1
 -31 -108 l 1
 191 722 l 1
 432 722 l 1
EndSplineSet
EndChar
StartChar: backslash
Encoding: 92 92 61
Width: 606
Flags: W
HStem: 0 21G<449 545> 702 20G<81 177>
DStem: 81 722 177 722 449 0 545 0
Fore
81 722 m 1
 177 722 l 1
 545 0 l 1
 449 0 l 1
 81 722 l 1
EndSplineSet
EndChar
StartChar: bracketright
Encoding: 93 93 62
Width: 407
Flags: W
HStem: -108 44<-38 192> 678 44<172 280>
DStem: 280 678 414 722 81 -64 192 -108
Fore
-49 -108 m 1
 -37 -64 l 1
 81 -64 l 1
 280 678 l 1
 162 678 l 1
 173 722 l 1
 414 722 l 1
 192 -108 l 1
 -49 -108 l 1
EndSplineSet
EndChar
StartChar: asciicircum
Encoding: 94 94 63
Width: 606
Flags: W
HStem: 702 20G<261 346>
DStem: 261 722 304 568 52 318 171 318 304 568 346 722 435 318 554 318
Fore
554 318 m 1
 435 318 l 1
 304 568 l 1
 171 318 l 1
 52 318 l 1
 261 722 l 1
 346 722 l 1
 554 318 l 1
EndSplineSet
EndChar
StartChar: underscore
Encoding: 95 95 64
Width: 500
Flags: W
HStem: -129 54<0 500>
Fore
0 -75 m 1
 500 -75 l 1
 500 -129 l 1
 0 -129 l 1
 0 -75 l 1
EndSplineSet
EndChar
StartChar: quoteleft
Encoding: 96 8216 65
Width: 259
Flags: W
Fore
249 737 m 1
 270 696 l 1
 180 655 136 610 136 559 c 1
 146 561 152 562 160 562 c 0
 209 562 238 533 238 483 c 0
 238 429 199 391 143 391 c 0
 82 391 39 438 39 507 c 0
 39 604 113 685 249 737 c 1
EndSplineSet
KernsSLIF: 89 31 1 0 87 21 1 0 86 22 1 0 84 20 1 0 262 -72 1 0 256 -72 1 0 257 -72 1 0 225 -42 1 0 65 -72 1 0
EndChar
StartChar: a
Encoding: 97 97 66
Width: 667
Flags: W
HStem: -14 70<188 239> 424 55<301 333>
VStem: 15 163<135 167> 351 138<73 86>
Fore
440 464 m 1
 597 464 l 1
 499 132 l 1
 489 93 489 93 489 86 c 0
 489 78 496 70 503 70 c 0
 520 70 570 124 607 182 c 1
 646 157 l 1
 629 128 607 97 580 66 c 0
 531 11 486 -15 436 -15 c 0
 396 -15 363 8 354 41 c 0
 351 49 351 51 351 73 c 1
 303 11 257 -14 188 -14 c 0
 87 -14 15 61 15 167 c 0
 15 329 153 479 301 479 c 0
 360 479 402 458 426 416 c 1
 440 464 l 1
333 424 m 0
 292 424 258 393 227 328 c 0
 198 268 178 188 178 135 c 0
 178 87 202 56 239 56 c 0
 278 56 314 89 343 153 c 0
 373 217 395 301 395 351 c 0
 395 394 370 424 333 424 c 0
EndSplineSet
KernsSLIF: 121 -18 0 0 118 -16 0 0 39 -15 0 0 106 -36 0 0
EndChar
StartChar: b
Encoding: 98 98 67
Width: 611
Flags: W
HStem: -15 43<226 239> 408 71<330 389>
VStem: 28 143<104 145> 394 163<307 333>
DStem: 147 578 351 736 50 252 260 427
Fore
351 736 m 1
 260 427 l 1
 305 465 341 479 389 479 c 0
 484 479 557 405 557 307 c 0
 557 223 515 133 446 69 c 0
 386 13 314 -15 232 -15 c 0
 109 -15 28 48 28 145 c 0
 28 177 29 180 50 252 c 1
 147 578 l 2
 160 622 163 634 163 644 c 0
 163 669 151 675 101 675 c 2
 77 675 l 1
 84 722 l 1
 351 736 l 1
330 408 m 0
 291 408 259 378 228 316 c 0
 197 253 171 154 171 104 c 0
 171 59 198 28 237 28 c 0
 276 28 314 67 347 141 c 0
 371 195 394 290 394 333 c 0
 394 376 367 408 330 408 c 0
EndSplineSet
KernsSLIF: 121 -3 0 0 119 -13 0 0 118 -28 0 0
EndChar
StartChar: c
Encoding: 99 99 68
Width: 537
Flags: W
HStem: -14 61<210 250> 431 47<316 340>
VStem: 3 165<141 171> 323 164<329 350>
Fore
406 147 m 1
 442 116 l 1
 370 26 298 -14 210 -14 c 0
 84 -14 3 58 3 171 c 0
 3 338 146 478 316 478 c 0
 420 478 487 427 487 350 c 0
 487 294 453 257 401 257 c 0
 355 257 323 287 323 329 c 0
 323 357 333 373 361 390 c 0
 370 396 373 399 373 406 c 0
 373 421 355 431 331 431 c 0
 289 431 251 401 220 344 c 0
 190 289 168 203 168 141 c 0
 168 86 202 47 250 47 c 0
 298 47 347 78 406 147 c 1
EndSplineSet
KernsSLIF: 107 -23 0 0 104 -26 0 0
EndChar
StartChar: d
Encoding: 100 100 69
Width: 667
Flags: W
HStem: -14 70<174 224> 423 55<286 319>
VStem: 0 164<135 167>
DStem: 459 578 663 736 411 416 484 132
Fore
663 736 m 1
 484 132 l 1
 474 93 474 93 474 85 c 0
 474 77 481 69 488 69 c 0
 506 69 554 121 593 182 c 1
 632 157 l 1
 615 128 593 97 566 66 c 0
 517 11 472 -15 422 -15 c 0
 369 -15 337 15 336 64 c 1
 336 71 l 1
 281 8 239 -14 174 -14 c 0
 72 -14 0 61 0 167 c 0
 0 328 138 478 286 478 c 0
 345 478 386 458 411 416 c 1
 459 578 l 2
 470 615 474 634 474 644 c 0
 474 669 462 675 413 675 c 2
 381 675 l 1
 388 722 l 1
 663 736 l 1
319 423 m 0
 278 423 243 392 213 328 c 0
 184 267 164 188 164 135 c 0
 164 86 187 56 224 56 c 0
 263 56 299 89 329 153 c 0
 358 216 380 300 380 351 c 0
 380 393 355 423 319 423 c 0
EndSplineSet
EndChar
StartChar: e
Encoding: 101 101 70
Width: 519
Flags: W
HStem: -14 59<202 243> 432 47<301 319>
VStem: -2 159<137 171> 356 122<358 385>
Fore
395 126 m 1
 430 91 l 1
 367 20 293 -14 202 -14 c 0
 70 -14 -2 51 -2 171 c 0
 -2 335 146 479 314 479 c 0
 408 479 478 427 478 358 c 0
 478 288 422 238 308 205 c 0
 261 191 218 184 159 181 c 1
 157 155 157 149 157 137 c 0
 157 80 190 45 243 45 c 0
 295 45 335 66 395 126 c 1
168 228 m 1
 201 233 218 237 238 244 c 0
 306 270 356 330 356 385 c 0
 356 414 339 432 312 432 c 0
 250 432 191 350 168 228 c 1
EndSplineSet
KernsSLIF: 121 -2 0 0 119 -12 0 0 118 -27 0 0 116 -15 0 0 39 8 0 0
EndChar
StartChar: f
Encoding: 102 102 71
Width: 389
Flags: W
HStem: 403 61<50 133 295 406> 690 47<399 417>
VStem: 404 146<613 629>
DStem: 133 403 281 403 69 133 234 189
Fore
422 464 m 1
 406 403 l 1
 281 403 l 1
 234 189 l 1
 204 48 168 -83 133 -179 c 1
 -48 -205 l 1
 -20 -161 21 -42 69 133 c 1
 133 403 l 1
 34 403 l 1
 51 464 l 1
 149 464 l 1
 176 561 201 614 241 658 c 0
 291 712 346 737 413 737 c 0
 493 737 550 691 550 627 c 0
 550 581 517 548 472 548 c 0
 433 548 404 576 404 614 c 0
 404 634 408 645 428 671 c 0
 431 674 433 678 433 680 c 0
 433 686 423 690 411 690 c 0
 363 690 341 651 305 505 c 2
 295 464 l 1
 422 464 l 1
EndSplineSet
KernsSLIF: 116 17 0 0 115 -6 0 0 39 58 0 0 249 -33 0 0 250 -14 0 0 351 16 0 0 352 -27 0 0 111 -27 0 0 108 50 0 0 106 -3 0 0 105 21 0 0 102 15 0 0 335 -25 0 0 101 -25 0 0 328 -25 0 0 241 -6 0 0 323 -25 0 0 97 -25 0 0
EndChar
StartChar: g
Encoding: 103 103 72
Width: 611
Flags: W
HStem: -202 47<157 207> 157 48<287 317> 408 125<530 549> 432 47<296 319>
VStem: -66 123<-93 -83> 69 153<277 304> 379 148<314 361>
Fore
399 463 m 1xde
 448 512 487 533 530 533 c 0
 573 533 602 506 602 466 c 0
 602 432 580 408 549 408 c 0xee
 525 408 510 421 499 451 c 0
 494 463 489 468 482 468 c 0
 471 468 461 461 448 444 c 1
 499 414 527 368 527 314 c 0
 527 223 439 157 317 157 c 0
 298 157 235 162 200 167 c 0
 185 169 173 170 166 170 c 0
 139 170 119 156 119 139 c 0
 119 118 134 108 168 105 c 0
 258 96 322 88 346 83 c 0
 419 66 450 30 450 -35 c 0
 450 -143 352 -202 172 -202 c 0
 21 -202 -66 -161 -66 -91 c 0
 -66 -41 -26 -10 60 6 c 1
 15 30 0 51 0 86 c 0
 0 139 42 181 120 206 c 1
 84 236 69 264 69 304 c 0
 69 407 162 479 296 479 c 0
 335 479 363 475 399 463 c 1xde
317 432 m 0xde
 289 432 267 417 251 389 c 0
 233 357 222 315 222 277 c 0
 222 232 247 205 287 205 c 0
 315 205 338 221 353 253 c 0
 369 285 379 328 379 361 c 0
 379 402 353 432 317 432 c 0xde
141 -27 m 0
 85 -27 57 -46 57 -85 c 0
 57 -131 98 -155 177 -155 c 0
 276 -155 329 -131 329 -85 c 0
 329 -61 316 -48 285 -40 c 0
 261 -34 184 -27 141 -27 c 0
EndSplineSet
KernsSLIF: 114 1 0 0 351 -34 0 0 352 -34 0 0 108 -41 0 0 335 -30 0 0 101 -30 0 0 328 -37 0 0 241 -26 0 0 322 -37 0 0 97 -37 0 0
EndChar
StartChar: h
Encoding: 104 104 73
Width: 685
Flags: W
HStem: 0 21G<0 157> 459 20G<421 486.5>
VStem: 324 154<76 84> 415 151<364 376>
DStem: 171 578 376 736 0 0 266 366
Fore
376 736 m 1xd0
 266 366 l 1
 329 444 388 479 454 479 c 0
 519 479 566 436 566 376 c 0xd0
 566 343 557 307 536 248 c 1
 489 120 l 2
 478 90 478 90 478 82 c 0
 478 74 485 66 492 66 c 0
 510 66 535 91 589 166 c 0
 592 169 595 173 598 177 c 1
 637 152 l 1
 559 32 499 -15 426 -15 c 0
 364 -15 324 20 324 76 c 0xe0
 324 102 327 114 345 163 c 2
 406 332 l 2
 412 348 415 361 415 368 c 0
 415 382 400 395 386 395 c 0
 362 395 329 370 292 325 c 0
 249 273 223 221 195 127 c 2
 157 0 l 1
 0 0 l 1
 171 578 l 1
 184 619 187 634 187 644 c 0
 187 669 175 675 125 675 c 2
 101 675 l 1
 108 722 l 1
 376 736 l 1xd0
EndSplineSet
KernsSLIF: 121 -33 0 0 39 -33 0 0
EndChar
StartChar: i
Encoding: 105 105 74
Width: 389
Flags: W
HStem: -15 79<136 203> 567 170<235 253>
DStem: 98 319 302 478 47 149 197 122
Fore
302 478 m 1
 197 122 l 2
 188 91 187 88 187 80 c 0
 187 71 194 64 203 64 c 0
 223 64 256 101 304 177 c 1
 343 149 l 1
 275 35 212 -15 136 -15 c 0
 76 -15 32 23 32 75 c 0
 32 94 34 105 47 149 c 2
 98 319 l 2
 109 356 113 375 113 386 c 0
 113 411 101 417 52 417 c 2
 28 417 l 1
 35 464 l 1
 302 478 l 1
248 737 m 0
 295 737 333 699 333 652 c 0
 333 605 295 567 247 567 c 0
 202 567 163 606 163 652 c 0
 163 699 201 737 248 737 c 0
EndSplineSet
KernsSLIF: 106 -46 0 0 84 -40 0 0
EndChar
StartChar: j
Encoding: 106 106 75
Width: 370
Flags: W
HStem: -202 49<-43 -24> -27 20G<-115 -69> 567 170<282.797 298>
VStem: -170 152<-92 -80> 211 170<652 663>
DStem: 155 319 359 478 60 0 240 75
Fore
296 737 m 0
 343 737 381 699 381 652 c 0
 381 605 343 567 295 567 c 0
 250 567 211 606 211 652 c 0
 211 699 249 737 296 737 c 0
359 478 m 1
 240 75 l 1
 209 -28 193 -65 154 -112 c 0
 107 -171 45 -202 -24 -202 c 0
 -108 -202 -170 -155 -170 -90 c 0
 -170 -41 -138 -7 -92 -7 c 0
 -46 -7 -18 -36 -18 -82 c 0
 -18 -108 -23 -117 -46 -131 c 0
 -50 -133 -52 -137 -52 -141 c 0
 -52 -148 -45 -153 -35 -153 c 0
 4 -153 25 -119 60 0 c 1
 155 319 l 2
 166 357 170 375 170 386 c 0
 170 411 158 417 109 417 c 2
 77 417 l 1
 84 464 l 1
 359 478 l 1
EndSplineSet
EndChar
StartChar: k
Encoding: 107 107 76
Width: 648
Flags: W
HStem: -15 80<403 466> 197 60<284 286> 396 83<397 463>
VStem: 444 137<351 381>
DStem: 166 578 371 736 -5 0 262 371
Fore
371 736 m 1
 262 371 l 1
 340 452 391 479 463 479 c 0
 533 479 581 439 581 381 c 0
 581 334 549 291 489 258 c 0
 461 242 432 230 387 215 c 1
 433 189 443 167 450 84 c 0
 451 72 457 65 466 65 c 0
 489 65 517 100 541 158 c 1
 584 135 l 1
 533 30 479 -15 403 -15 c 0
 338 -15 301 24 301 93 c 0
 301 111 303 129 306 148 c 0
 309 162 310 173 310 181 c 0
 310 186 309 191 305 198 c 1
 297 197 289 197 284 197 c 0
 262 197 248 208 248 226 c 0
 248 244 263 257 284 257 c 0
 297 257 305 255 330 244 c 1
 406 269 444 305 444 351 c 0
 444 378 425 396 397 396 c 0
 361 396 326 372 280 316 c 0
 240 268 218 220 189 123 c 2
 152 0 l 1
 -5 0 l 1
 166 578 l 2
 178 619 182 634 182 644 c 0
 182 669 170 675 120 675 c 2
 97 675 l 1
 103 722 l 1
 371 736 l 1
EndSplineSet
KernsSLIF: 362 -18 0 0 117 -16 0 0 115 -12 0 0 46 8 0 0 351 -15 0 0 352 -15 0 0 111 -13 0 0 45 8 0 0 103 -15 0 0 335 -9 0 0 101 -7 0 0 44 20 0 0 328 -15 0 0 241 -4 0 0 322 -15 0 0 323 -15 0 0 97 -15 0 0
EndChar
StartChar: l
Encoding: 108 108 77
Width: 389
Flags: W
HStem: -15 78<128 193>
DStem: 166 578 370 736 49 182 188 122
Fore
370 736 m 1
 188 122 l 1
 183 106 l 2
 180 96 178 85 178 80 c 0
 178 70 185 63 193 63 c 0
 215 63 260 110 300 176 c 1
 339 149 l 1
 318 111 288 74 253 41 c 0
 212 2 174 -15 128 -15 c 0
 67 -15 26 22 26 76 c 0
 26 99 31 125 49 182 c 1
 166 578 l 2
 177 615 181 633 181 644 c 0
 181 669 169 675 120 675 c 2
 96 675 l 1
 103 722 l 1
 370 736 l 1
EndSplineSet
KernsSLIF: 121 -34 0 0 118 -30 0 0
EndChar
StartChar: m
Encoding: 109 109 78
Width: 944
Flags: W
HStem: 0 21G<9 165 298 456> 459 20G<416.5 466.5 707.5 769.5>
VStem: 399 161<368 377> 612 147<71 83> 699 147<366 377>
DStem: 686 311 824 269 637 171 764 102
Fore
289 478 m 1xe8
 260 356 l 1
 323 438 385 479 448 479 c 0
 485 479 520 462 542 435 c 1
 555 417 560 403 560 374 c 2
 560 368 l 1
 624 445 678 479 737 479 c 0
 802 479 846 437 846 375 c 0xe8
 846 345 839 311 824 269 c 2
 764 102 l 2
 761 93 759 84 759 79 c 0
 759 72 767 66 776 66 c 0
 795 66 810 82 876 170 c 2
 882 177 l 1
 920 150 l 1
 847 37 781 -14 709 -14 c 0
 655 -14 612 24 612 71 c 0xf0
 612 93 619 119 637 171 c 2
 686 311 l 2
 694 334 699 358 699 370 c 0
 699 385 689 394 673 394 c 0
 651 394 619 372 589 336 c 0
 551 290 524 230 489 111 c 2
 456 0 l 1
 298 0 l 1
 368 235 l 2
 388 303 399 350 399 370 c 0
 399 384 391 395 380 395 c 0
 360 395 330 370 296 326 c 0
 256 272 230 219 206 139 c 2
 165 0 l 1
 9 0 l 1
 104 319 l 1
 114 354 119 375 119 386 c 0
 119 411 107 417 58 417 c 2
 34 417 l 1
 41 464 l 1
 289 478 l 1xe8
EndSplineSet
KernsSLIF: 121 -21 0 0 119 -2 0 0 118 -19 0 0 112 -12 0 0
EndChar
StartChar: n
Encoding: 110 110 79
Width: 685
Flags: W
HStem: 0 21G<3 160> 459 20G<421.5 491>
VStem: 329 154<76 84> 420 151<366 376>
Fore
285 478 m 1xd0
 253 346 l 1
 328 442 385 479 458 479 c 0
 524 479 571 436 571 376 c 0xd0
 571 343 563 309 540 248 c 1
 493 120 l 1
 483 90 483 90 483 82 c 0
 483 74 490 66 497 66 c 0
 515 66 541 92 594 166 c 1
 603 177 l 1
 642 152 l 1
 565 33 504 -15 431 -15 c 0
 369 -15 329 20 329 76 c 0xe0
 329 102 333 117 349 163 c 1
 411 332 l 2
 417 348 420 361 420 368 c 0
 420 381 405 394 390 394 c 0
 366 394 333 370 295 325 c 0
 251 272 226 220 198 127 c 2
 160 0 l 1
 3 0 l 1
 98 319 l 2
 109 357 113 375 113 386 c 0
 113 411 101 417 52 417 c 2
 28 417 l 1
 35 464 l 1
 285 478 l 1xd0
EndSplineSet
KernsSLIF: 121 -31 0 0 119 -13 0 0 118 -29 0 0 39 -30 0 0 112 -21 0 0 84 -59 0 0
EndChar
StartChar: o
Encoding: 111 111 80
Width: 574
Flags: W
HStem: -14 43<217 235> 432 47<313 331>
VStem: 10 155<108 187> 385 155<285 354>
Fore
324 479 m 0
 385 479 445 459 484 425 c 0
 520 394 540 345 540 285 c 0
 540 116 401 -14 220 -14 c 0
 157 -14 105 4 70 37 c 0
 33 71 10 129 10 187 c 0
 10 345 154 479 324 479 c 0
320 432 m 0
 277 432 240 394 210 322 c 0
 184 259 165 168 165 108 c 0
 165 58 189 29 229 29 c 0
 272 29 308 64 335 134 c 0
 363 204 385 302 385 354 c 0
 385 401 359 432 320 432 c 0
EndSplineSet
KernsSLIF: 121 7 0 0 120 1 0 0 119 -1 0 0 118 -16 0 0 116 -5 0 0 84 -53 0 0
EndChar
StartChar: p
Encoding: 112 112 81
Width: 648
Flags: W
HStem: -202 47<-112 192> -15 58<275 303> 409 70<366 415>
VStem: 430 160<298 336>
Fore
273 478 m 1
 257 399 l 1
 306 455 353 479 415 479 c 0
 522 479 590 408 590 298 c 0
 590 134 453 -15 303 -15 c 0
 243 -15 205 5 177 50 c 1
 143 -65 l 2
 127 -120 127 -120 127 -129 c 0
 127 -147 144 -155 184 -155 c 2
 199 -155 l 1
 192 -202 l 1
 -118 -202 l 1
 -111 -155 l 1
 -107 -155 l 2
 -80 -155 -52 -149 -44 -141 c 0
 -35 -133 -35 -133 -15 -65 c 2
 100 322 l 2
 110 355 115 375 115 386 c 0
 115 411 103 417 53 417 c 2
 29 417 l 1
 36 464 l 1
 273 478 l 1
366 409 m 0
 329 409 299 386 270 335 c 0
 239 280 206 169 206 117 c 0
 206 76 237 43 275 43 c 0
 313 43 344 68 372 122 c 0
 405 187 430 279 430 336 c 0
 430 380 404 409 366 409 c 0
EndSplineSet
KernsSLIF: 121 -4 0 0 116 -15 0 0
EndChar
StartChar: q
Encoding: 113 113 82
Width: 630
Flags: W
HStem: -202 47<169 476> -15 70<165 223> 423 55<287 315>
VStem: 0 163<129 170>
Fore
587 478 m 1
 426 -65 l 1
 416 -100 411 -120 411 -129 c 0
 411 -147 428 -155 467 -155 c 2
 482 -155 l 1
 476 -202 l 1
 163 -202 l 1
 170 -155 l 1
 174 -155 l 2
 204 -155 231 -149 240 -141 c 0
 248 -133 248 -133 269 -65 c 1
 302 46 l 1
 256 3 215 -15 165 -15 c 0
 66 -15 0 60 0 170 c 0
 0 331 138 478 287 478 c 0
 352 478 398 453 425 402 c 1
 513 478 l 1
 587 478 l 1
315 423 m 0
 290 423 263 407 243 381 c 0
 200 323 163 207 163 129 c 0
 163 86 188 55 223 55 c 0
 257 55 290 83 318 137 c 0
 349 198 376 300 376 356 c 0
 376 394 350 423 315 423 c 0
EndSplineSet
KernsSLIF: 117 -22 0 0 99 -19 0 0
EndChar
StartChar: r
Encoding: 114 114 83
Width: 519
Flags: W
HStem: 0 21G<3 160> 308 171<431 449>
VStem: 379 145<376 393>
Fore
285 478 m 1
 254 351 l 1
 316 444 365 479 431 479 c 0
 487 479 524 444 524 391 c 0
 524 344 492 308 449 308 c 0
 417 308 389 328 382 357 c 0
 380 365 379 373 379 388 c 0
 379 397 376 401 369 401 c 0
 361 401 344 390 329 375 c 0
 280 328 230 235 202 139 c 1
 160 0 l 1
 3 0 l 1
 98 319 l 2
 109 356 113 375 113 386 c 0
 113 411 101 417 52 417 c 2
 28 417 l 1
 35 464 l 1
 285 478 l 1
EndSplineSet
KernsSLIF: 122 7 0 0 121 14 0 0 120 4 0 0 119 10 0 0 118 5 0 0 117 4 0 0 116 10 0 0 59 -10 0 0 115 -6 0 0 114 8 0 0 39 32 0 0 113 -8 0 0 46 -105 0 0 112 8 0 0 249 -10 0 0 353 -8 0 0 250 2 0 0 351 -8 0 0 354 -8 0 0 352 -8 0 0 111 -8 0 0 110 7 0 0 109 5 0 0 108 -26 0 0 107 -26 0 0 106 -15 0 0 105 7 0 0 45 -2 0 0 104 -28 0 0 103 -15 0 0 102 6 0 0 336 -5 0 0 337 -5 0 0 335 -5 0 0 101 -5 0 0 100 -4 0 0 44 -92 0 0 58 -10 0 0 332 -4 0 0 99 -8 0 0 328 -10 0 0 324 -10 0 0 241 -9 0 0 322 -10 0 0 325 -10 0 0 323 -10 0 0 97 -10 0 0
EndChar
StartChar: s
Encoding: 115 115 84
Width: 481
Flags: W
HStem: -15 43<161 182> 432 47<254 275>
VStem: 2 141<96 114> 56 122<320 371> 270 129<97 149> 299 138<356 371>
Fore
258 479 m 0xd8
 363 479 437 432 437 367 c 0
 437 326 409 297 368 297 c 0
 328 297 299 323 299 358 c 0
 299 374 301 379 317 399 c 0
 321 404 323 408 323 411 c 0
 323 422 296 432 267 432 c 0
 215 432 178 407 178 371 c 0xd4
 178 345 197 327 256 302 c 0
 297 284 310 278 331 264 c 0
 377 234 399 198 399 149 c 0
 399 51 311 -15 180 -15 c 0
 74 -15 2 32 2 101 c 0
 2 144 30 173 72 173 c 0
 112 173 143 146 143 109 c 0xe8
 143 90 138 81 117 63 c 0
 114 60 112 57 112 54 c 0
 112 39 139 28 175 28 c 0
 229 28 270 57 270 97 c 0
 270 124 254 141 212 158 c 0
 155 182 149 185 128 198 c 0
 78 228 56 266 56 320 c 0
 56 418 134 479 258 479 c 0xd8
EndSplineSet
KernsSLIF: 116 -11 0 0 39 5 0 0
EndChar
StartChar: t
Encoding: 116 116 85
Width: 407
Flags: W
HStem: -14 80<119 196> 403 61<44 114 290 386>
DStem: 114 403 272 403 49 183 202 167 188 650 345 650 132 464 290 464
Fore
300 183 m 1
 337 156 l 1
 299 98 289 86 269 64 c 0
 220 12 170 -14 119 -14 c 0
 66 -14 24 23 24 69 c 0
 24 88 29 116 38 146 c 0
 41 155 45 168 49 183 c 1
 114 403 l 1
 27 403 l 1
 45 464 l 1
 132 464 l 1
 188 650 l 1
 345 650 l 1
 290 464 l 1
 404 464 l 1
 386 403 l 1
 272 403 l 1
 202 167 l 2
 190 126 181 91 181 84 c 0
 181 75 188 66 196 66 c 0
 216 66 262 117 300 183 c 1
EndSplineSet
KernsSLIF: 59 -16 0 0 39 -2 0 0 351 -19 0 0 352 -19 0 0 111 -19 0 0 104 -26 0 0 335 -12 0 0 101 -12 0 0 58 -17 0 0 328 -21 0 0 241 -10 0 0 322 -21 0 0 323 -21 0 0 97 -21 0 0 83 -9 0 0
EndChar
StartChar: u
Encoding: 117 117 86
Width: 685
Flags: W
HStem: -14 84<148 213> 444 20G<439 597>
VStem: 38 150<95 99> 330 158<71 97>
DStem: 439 464 597 464 391 299 504 152
Fore
597 464 m 1
 504 152 l 1
 488 96 488 96 488 85 c 0
 488 78 495 71 502 71 c 0
 519 71 559 114 601 180 c 1
 639 152 l 1
 561 32 503 -14 427 -14 c 0
 363 -14 330 15 330 71 c 0
 330 79 330 87 331 97 c 1
 266 19 212 -14 148 -14 c 0
 82 -14 38 30 38 95 c 0
 38 122 42 142 59 198 c 1
 94 319 l 1
 106 358 110 376 110 386 c 0
 110 411 98 417 49 417 c 2
 39 417 l 1
 46 464 l 1
 299 478 l 1
 209 174 l 1
 206 166 202 150 197 133 c 0
 195 126 193 118 190 109 c 0
 189 103 188 98 188 95 c 0
 188 82 200 70 213 70 c 0
 239 70 287 109 323 159 c 0
 353 200 375 247 391 299 c 1
 439 464 l 1
 597 464 l 1
EndSplineSet
KernsSLIF: 39 -21 0 0
EndChar
StartChar: v
Encoding: 118 118 87
Width: 556
Flags: W
HStem: -15 71<213 265> 459 20G<401 445.5>
VStem: 58 151<112 132> 353 147<390 414>
Fore
306 478 m 1
 233 230 l 1
 210 139 209 134 209 113 c 0
 209 84 236 56 265 56 c 0
 298 56 333 82 365 131 c 0
 404 190 426 250 426 294 c 0
 426 316 423 319 382 357 c 0
 361 377 353 392 353 414 c 0
 353 453 380 479 422 479 c 0
 469 479 500 443 500 390 c 0
 500 317 471 216 428 139 c 0
 372 39 297 -15 213 -15 c 0
 172 -15 131 0 101 26 c 0
 73 51 58 88 58 132 c 0
 58 159 62 185 70 211 c 2
 102 319 l 2
 116 366 118 376 118 386 c 0
 118 411 106 417 56 417 c 2
 32 417 l 1
 39 464 l 1
 306 478 l 1
EndSplineSet
KernsSLIF: 59 -16 0 0 115 -18 0 0 46 -22 0 0 249 -21 0 0 353 -19 0 0 351 -19 0 0 352 -19 0 0 111 -17 0 0 108 -25 0 0 45 11 0 0 103 -26 0 0 336 -14 0 0 337 -14 0 0 335 -14 0 0 101 -12 0 0 44 -9 0 0 58 -18 0 0 99 -15 0 0 327 -20 0 0 328 -20 0 0 324 -20 0 0 241 -18 0 0 322 -20 0 0 325 -20 0 0 323 -20 0 0 97 -20 0 0
EndChar
StartChar: w
Encoding: 119 119 88
Width: 833
Flags: W
HStem: -15 71<495 548> 444 20G<430 587>
VStem: 22 157<95 115> 641 147<390 414>
DStem: 430 464 587 464 377 286 518 230
Fore
587 464 m 1
 518 230 l 1
 495 139 494 133 494 113 c 0
 494 84 520 56 548 56 c 0
 581 56 622 86 653 131 c 0
 691 188 714 250 714 296 c 0
 714 315 711 320 670 357 c 0
 649 376 641 392 641 414 c 0
 641 453 668 479 710 479 c 0
 757 479 788 443 788 390 c 0
 788 317 758 214 716 139 c 0
 659 39 581 -15 495 -15 c 0
 415 -15 362 27 345 103 c 1
 282 20 223 -15 143 -15 c 0
 65 -15 22 25 22 95 c 0
 22 123 26 142 42 198 c 1
 78 319 l 2
 90 360 94 376 94 386 c 0
 94 411 82 417 32 417 c 2
 22 417 l 1
 29 464 l 1
 283 478 l 1
 193 177 l 1
 184 144 179 122 179 108 c 0
 179 88 196 71 215 71 c 0
 251 71 288 98 318 145 c 0
 335 172 364 240 377 286 c 1
 430 464 l 1
 587 464 l 1
EndSplineSet
KernsSLIF: 59 -11 0 0 115 -13 0 0 46 -17 0 0 249 -16 0 0 353 -14 0 0 351 -14 0 0 352 -14 0 0 111 -12 0 0 108 -20 0 0 45 16 0 0 103 -21 0 0 336 -9 0 0 337 -9 0 0 335 -9 0 0 101 -7 0 0 44 -4 0 0 58 -13 0 0 99 -9 0 0 327 -14 0 0 328 -14 0 0 324 -14 0 0 241 -12 0 0 322 -14 0 0 325 -14 0 0 323 -14 0 0 97 -14 0 0
EndChar
StartChar: x
Encoding: 120 120 89
Width: 574
Flags: W
HStem: -15 144<17 32> 338 141<490 506>
VStem: 447 124<393 407>
Fore
212 134 m 1
 175 82 l 2
 133 22 79 -15 32 -15 c 0
 -15 -15 -49 16 -49 61 c 0
 -49 101 -22 129 18 129 c 0
 48 129 69 111 77 79 c 0
 79 71 82 68 86 68 c 0
 101 68 121 88 157 139 c 2
 198 196 l 1
 184 261 l 2
 162 363 155 379 136 379 c 0
 118 379 106 366 66 296 c 0
 65 295 63 291 60 286 c 1
 20 306 l 1
 36 339 52 366 75 395 c 0
 119 453 160 479 207 479 c 0
 266 479 297 441 317 344 c 1
 339 373 l 2
 400 454 435 479 490 479 c 0
 538 479 571 450 571 407 c 0
 571 367 543 338 506 338 c 0
 469 338 447 358 447 393 c 0
 446 401 444 405 438 405 c 0
 420 405 391 372 330 282 c 1
 346 200 l 1
 365 108 373 88 394 88 c 0
 416 88 443 124 469 189 c 1
 508 169 l 1
 495 133 476 97 451 62 c 0
 415 10 376 -15 329 -15 c 0
 298 -15 271 -2 252 22 c 0
 235 42 227 64 215 120 c 2
 212 134 l 1
EndSplineSet
KernsSLIF: 113 -3 0 0 111 -9 0 0 335 -5 0 0 101 -4 0 0 99 -7 0 0 97 -11 0 0
EndChar
StartChar: y
Encoding: 121 121 90
Width: 519
Flags: W
HStem: -202 164<5 40> 365 114<90 155>
VStem: -66 140<-113 -100> 393 99<301 417>
DStem: 119 320 270 333 219 -18 326 143
Fore
270 333 m 1
 326 143 l 1
 376 227 393 267 393 301 c 0
 393 320 390 328 374 354 c 0
 359 376 353 394 353 413 c 0
 353 451 383 479 424 479 c 0
 466 479 492 455 492 417 c 0
 492 360 433 226 345 83 c 0
 285 -16 231 -89 181 -139 c 0
 140 -181 94 -202 40 -202 c 0
 -24 -202 -66 -166 -66 -111 c 0
 -66 -68 -37 -38 5 -38 c 0
 45 -38 74 -65 74 -102 c 0
 74 -110 73 -117 68 -130 c 0
 67 -132 67 -135 67 -136 c 0
 67 -141 73 -146 80 -146 c 0
 107 -146 155 -107 190 -58 c 2
 219 -18 l 1
 119 320 l 2
 108 357 103 365 90 365 c 0
 72 365 64 348 36 258 c 1
 -7 271 l 1
 26 412 78 479 155 479 c 0
 189 479 218 461 233 432 c 0
 244 411 261 365 270 333 c 1
EndSplineSet
KernsSLIF: 59 -11 0 0 115 -13 0 0 46 -22 0 0 249 -16 0 0 353 -14 0 0 351 -14 0 0 352 -14 0 0 111 -14 0 0 108 -20 0 0 45 12 0 0 103 -20 0 0 336 -9 0 0 337 -9 0 0 335 -9 0 0 101 -9 0 0 44 -9 0 0 58 -13 0 0 99 -12 0 0 327 -15 0 0 328 -15 0 0 324 -15 0 0 241 -12 0 0 322 -15 0 0 325 -15 0 0 323 -15 0 0 97 -15 0 0
EndChar
StartChar: z
Encoding: 122 122 91
Width: 519
Flags: W
HStem: -15 151<200 259> 328 151<214 268>
VStem: -19 70<19 28>
Fore
416 169 m 1
 460 153 l 1
 426 45 354 -15 259 -15 c 0
 206 -15 178 -5 86 49 c 0
 75 55 70 57 65 57 c 0
 56 57 51 48 51 28 c 0
 50 2 36 -15 13 -15 c 0
 -5 -15 -19 0 -19 19 c 0
 -19 44 2 79 47 131 c 0
 104 195 148 230 224 271 c 0
 272 296 304 312 307 314 c 0
 313 318 331 329 350 342 c 1
 320 332 298 328 268 328 c 0
 245 328 235 329 178 338 c 0
 148 343 134 345 122 345 c 0
 90 345 81 337 58 286 c 1
 16 301 l 1
 57 419 124 479 214 479 c 0
 254 479 288 468 348 436 c 0
 372 423 385 418 392 418 c 0
 402 418 407 426 413 450 c 0
 419 470 427 479 441 479 c 0
 457 479 471 464 471 446 c 0
 471 410 428 347 358 280 c 0
 311 236 292 224 174 163 c 0
 146 149 135 142 110 126 c 1
 156 134 176 136 200 136 c 0
 231 136 260 131 295 121 c 0
 342 107 342 107 350 107 c 0
 376 107 396 126 416 169 c 1
EndSplineSet
EndChar
StartChar: braceleft
Encoding: 123 123 92
Width: 407
Flags: W
HStem: 702 20G<371 402>
VStem: 52 95<-29 -11> 103 102<225 240>
DStem: 202 572 294 553 172 462 261 432
Fore
52 285 m 1xc0
 64 329 l 1
 129 345 152 372 172 462 c 1
 202 572 l 2
 232 683 276 722 371 722 c 2
 402 722 l 1
 390 679 l 1
 341 674 319 645 294 553 c 2
 261 432 l 1
 238 355 206 322 140 307 c 1
 184 294 205 273 205 240 c 0xa0
 205 229 201 206 192 175 c 1
 164 71 l 2
 150 19 147 2 147 -16 c 0
 147 -51 158 -63 194 -65 c 1
 182 -108 l 1
 140 -108 l 2
 85 -108 52 -76 52 -21 c 0xc0
 52 4 56 29 69 74 c 1
 90 154 l 1
 102 198 103 205 103 225 c 0xa0
 103 258 89 275 52 285 c 1xc0
EndSplineSet
EndChar
StartChar: bar
Encoding: 124 124 93
Width: 606
Flags: W
HStem: 0 21G<262 343> 702 20G<262 343>
VStem: 262 81<0 722>
Fore
343 722 m 1
 343 0 l 1
 262 0 l 1
 262 722 l 1
 343 722 l 1
EndSplineSet
EndChar
StartChar: braceright
Encoding: 125 125 94
Width: 407
Flags: W
HStem: 702 20G<190 232>
VStem: 167 102<374 389> 225 95<627 645>
DStem: 111 182 200 152 78 61 170 42
Fore
322 329 m 1xc0
 310 285 l 1
 244 271 220 242 200 152 c 1
 170 42 l 2
 140 -69 96 -108 1 -108 c 2
 -30 -108 l 1
 -18 -65 l 1
 31 -60 53 -31 78 61 c 2
 111 182 l 1
 134 259 166 292 232 307 c 1
 188 320 167 341 167 374 c 0xc0
 167 386 171 406 180 439 c 2
 208 543 l 2
 222 595 225 612 225 630 c 0
 225 665 214 677 178 679 c 1
 190 722 l 1
 232 722 l 2
 287 722 320 690 320 635 c 0xa0
 320 610 316 586 304 540 c 1
 282 460 l 2
 270 416 269 410 269 389 c 0
 269 355 284 338 322 329 c 1xc0
EndSplineSet
EndChar
StartChar: asciitilde
Encoding: 126 126 95
Width: 606
Flags: W
Fore
135 169 m 1
 51 222 l 1
 91 297 140 335 195 335 c 0
 218 335 240 329 285 312 c 2
 338 293 l 2
 381 276 389 274 404 274 c 0
 427 274 443 286 471 326 c 1
 555 273 l 1
 514 198 466 160 411 160 c 0
 388 160 366 165 321 183 c 1
 268 202 l 2
 225 219 217 221 202 221 c 0
 179 221 163 209 135 169 c 1
EndSplineSet
EndChar
StartChar: exclamdown
Encoding: 161 161 96
Width: 333
Flags: W
HStem: 375 174<195 205>
Fore
145 331 m 1
 197 318 l 1
 167 183 150 66 146 -33 c 0
 142 -123 139 -143 122 -168 c 0
 107 -190 84 -203 59 -203 c 0
 1 -203 -39 -170 -39 -123 c 0
 -39 -91 -39 -91 16 20 c 0
 76 140 100 199 145 331 c 1
203 549 m 0
 250 549 289 509 289 462 c 0
 289 414 250 375 202 375 c 0
 154 375 115 414 115 462 c 0
 115 510 154 549 203 549 c 0
EndSplineSet
EndChar
StartChar: cent
Encoding: 162 162 97
Width: 574
Flags: W
HStem: 437 47<343 361>
VStem: 30 164<145 174> 403 111<351 411>
DStem: 190 -12 243 -15 134 -137 188 -137 357 360 374 278 225 66 271 48 457 586 511 586 408 476 454 457
Fore
243 -15 m 1
 188 -137 l 1
 134 -137 l 1
 190 -12 l 1
 103 -5 30 80 30 174 c 0
 30 340 175 484 343 484 c 0
 365 484 386 481 408 476 c 1
 457 586 l 1
 511 586 l 1
 454 457 l 1
 492 434 514 395 514 351 c 0
 514 297 478 259 427 259 c 0
 406 259 389 265 374 278 c 1
 271 48 l 1
 278 48 l 2
 308 48 341 62 373 88 c 0
 388 100 400 112 434 147 c 1
 470 116 l 1
 464 109 l 2
 384 18 335 -10 243 -15 c 1
225 66 m 1
 357 360 l 1
 367 381 374 389 397 403 c 0
 400 405 403 409 403 411 c 0
 403 424 381 437 359 437 c 0
 315 437 275 404 244 341 c 0
 216 285 194 198 194 145 c 0
 194 112 205 86 225 66 c 1
EndSplineSet
EndChar
StartChar: sterling
Encoding: 163 163 98
Width: 574
Flags: W
HStem: -15 43<67 89> -15 130<349 371> 118 50<69 89> 319 57<25 148 297 426> 469 21G<457 504.5> 655 50<396 417>
VStem: -18 47<64 84> 139 157<376 450> 403 163<538 564>
Fore
435 376 m 1xbf80
 426 319 l 1
 298 319 l 1
 295 253 282 205 249 136 c 1
 283 123 329 115 369 115 c 0
 428 115 473 145 499 200 c 1
 542 180 l 1
 530 139 517 109 497 76 c 0
 458 12 414 -15 351 -15 c 0x7f80
 295 -15 244 6 197 49 c 1
 160 4 125 -15 77 -15 c 0
 20 -15 -18 20 -18 72 c 0
 -18 128 27 168 89 168 c 0
 110 168 132 164 165 156 c 1
 167 174 168 188 168 197 c 0
 168 232 160 280 148 319 c 1
 18 319 l 1
 26 376 l 1
 140 376 l 1
 139 421 l 1
 139 589 243 705 396 705 c 0
 497 705 566 648 566 564 c 0
 566 509 530 469 479 469 c 0
 435 469 403 498 403 538 c 0
 403 567 414 584 450 609 c 0
 458 615 461 620 461 627 c 0
 461 644 442 655 415 655 c 0
 341 655 296 574 296 444 c 0
 296 432 296 420 298 376 c 1
 435 376 l 1xbf80
146 84 m 1
 140 89 l 2
 116 107 90 118 69 118 c 0
 46 118 29 99 29 74 c 0
 29 46 47 28 75 28 c 0xbf80
 108 28 126 42 146 84 c 1
EndSplineSet
EndChar
StartChar: fraction
Encoding: 164 8260 99
Width: 167
Flags: W
HStem: 0 21G<-166 -87> 702 20G<254 333>
DStem: 254 722 333 722 -166 0 -87 0
Fore
254 722 m 1
 333 722 l 1
 -87 0 l 1
 -166 0 l 1
 254 722 l 1
EndSplineSet
EndChar
StartChar: yen
Encoding: 165 165 100
Width: 574
Flags: W
HStem: 0 54<43 374> 0 244<31 374> 198 46<30 166 330 469> 329 46<59 201 385 510> 652 54<30 45.5398 30 314 403 424>
DStem: 107 595 256 594 185 375 328 384 453 573 509 552 328 384 385 375
Fore
385 375 m 1x58
 516 375 l 1
 510 329 l 1
 353 329 l 1
 330 244 l 1x58
 475 244 l 1
 469 198 l 1
 318 198 l 1
 304 145 l 1
 294 109 290 90 290 81 c 0
 290 59 304 54 369 54 c 2
 382 54 l 1
 374 0 l 1xb8
 36 0 l 1x58
 44 54 l 1
 56 54 l 2
 90 54 116 59 125 68 c 0
 134 76 134 76 152 145 c 2
 166 198 l 1
 25 198 l 1xb8
 31 244 l 1
 179 244 l 1
 201 329 l 1
 54 329 l 1
 60 375 l 1
 185 375 l 1
 107 595 l 1
 90 641 72 652 23 652 c 1
 30 706 l 1
 321 706 l 1
 313 652 l 1
 291 652 l 2
 257 652 247 647 247 628 c 0
 247 620 247 620 256 594 c 2
 328 384 l 1
 453 573 l 2
 464 590 470 606 470 617 c 0
 470 638 448 652 413 652 c 2
 397 652 l 1
 404 706 l 1
 635 706 l 1
 628 652 l 1
 578 635 557 617 509 552 c 1
 385 375 l 1x58
EndSplineSet
EndChar
StartChar: florin
Encoding: 166 402 101
Width: 574
Flags: W
HStem: -204 45<74 95> 389 57<122 232 381 510> 573 164<485 516> 691 46<467 485>
VStem: -27 134<-119 -90> 454 134<630 649>
Fore
518 446 m 1xdc
 510 389 l 1
 371 389 l 1
 355 298 l 1
 353 284 320 116 314 83 c 0
 276 -100 189 -204 74 -204 c 0
 14 -204 -27 -169 -27 -119 c 0
 -27 -74 6 -40 50 -40 c 0
 83 -40 107 -61 107 -90 c 0
 107 -107 99 -129 89 -140 c 0
 82 -147 81 -148 81 -150 c 0
 81 -155 87 -159 95 -159 c 0
 120 -159 140 -136 150 -96 c 0
 158 -66 160 -59 171 13 c 1
 198 179 l 1
 232 389 l 1
 114 389 l 1
 123 446 l 1
 244 446 l 1
 265 539 283 588 315 636 c 0
 357 699 422 737 485 737 c 0
 546 737 588 701 588 649 c 0
 588 604 558 573 516 573 c 0xec
 479 573 454 596 454 630 c 0
 454 647 457 653 474 673 c 0
 476 676 478 682 478 685 c 0
 478 688 473 691 467 691 c 0
 453 691 437 681 428 666 c 0
 413 641 407 618 395 537 c 1
 381 446 l 1
 518 446 l 1xdc
EndSplineSet
EndChar
StartChar: section
Encoding: 167 167 102
Width: 500
Flags: W
HStem: -144 40<113 145> 140 40<270 291> 417 38<164 179> 698 39<323 350>
VStem: -40 141<-28 -13> 8 107<297 359> 143 108<576 628> 213 109<-36 21> 348 107<235 297> 361 144<607 618>
Fore
269 141 m 1xf080
 307 98 322 63 322 21 c 0
 322 -72 239 -144 131 -144 c 0
 35 -144 -40 -92 -40 -26 c 0
 -40 20 -12 51 30 51 c 0
 70 51 101 22 101 -15 c 0
 101 -37 93 -52 73 -67 c 0
 65 -73 62 -76 62 -79 c 0
 62 -91 96 -104 129 -104 c 0
 180 -104 213 -77 213 -36 c 0xf980
 213 6 194 34 79 157 c 0
 26 214 8 250 8 297 c 0
 8 382 81 455 166 455 c 0
 172 455 182 454 193 453 c 1
 155 506 143 535 143 576 c 0
 143 670 222 737 333 737 c 0
 431 737 505 685 505 616 c 0
 505 576 473 545 431 545 c 0
 391 545 361 572 361 610 c 0
 361 630 371 649 392 666 c 0
 398 671 400 673 400 676 c 0
 400 687 369 698 339 698 c 0
 290 698 251 667 251 628 c 0
 251 591 272 559 361 463 c 0xf640
 434 384 455 347 455 297 c 0
 455 215 376 140 289 140 c 0
 283 140 278 140 269 141 c 1xf080
177 417 m 0
 141 417 115 392 115 359 c 0xf480
 115 330 127 309 170 260 c 0
 228 196 251 180 283 180 c 0
 319 180 348 204 348 235 c 0
 348 262 331 292 287 342 c 0
 239 396 207 417 177 417 c 0
EndSplineSet
EndChar
StartChar: currency
Encoding: 168 164 103
Width: 574
Flags: W
HStem: 102 121<279 297> 478 121<279 296>
VStem: 45 121<336 353> 420 121<336 353>
Fore
160 141 m 1
 118 98 l 1
 41 176 l 1
 83 218 l 1
 59 255 45 304 45 350 c 0
 45 396 60 449 83 483 c 1
 40 526 l 1
 117 603 l 1
 160 560 l 1
 198 585 246 599 294 599 c 0
 341 599 381 587 426 561 c 1
 468 603 l 1
 546 526 l 1
 503 483 l 1
 527 445 541 397 541 350 c 0
 541 304 528 258 503 218 c 1
 546 175 l 1
 469 97 l 1
 426 140 l 1
 381 114 340 102 293 102 c 0
 246 102 205 114 160 141 c 1
293 478 m 0
 223 478 166 421 166 351 c 0
 166 281 223 223 292 223 c 0
 363 223 420 280 420 351 c 0
 420 421 363 478 293 478 c 0
EndSplineSet
EndChar
StartChar: quotesingle
Encoding: 169 39 104
Width: 287
Flags: W
HStem: 714 20G<173.5 216>
Fore
146 397 m 1
 100 410 l 1
 121 646 l 2
 126 703 152 734 195 734 c 0
 237 734 269 703 269 663 c 0
 269 647 264 629 253 609 c 1
 146 397 l 1
EndSplineSet
EndChar
StartChar: quotedblleft
Encoding: 170 8220 105
Width: 481
Flags: W
Fore
501 737 m 1
 522 696 l 1
 432 655 388 610 388 559 c 1
 398 561 404 562 412 562 c 0
 461 562 490 533 490 483 c 0
 490 429 451 391 395 391 c 0
 334 391 291 438 291 507 c 0
 291 604 365 685 501 737 c 1
262 737 m 1
 283 696 l 1
 193 655 149 610 149 559 c 1
 159 561 165 562 173 562 c 0
 222 562 251 533 251 483 c 0
 251 429 212 391 156 391 c 0
 95 391 52 438 52 507 c 0
 52 604 126 685 262 737 c 1
EndSplineSet
KernsSLIF: 89 45 1 0 87 35 1 0 86 36 1 0 84 34 1 0 262 -57 1 0 256 -57 1 0 257 -57 1 0 225 -27 1 0 65 -57 1 0
EndChar
StartChar: guillemotleft
Encoding: 171 171 106
Width: 481
Flags: W
Fore
80 247 m 1
 155 100 l 2
 157 97 158 93 158 90 c 0
 158 84 153 78 146 78 c 0
 141 78 136 80 130 86 c 2
 -30 237 l 2
 -33 240 -35 243 -35 245 c 0
 -35 248 -33 250 -28 253 c 2
 194 413 l 2
 200 417 205 419 210 419 c 0
 217 419 224 412 224 405 c 0
 224 401 221 396 215 389 c 2
 80 247 l 1
283 247 m 1
 358 100 l 2
 360 97 361 93 361 90 c 0
 361 84 356 78 349 78 c 0
 344 78 339 80 333 86 c 2
 173 237 l 2
 170 240 168 243 168 245 c 0
 168 248 170 250 175 253 c 2
 397 413 l 2
 403 417 408 419 413 419 c 0
 420 419 427 412 427 405 c 0
 427 401 424 396 418 389 c 2
 283 247 l 1
EndSplineSet
EndChar
StartChar: guilsinglleft
Encoding: 172 8249 107
Width: 278
Flags: W
Fore
80 247 m 1
 155 100 l 2
 157 97 158 93 158 90 c 0
 158 84 153 78 146 78 c 0
 141 78 136 80 130 86 c 2
 -30 237 l 2
 -33 240 -35 243 -35 245 c 0
 -35 248 -33 250 -28 253 c 2
 194 413 l 2
 200 417 205 419 210 419 c 0
 217 419 224 412 224 405 c 0
 224 401 221 396 215 389 c 2
 80 247 l 1
EndSplineSet
EndChar
StartChar: guilsinglright
Encoding: 173 8250 108
Width: 278
Flags: W
Fore
138 250 m 1
 63 397 l 2
 61 400 60 404 60 407 c 0
 60 413 65 419 72 419 c 0
 77 419 82 417 88 411 c 2
 248 260 l 2
 251 257 253 254 253 252 c 0
 253 249 251 247 246 244 c 2
 24 84 l 2
 18 80 13 78 8 78 c 0
 1 78 -6 85 -6 92 c 0
 -6 96 -3 101 3 108 c 2
 138 250 l 1
EndSplineSet
KernsSLIF: 89 -68 1 0 87 -43 1 0 86 -64 1 0 84 -77 1 0 262 -23 1 0 256 -23 1 0 257 -23 1 0 225 -1 1 0 65 -23 1 0
EndChar
StartChar: fi
Encoding: 174 64257 109
Width: 685
Flags: W
HStem: -15 79<439 506> 403 61<28 111 273 385> 690 47<437 458>
VStem: 335 155<74 84> 456 157<613 627>
DStem: 111 403 259 403 47 132 212 188 397 306 605 478 350 149 500 122
Fore
259 403 m 1xf0
 212 188 l 1
 182 47 147 -82 111 -179 c 1
 -70 -205 l 1
 -42 -161 0 -40 47 132 c 1
 111 403 l 1
 12 403 l 1
 29 464 l 1
 127 464 l 1
 193 660 282 737 442 737 c 0
 545 737 613 693 613 625 c 0
 613 580 579 546 533 546 c 0
 487 546 456 574 456 615 c 0xe8
 456 631 460 643 472 661 c 0
 479 670 480 672 480 676 c 0
 480 685 468 690 447 690 c 0
 413 690 382 676 353 645 c 0
 318 609 295 557 273 464 c 1
 338 464 l 2
 405 464 473 468 605 478 c 1
 500 122 l 2
 491 92 490 88 490 80 c 0
 490 71 497 64 506 64 c 0
 526 64 559 100 607 177 c 1
 646 149 l 1
 578 35 515 -15 439 -15 c 0
 379 -15 335 23 335 75 c 0
 335 95 337 105 350 149 c 2
 397 306 l 1
 407 341 413 367 413 376 c 0
 413 391 400 403 383 403 c 2
 259 403 l 1xf0
EndSplineSet
Ligature: 0 0 'liga' f i
EndChar
StartChar: fl
Encoding: 175 64258 110
Width: 685
Flags: W
HStem: -15 79<439 505> 403 61<28 111 273 384> 689 47<425 452>
VStem: 337 152<74 84>
DStem: 111 403 259 403 47 132 212 188 475 574 681 736 359 183 499 122
Fore
681 736 m 1
 499 122 l 2
 497 116 495 110 494 106 c 0
 491 96 489 86 489 80 c 0
 489 71 496 64 505 64 c 0
 520 64 538 79 565 113 c 0
 586 139 600 158 611 177 c 1
 650 149 l 1
 629 111 599 74 564 41 c 0
 523 2 486 -15 439 -15 c 0
 378 -15 337 22 337 76 c 0
 337 99 342 125 359 183 c 2
 475 574 l 1
 457 589 450 601 450 621 c 0
 450 639 455 650 473 670 c 0
 476 673 477 675 477 677 c 0
 477 684 462 689 440 689 c 0
 388 689 348 657 316 592 c 0
 300 560 289 529 273 464 c 1
 400 464 l 1
 384 403 l 1
 259 403 l 1
 212 188 l 1
 182 47 147 -82 111 -179 c 1
 -70 -205 l 1
 -42 -161 0 -40 47 132 c 1
 111 403 l 1
 12 403 l 1
 29 464 l 1
 127 464 l 1
 166 578 188 619 231 658 c 0
 284 706 360 736 431 736 c 0
 461 736 489 731 518 721 c 1
 681 736 l 1
EndSplineSet
Ligature: 0 0 'liga' f l
EndChar
StartChar: endash
Encoding: 177 8211 111
Width: 500
Flags: W
HStem: 193 105<9 490>
Fore
10 298 m 1
 518 298 l 1
 490 193 l 1
 -18 193 l 1
 10 298 l 1
EndSplineSet
EndChar
StartChar: dagger
Encoding: 178 8224 112
Width: 500
Flags: W
HStem: 435 112<106 115 454 456> 717 20G<313.5 349>
VStem: 269 123<671 682>
Fore
127 -144 m 1
 96 -144 l 1
 127 -38 161 144 161 208 c 0
 161 228 159 258 154 295 c 1
 212 364 240 413 259 479 c 1
 215 473 199 468 143 443 c 0
 131 438 118 435 106 435 c 0
 77 435 50 461 50 491 c 0
 50 521 77 547 106 547 c 0
 124 547 124 547 175 525 c 0
 205 512 237 504 265 504 c 1
 275 541 280 571 280 587 c 0
 280 593 277 614 272 644 c 0
 270 655 269 665 269 674 c 0
 269 712 295 737 332 737 c 0
 366 737 392 712 392 680 c 0
 392 658 387 649 355 614 c 0
 329 585 313 554 298 504 c 1
 336 506 359 513 417 539 c 0
 429 544 442 547 454 547 c 0
 483 547 510 521 510 491 c 0
 510 461 483 435 454 435 c 0
 436 435 436 435 385 457 c 0
 356 469 315 479 291 480 c 1
 282 444 280 426 280 400 c 0
 280 368 284 343 298 295 c 1
 235 208 173 49 127 -144 c 1
EndSplineSet
EndChar
StartChar: daggerdbl
Encoding: 179 8225 113
Width: 500
Flags: W
HStem: 43 112<8 17 356 365> 435 112<110 112 458 465> 717 20G<320.5 356>
VStem: 67 122<-92 -82> 276 123<668 686>
Fore
200 111 m 1
 244 116 263 122 319 147 c 0
 331 152 344 155 356 155 c 0
 385 155 412 129 412 99 c 0
 412 69 385 43 356 43 c 0
 338 43 338 43 287 65 c 0
 257 78 222 86 193 87 c 1
 183 44 179 20 179 3 c 0
 179 -4 182 -25 186 -54 c 0
 188 -65 189 -75 189 -84 c 0
 189 -122 164 -147 126 -147 c 0
 93 -147 67 -122 67 -90 c 0
 67 -68 72 -59 103 -24 c 0
 130 5 146 35 161 86 c 1
 123 83 102 77 45 51 c 0
 33 46 20 43 8 43 c 0
 -21 43 -48 69 -48 99 c 0
 -48 128 -21 155 8 155 c 0
 26 155 26 155 77 133 c 0
 104 121 145 111 168 111 c 1
 176 145 179 164 179 190 c 0
 179 222 175 246 161 295 c 1
 220 365 246 412 266 479 c 1
 221 474 203 468 147 443 c 0
 135 438 122 435 110 435 c 0
 81 435 54 461 54 491 c 0
 54 521 81 547 110 547 c 0
 128 547 128 547 179 525 c 0
 209 512 239 505 272 503 c 1
 283 545 287 570 287 587 c 0
 287 593 284 614 279 644 c 0
 277 655 276 665 276 674 c 0
 276 712 302 737 339 737 c 0
 373 737 399 712 399 680 c 0
 399 658 394 649 363 614 c 0
 336 585 320 554 305 504 c 1
 343 507 365 513 421 539 c 0
 433 544 446 547 458 547 c 0
 487 547 514 521 514 491 c 0
 514 461 487 435 458 435 c 0
 440 435 440 435 389 457 c 0
 362 469 321 479 298 479 c 1
 290 445 287 424 287 400 c 0
 287 368 291 344 305 295 c 1
 246 225 219 178 200 111 c 1
EndSplineSet
EndChar
StartChar: periodcentered
Encoding: 180 183 114
Width: 287
Flags: W
Fore
128 345 m 0
 176 345 215 306 215 258 c 0
 215 210 176 171 127 171 c 0
 80 171 41 211 41 258 c 0
 41 306 80 345 128 345 c 0
EndSplineSet
EndChar
StartChar: paragraph
Encoding: 182 182 115
Width: 650
Flags: W
HStem: -144 54<81 432> 668 54<372 646>
DStem: 252 325 445 668 164 -3 242 -89 483 668 561 581 280 -89 404 -3
Fore
252 325 m 1
 243 325 l 2
 140 325 77 378 77 465 c 0
 77 533 117 616 171 662 c 0
 221 704 282 722 372 722 c 2
 661 722 l 1
 646 668 l 1
 643 668 l 2
 622 668 595 661 587 654 c 0
 578 646 578 646 561 581 c 1
 404 -3 l 2
 399 -21 394 -42 394 -42 c 1
 391 -52 389 -61 389 -68 c 0
 389 -82 405 -90 440 -90 c 2
 446 -90 l 1
 432 -144 l 1
 67 -144 l 1
 82 -90 l 1
 88 -90 l 2
 115 -90 137 -81 145 -68 c 0
 149 -60 149 -60 164 -3 c 2
 252 325 l 1
483 668 m 1
 445 668 l 1
 242 -89 l 1
 280 -89 l 1
 483 668 l 1
EndSplineSet
EndChar
StartChar: bullet
Encoding: 183 8226 116
Width: 606
Flags: W
Fore
277 517 m 0
 370 517 446 442 446 349 c 0
 446 255 371 180 275 180 c 0
 185 180 109 257 109 349 c 0
 109 441 185 517 277 517 c 0
EndSplineSet
EndChar
StartChar: quotesinglbase
Encoding: 184 8218 117
Width: 259
Flags: W
HStem: -11 21G<42.5 71>
Fore
-22 -187 m 1
 -43 -146 l 1
 47 -105 91 -60 91 -9 c 1
 81 -11 75 -11 67 -11 c 0
 18 -11 -11 18 -11 68 c 0
 -11 122 28 159 84 159 c 0
 145 159 188 112 188 43 c 0
 188 -54 114 -134 -22 -187 c 1
EndSplineSet
EndChar
StartChar: quotedblbase
Encoding: 185 8222 118
Width: 481
Flags: W
HStem: -11 21G<15.5 44 256.5 285>
Fore
-49 -187 m 1
 -70 -146 l 1
 20 -105 64 -60 64 -9 c 1
 54 -11 48 -11 40 -11 c 0
 -9 -11 -38 18 -38 68 c 0
 -38 122 1 159 57 159 c 0
 118 159 161 112 161 43 c 0
 161 -54 87 -134 -49 -187 c 1
192 -187 m 1
 171 -146 l 1
 261 -105 305 -60 305 -9 c 1
 295 -11 289 -11 281 -11 c 0
 232 -11 203 18 203 68 c 0
 203 122 242 159 298 159 c 0
 359 159 402 112 402 43 c 0
 402 -54 328 -134 192 -187 c 1
EndSplineSet
KernsSLIF: 89 -28 1 0 87 -41 1 0 86 -66 1 0 84 -29 1 0 225 61 1 0 65 46 1 0
EndChar
StartChar: quotedblright
Encoding: 186 8221 119
Width: 481
Flags: W
HStem: 717 20G<160 218.5 401 459.5>
Fore
82 391 m 1
 61 432 l 1
 151 473 195 518 195 569 c 1
 185 567 179 566 171 566 c 0
 122 566 93 595 93 645 c 0
 93 699 132 737 188 737 c 0
 249 737 292 690 292 621 c 0
 292 524 218 444 82 391 c 1
323 391 m 1
 302 432 l 1
 392 473 436 518 436 569 c 1
 426 567 420 566 412 566 c 0
 363 566 334 595 334 645 c 0
 334 699 373 737 429 737 c 0
 490 737 533 690 533 621 c 0
 533 524 459 444 323 391 c 1
EndSplineSet
KernsSLIF: 89 56 1 0 87 46 1 0 86 48 1 0 84 41 1 0 262 -53 1 0 256 -53 1 0 257 -53 1 0 225 -22 1 0 65 -53 1 0
EndChar
StartChar: guillemotright
Encoding: 187 187 120
Width: 481
Flags: W
Fore
138 250 m 1
 63 397 l 2
 61 400 60 404 60 407 c 0
 60 413 65 419 72 419 c 0
 77 419 82 417 88 411 c 2
 248 260 l 2
 251 257 253 254 253 252 c 0
 253 249 251 247 246 244 c 2
 24 84 l 2
 18 80 13 78 8 78 c 0
 1 78 -6 85 -6 92 c 0
 -6 96 -3 101 3 108 c 2
 138 250 l 1
341 250 m 1
 266 397 l 2
 264 400 263 404 263 407 c 0
 263 413 268 419 275 419 c 0
 280 419 285 417 291 411 c 2
 451 260 l 2
 454 257 456 254 456 252 c 0
 456 249 454 247 449 244 c 2
 227 84 l 2
 221 80 216 78 211 78 c 0
 204 78 197 85 197 92 c 0
 197 96 200 101 206 108 c 2
 341 250 l 1
EndSplineSet
KernsSLIF: 89 -68 1 0 87 -43 1 0 86 -64 1 0 84 -77 1 0 262 -23 1 0 256 -23 1 0 257 -23 1 0 225 -1 1 0 65 -23 1 0
EndChar
StartChar: ellipsis
Encoding: 188 8230 121
Width: 1000
Flags: W
HStem: -15 21G<82.5 130.5 415.5 463.5 748.5 796.5>
VStem: 20 174<72 82> 353 174<72 82> 686 174<72 82>
CounterMasks: 1 70
Fore
107 159 m 0
 155 159 194 120 194 72 c 0
 194 24 155 -15 106 -15 c 0
 59 -15 20 25 20 72 c 0
 20 120 59 159 107 159 c 0
440 159 m 0
 488 159 527 120 527 72 c 0
 527 24 488 -15 439 -15 c 0
 392 -15 353 25 353 72 c 0
 353 120 392 159 440 159 c 0
773 159 m 0
 821 159 860 120 860 72 c 0
 860 24 821 -15 772 -15 c 0
 725 -15 686 25 686 72 c 0
 686 120 725 159 773 159 c 0
EndSplineSet
Ligature: 0 1 'liga' period period period
EndChar
StartChar: perthousand
Encoding: 189 8240 122
Width: 1167
Flags: W
HStem: 14 49<544 561 931 948> 315 49<159 181> 356 51<642 665 1029 1052> 597 43<425 443> 702 20G<584 631>
VStem: 26 104<418 443> 339 40<567 584> 409 102<115 140> 722 42<271 289> 796 102<115 140> 1109 42<271 289>
DStem: 517 615 631 722 165 0 217 0
Fore
631 722 m 1xdfe0
 217 0 l 1
 165 0 l 1
 517 615 l 1
 472 601 453 597 430 597 c 0
 415 597 403 599 376 606 c 1
 378 589 379 579 379 569 c 0
 379 515 349 441 308 392 c 0
 264 340 216 315 159 315 c 0
 82 315 26 369 26 443 c 0
 26 512 72 603 132 655 c 0
 172 689 218 708 262 708 c 0
 302 708 329 694 355 660 c 1
 383 646 405 640 433 640 c 0
 492 640 543 668 584 722 c 1
 631 722 l 1xdfe0
275 658 m 1
 238 645 226 633 190 569 c 0
 146 492 130 452 130 418 c 0
 130 386 151 364 181 364 c 0
 257 364 339 477 339 582 c 0
 339 595 337 606 333 619 c 1
 307 629 293 638 275 658 c 1
642 407 m 0xbfe0
 713 407 764 355 764 283 c 0
 764 224 734 147 688 89 c 0
 650 42 597 14 544 14 c 0
 466 14 409 67 409 140 c 0
 409 197 436 266 478 319 c 0
 524 376 582 407 642 407 c 0xbfe0
665 356 m 0
 637 356 612 334 583 287 c 0
 531 201 511 153 511 115 c 0
 511 86 533 63 561 63 c 0
 638 63 722 177 722 280 c 0
 722 322 697 356 665 356 c 0
1029 407 m 0
 1100 407 1151 355 1151 283 c 0
 1151 223 1121 147 1075 89 c 0
 1037 41 984 14 931 14 c 0
 853 14 796 67 796 140 c 0
 796 197 823 266 865 319 c 0
 912 376 969 407 1029 407 c 0
1052 356 m 0
 1024 356 999 334 970 287 c 0
 918 201 898 153 898 115 c 0
 898 86 920 63 948 63 c 0
 1025 63 1109 176 1109 280 c 0
 1109 322 1084 356 1052 356 c 0
EndSplineSet
EndChar
StartChar: questiondown
Encoding: 191 191 123
Width: 481
Flags: W
HStem: -203 48<166 189> 272 50<202 220> 375 174<272 290>
VStem: 1 106<-91 -48> 248 93<202 230> 306 48<-14 -1>
Fore
128 199 m 1xf8
 79 211 l 1
 100 279 154 322 220 322 c 0
 288 322 341 269 341 202 c 0xf8
 341 124 288 52 189 -4 c 0
 124 -41 107 -60 107 -91 c 0
 107 -129 136 -155 180 -155 c 0
 246 -155 306 -84 306 -5 c 0
 306 -1 305 4 304 14 c 1
 352 14 l 1
 353 2 354 -8 354 -12 c 0xf4
 354 -52 338 -98 311 -134 c 0
 279 -178 227 -203 168 -203 c 0
 72 -203 1 -138 1 -48 c 0
 1 35 49 93 172 158 c 0
 235 191 248 204 248 230 c 0
 248 256 230 272 202 272 c 0
 169 272 146 249 128 199 c 1xf8
282 549 m 0
 329 549 368 509 368 462 c 0
 368 414 329 375 281 375 c 0
 233 375 194 414 194 462 c 0
 194 510 233 549 282 549 c 0
EndSplineSet
EndChar
StartChar: grave
Encoding: 193 96 124
Width: 333
Flags: W
Fore
294 535 m 1
 245 535 l 1
 104 624 l 2
 84 636 74 652 74 670 c 0
 74 698 96 719 127 719 c 0
 154 719 168 710 192 677 c 2
 294 535 l 1
EndSplineSet
EndChar
StartChar: acute
Encoding: 194 180 125
Width: 333
Flags: W
Fore
123 535 m 1
 247 674 l 2
 281 711 293 719 317 719 c 0
 347 719 371 696 371 667 c 0
 371 648 361 633 343 623 c 2
 177 535 l 1
 123 535 l 1
EndSplineSet
Ligature: 0 1 'liga' space acutecomb
EndChar
StartChar: circumflex
Encoding: 195 710 126
Width: 333
Flags: W
HStem: 689 20G<180 281>
Fore
23 535 m 1
 180 709 l 1
 281 709 l 1
 365 535 l 1
 306 535 l 1
 216 621 l 1
 90 535 l 1
 23 535 l 1
EndSplineSet
EndChar
StartChar: tilde
Encoding: 196 732 127
Width: 333
Flags: W
Fore
357 683 m 1
 404 683 l 1
 401 616 343 557 280 557 c 0
 259 557 234 563 195 578 c 0
 150 596 138 599 123 599 c 0
 101 599 86 584 81 557 c 1
 34 557 l 1
 39 630 92 683 158 683 c 0
 178 683 204 677 237 664 c 0
 285 645 292 643 307 643 c 0
 332 643 349 657 357 683 c 1
EndSplineSet
Ligature: 0 1 'liga' space tildecomb
EndChar
StartChar: macron
Encoding: 197 175 128
Width: 333
Flags: W
HStem: 566 76<52 366>
Fore
53 642 m 1
 387 642 l 1
 366 566 l 1
 32 566 l 1
 53 642 l 1
EndSplineSet
Ligature: 0 1 'liga' space uni0304
EndChar
StartChar: breve
Encoding: 198 728 129
Width: 333
Flags: W
HStem: 681 20G<69 115 343 390>
Fore
69 701 m 1
 115 701 l 1
 120 641 150 616 216 616 c 0
 278 616 330 650 343 701 c 1
 390 701 l 1
 387 665 373 629 348 599 c 0
 313 557 267 537 206 537 c 0
 118 537 67 586 67 672 c 0
 67 678 68 688 69 701 c 1
EndSplineSet
Ligature: 0 1 'liga' space uni0306
EndChar
StartChar: dotaccent
Encoding: 199 729 130
Width: 333
Flags: W
Fore
217 685 m 0
 256 685 288 653 288 614 c 0
 288 574 256 542 216 542 c 0
 177 542 145 575 145 614 c 0
 145 653 177 685 217 685 c 0
EndSplineSet
Ligature: 0 1 'liga' space uni0307
EndChar
StartChar: dieresis
Encoding: 200 168 131
Width: 333
Flags: W
VStem: 34 143<614 623> 249 143<614 623>
Fore
106 685 m 0
 145 685 177 653 177 614 c 0
 177 574 145 542 105 542 c 0
 66 542 34 575 34 614 c 0
 34 653 66 685 106 685 c 0
321 685 m 0
 360 685 392 653 392 614 c 0
 392 574 360 542 320 542 c 0
 281 542 249 575 249 614 c 0
 249 653 281 685 321 685 c 0
EndSplineSet
Ligature: 0 1 'liga' space uni0308
EndChar
StartChar: ring
Encoding: 202 730 132
Width: 333
Flags: W
HStem: 530 54<321 330> 691 54<325 330>
VStem: 217 54<627.089 643> 378 54<638 643>
Fore
325 745 m 0
 384 745 432 697 432 638 c 0
 432 578 384 530 323 530 c 0
 266 530 217 579 217 638 c 0
 217 696 266 745 325 745 c 0
325 691 m 0
 295 691 271 667 271 637 c 0
 271 609 295 584 324 584 c 0
 354 584 378 608 378 638 c 0
 378 667 354 691 325 691 c 0
EndSplineSet
Ligature: 0 1 'liga' space uni030A
EndChar
StartChar: cedilla
Encoding: 203 184 133
Width: 333
Flags: W
HStem: -220 45<5 22> -102 44<14 71> -20 20G<38 83>
DStem: 38 0 83 0 -32 -89 38 -61
Fore
38 0 m 1
 83 0 l 1
 38 -61 l 1
 51 -59 62 -58 71 -58 c 0
 120 -58 157 -90 157 -133 c 0
 157 -185 102 -220 22 -220 c 0
 -21 -220 -60 -210 -87 -191 c 1
 -65 -156 l 1
 -33 -170 -14 -175 7 -175 c 0
 36 -175 56 -159 56 -137 c 0
 56 -117 38 -102 14 -102 c 0
 6 -102 0 -103 -15 -106 c 1
 -32 -89 l 1
 38 0 l 1
EndSplineSet
Ligature: 0 1 'liga' space uni0327
EndChar
StartChar: hungarumlaut
Encoding: 205 733 134
Width: 333
Flags: W
HStem: 689 20G<205 232 406 433>
Fore
23 542 m 1
 146 664 l 1
 186 705 193 709 217 709 c 0
 247 709 271 686 271 657 c 0
 271 639 259 620 243 613 c 2
 77 542 l 1
 23 542 l 1
224 542 m 1
 347 664 l 1
 387 705 394 709 418 709 c 0
 448 709 472 686 472 657 c 0
 472 639 460 620 444 613 c 2
 278 542 l 1
 224 542 l 1
EndSplineSet
Ligature: 0 1 'liga' space uni030B
EndChar
StartChar: ogonek
Encoding: 206 731 135
Width: 333
Flags: W
HStem: -20 20G<112 179>
Fore
112 0 m 1
 179 0 l 1
 156 -22 147 -39 147 -63 c 0
 147 -84 159 -99 177 -99 c 0
 192 -99 206 -92 227 -75 c 1
 245 -106 l 1
 215 -150 181 -173 145 -173 c 0
 100 -173 68 -138 68 -91 c 0
 68 -56 82 -27 112 0 c 1
EndSplineSet
Ligature: 0 1 'liga' space uni0328
EndChar
StartChar: caron
Encoding: 207 711 136
Width: 333
Flags: W
HStem: 691 20G<60 119 335 403>
Fore
403 711 m 1
 246 535 l 1
 144 535 l 1
 60 711 l 1
 119 711 l 1
 209 623 l 1
 335 711 l 1
 403 711 l 1
EndSplineSet
EndChar
StartChar: emdash
Encoding: 208 8212 137
Width: 1000
Flags: W
HStem: 193 105<9 990>
Fore
10 298 m 1
 1018 298 l 1
 990 193 l 1
 -18 193 l 1
 10 298 l 1
EndSplineSet
EndChar
StartChar: uniFFFD
Encoding: 209 65533 138
Width: 333
Flags: W
HStem: -20 20G<134 201>
Fore
201 0 m 1
 231 -27 245 -56 245 -91 c 0
 245 -138 213 -173 168 -173 c 0
 132 -173 98 -150 68 -106 c 1
 86 -75 l 1
 107 -92 121 -99 136 -99 c 0
 154 -99 166 -84 166 -63 c 0
 166 -39 157 -22 134 0 c 1
 201 0 l 1
EndSplineSet
Comment: "Reversed ogonek for Bashkir glyphs" 
Colour: ffffff
EndChar
StartChar: AE
Encoding: 225 198 138
Width: 889
Flags: W
HStem: 0 54<126 145 197 784> 271 54<205 339> 347 54<547 552> 477 21G<814 863> 668 54<214 256 215 436 215 688>
DStem: 291 572 421 658 -3 122 205 325 291 572 168 271 -3 122 77 126 442 657 608 620 353 325 550 401 442 657 759 516 353 325 669 181
Fore
903 722 m 1
 863 477 l 1
 814 477 l 1
 814 549 809 578 796 604 c 0
 775 646 733 668 676 668 c 2
 665 668 l 2
 630 668 619 658 608 620 c 1
 550 401 l 1
 559 401 l 2
 632 401 681 440 712 523 c 1
 759 516 l 1
 669 181 l 1
 622 188 l 1
 627 217 628 232 628 250 c 0
 628 292 617 316 592 332 c 0
 576 342 560 347 547 347 c 2
 535 347 l 1
 472 111 l 2
 469 99 467 88 467 79 c 0
 467 63 483 54 514 54 c 2
 526 54 l 2
 632 54 743 137 801 259 c 1
 850 248 l 1
 784 0 l 1
 190 0 l 1
 198 54 l 1
 202 54 l 2
 244 54 268 58 278 68 c 0
 286 76 286 76 305 144 c 1
 339 271 l 1
 168 271 l 1
 77 126 l 2
 69 113 65 102 65 92 c 0
 65 66 89 55 145 54 c 1
 138 0 l 1
 -81 0 l 1
 -74 54 l 1
 -46 60 -36 70 -3 122 c 1
 291 572 l 2
 305 593 311 609 311 624 c 0
 311 651 283 668 239 668 c 2
 208 668 l 1
 215 722 l 1
 903 722 l 1
353 325 m 1
 442 657 l 1
 443 659 443 661 443 661 c 1
 443 664 438 667 434 667 c 0
 429 667 425 664 421 658 c 2
 205 325 l 1
 353 325 l 1
EndSplineSet
EndChar
StartChar: ordfeminine
Encoding: 227 170 139
Width: 412
Flags: W
HStem: 293 58<44 375> 442 42<145 179> 704 33<220 241>
VStem: 29 109<531 551>
Fore
312 728 m 1
 417 728 l 1
 351 529 l 1
 344 506 344 506 344 502 c 0
 344 497 349 492 353 492 c 0
 364 492 399 526 423 559 c 1
 449 545 l 1
 408 481 355 442 308 442 c 0
 276 442 251 463 252 488 c 0
 252 489 252 491 253 493 c 0
 217 455 188 442 145 442 c 0
 77 442 29 487 29 551 c 0
 29 648 121 737 220 737 c 0
 258 737 286 724 302 700 c 1
 312 728 l 1
241 704 m 0
 214 704 191 685 170 647 c 0
 151 610 138 563 138 531 c 0
 138 502 154 484 179 484 c 0
 204 484 228 505 248 542 c 0
 267 580 282 631 282 661 c 0
 282 686 265 704 241 704 c 0
29 293 m 1
 45 351 l 1
 391 351 l 1
 375 293 l 1
 29 293 l 1
EndSplineSet
EndChar
StartChar: Lslash
Encoding: 232 321 140
Width: 704
Flags: W
HStem: 0 54<-35 602> 668 54<112 152 113 488>
DStem: 190 578 366 578 122 326 319 407 508 513 486 431 319 407 297 324
Fore
100 243 m 1
 0 185 l 1
 16 267 l 1
 122 326 l 1
 190 578 l 1
 199 613 203 632 203 641 c 0
 203 663 189 668 124 668 c 2
 105 668 l 1
 113 722 l 1
 495 722 l 1
 487 668 l 1
 469 668 l 2
 400 668 388 662 377 620 c 2
 366 578 l 1
 319 407 l 1
 508 513 l 1
 486 431 l 1
 297 324 l 1
 250 144 l 1
 240 107 236 89 236 80 c 0
 236 60 249 54 289 54 c 2
 325 54 l 2
 405 54 463 79 528 141 c 0
 570 180 596 217 618 266 c 1
 670 255 l 1
 602 0 l 1
 -41 0 l 1
 -34 54 l 1
 -30 54 l 2
 39 54 51 60 62 102 c 0
 67 119 70 131 73 144 c 1
 100 243 l 1
EndSplineSet
EndChar
StartChar: Oslash
Encoding: 233 216 141
Width: 833
Flags: W
HStem: -15 55<336 354> 682 55<480 498>
VStem: 36 179<197 286> 613 184<441 514>
DStem: 131 57 172 27 17 -83 82 -83 591 623 610 566 217 163 234 104 713 773 778 773 652 697 692 667
Fore
652 697 m 1
 713 773 l 1
 778 773 l 1
 692 667 l 1
 761 607 797 530 797 441 c 0
 797 194 589 -15 344 -15 c 0
 279 -15 216 0 172 27 c 1
 82 -83 l 1
 17 -83 l 1
 131 57 l 1
 69 111 36 192 36 286 c 0
 36 531 241 737 485 737 c 0
 549 737 604 724 652 697 c 1
217 163 m 1
 591 623 l 1
 569 661 531 682 487 682 c 0
 413 682 352 631 300 528 c 1
 252 429 215 288 215 197 c 0
 215 187 216 175 217 163 c 1
610 566 m 1
 234 104 l 1
 256 62 293 40 341 40 c 0
 415 40 477 91 533 197 c 0
 581 289 613 416 613 514 c 0
 613 532 612 544 610 566 c 1
EndSplineSet
KernsSLIF: 65 -49 0 0
EndChar
StartChar: OE
Encoding: 234 338 142
Width: 963
Flags: W
HStem: 0 54<290 309 583.038 639> 347 54<635 644> 477 245<478 940> 668 54<434 478 478 772>
VStem: 19 170<218 281>
DStem: 498 534 697 620 397 157 638 401 498 534 837 516 397 157 747 181 498 534 624 347 397 157 560 111
Fore
980 722 m 1xd8
 940 477 l 1
 891 477 l 1xe8
 891 549 887 578 873 604 c 0
 851 646 814 668 764 668 c 2
 747 668 l 2xd8
 719 668 706 655 697 620 c 1
 638 401 l 1
 648 401 l 2
 713 401 759 441 791 523 c 1
 837 516 l 1
 747 181 l 1
 701 188 l 1
 705 218 706 231 706 249 c 0
 706 306 676 347 635 347 c 2
 624 347 l 1
 560 111 l 2
 557 99 555 86 555 79 c 0
 555 64 571 54 596 54 c 2
 624 54 l 2
 673 54 746 91 795 141 c 1
 832 177 857 214 879 259 c 1
 928 248 l 1
 862 0 l 1
 307 0 l 2
 231 0 172 16 125 48 c 0
 58 94 19 181 19 281 c 0
 19 418 88 557 199 642 c 0
 277 701 349 722 478 722 c 2xe8
 980 722 l 1xd8
397 157 m 1
 498 534 l 2
 505 560 509 589 509 609 c 0
 509 648 485 668 440 668 c 0xd8
 374 668 327 633 280 551 c 0
 225 453 189 322 189 218 c 0
 189 167 197 130 216 99 c 0
 235 67 261 54 304 54 c 0
 354 54 375 78 397 157 c 1
EndSplineSet
EndChar
StartChar: ordmasculine
Encoding: 235 186 143
Width: 356
Flags: W
HStem: 293 58<44 333> 442 26<164 177> 709 28<225.975 247>
VStem: 29 104<516 563> 280 103<622 663>
Fore
239 737 m 0
 327 737 383 692 383 622 c 0
 383 520 291 442 170 442 c 0
 83 442 29 489 29 563 c 0
 29 657 125 737 239 737 c 0
236 709 m 0
 208 709 183 686 163 643 c 0
 146 606 133 552 133 516 c 0
 133 485 148 468 175 468 c 0
 205 468 228 489 247 531 c 0
 266 574 280 630 280 663 c 0
 280 691 263 709 236 709 c 0
29 293 m 1
 45 351 l 1
 349 351 l 1
 333 293 l 1
 29 293 l 1
EndSplineSet
EndChar
StartChar: ae
Encoding: 241 230 144
Width: 815
Flags: W
HStem: -15 59<495 539> 432 47<236 254 602 616>
VStem: -19 158<90 109> 68 155<353 366> 652 122<358 385>
Fore
691 126 m 1xd8
 726 91 l 1
 662 19 589 -15 495 -15 c 0
 401 -15 341 23 319 98 c 1
 276 23 209 -15 118 -15 c 0
 32 -15 -19 24 -19 90 c 0xe8
 -19 153 27 196 128 228 c 0
 184 245 204 249 324 264 c 1
 337 314 341 334 341 360 c 0
 341 404 303 432 245 432 c 0
 215 432 194 425 194 415 c 0
 194 411 195 409 201 402 c 0
 216 384 223 369 223 354 c 0
 223 318 190 290 146 290 c 0
 102 290 68 323 68 366 c 0
 68 433 139 479 241 479 c 0
 328 479 379 459 421 410 c 1
 471 452 545 479 614 479 c 0
 704 479 774 426 774 358 c 0
 774 288 718 238 604 205 c 0
 558 191 514 184 456 181 c 1
 453 158 453 150 453 136 c 0
 453 79 486 44 539 44 c 0
 591 44 633 66 691 126 c 1xd8
311 214 m 1
 200 204 139 167 139 109 c 0
 139 78 161 56 190 56 c 0
 222 56 253 77 277 113 c 0
 289 133 296 154 311 214 c 1
464 228 m 1
 478 230 486 231 495 233 c 0
 582 251 652 318 652 385 c 0
 652 414 635 432 609 432 c 0
 546 432 488 350 464 228 c 1
EndSplineSet
KernsSLIF: 121 -4 0 0 119 -13 0 0 118 -23 0 0
EndChar
StartChar: dotlessi
Encoding: 245 305 145
Width: 389
Flags: W
HStem: -15 79<146 213>
DStem: 108 319 312 478 57 149 207 122
Fore
312 478 m 1
 207 122 l 2
 198 91 197 88 197 80 c 0
 197 71 204 64 213 64 c 0
 233 64 266 101 314 177 c 1
 353 149 l 1
 285 35 222 -15 146 -15 c 0
 86 -15 42 23 42 75 c 0
 42 94 44 105 57 149 c 2
 108 319 l 2
 119 356 123 375 123 386 c 0
 123 411 111 417 62 417 c 2
 38 417 l 1
 45 464 l 1
 312 478 l 1
EndSplineSet
EndChar
StartChar: lslash
Encoding: 248 322 146
Width: 389
Flags: W
HStem: -15 78<151 218>
DStem: 190 578 395 736 131 380 307 441
Fore
307 441 m 1
 397 495 l 1
 371 410 l 1
 281 355 l 1
 212 122 l 2
 203 91 202 88 202 79 c 0
 202 70 209 63 218 63 c 0
 233 63 251 78 278 112 c 0
 300 139 313 158 324 176 c 1
 363 149 l 1
 342 111 312 74 277 41 c 0
 236 2 198 -15 151 -15 c 0
 91 -15 50 22 50 76 c 0
 50 98 56 128 72 182 c 2
 106 295 l 1
 26 246 l 1
 50 331 l 1
 131 380 l 1
 190 578 l 1
 202 617 206 634 206 644 c 0
 206 669 194 675 145 675 c 2
 121 675 l 1
 128 722 l 1
 395 736 l 1
 307 441 l 1
EndSplineSet
EndChar
StartChar: oslash
Encoding: 249 248 147
Width: 574
Flags: W
HStem: -14 43<217 235> 431 47<319 331>
VStem: 10 155<108 187> 385 155<285 353>
DStem: 120 4 167 -10 46 -126 100 -126 358 419 384 370 167 86 194 38 449 578 503 578 388 471 433 457
Fore
388 471 m 1
 449 578 l 1
 503 578 l 1
 433 457 l 1
 503 426 540 367 540 285 c 0
 540 116 401 -14 221 -14 c 0
 202 -14 187 -13 167 -10 c 1
 100 -126 l 1
 46 -126 l 1
 120 4 l 1
 50 35 10 101 10 187 c 0
 10 342 154 478 319 478 c 0
 340 478 360 476 388 471 c 1
167 86 m 1
 358 419 l 1
 346 427 333 431 319 431 c 0
 278 431 240 393 210 322 c 0
 184 259 165 167 165 108 c 0
 165 102 166 96 167 86 c 1
384 370 m 1
 194 38 l 1
 204 32 214 29 228 29 c 0
 273 29 308 63 335 133 c 0
 363 203 385 301 385 353 c 0
 385 356 385 361 384 370 c 1
EndSplineSet
EndChar
StartChar: oe
Encoding: 250 339 148
Width: 852
Flags: W
HStem: -15 59<539 575> -14 43<202 220> 432 47<298 316 644 652>
VStem: -5 155<108 188> 370 118<137 354> 688 122<358 385>
Fore
727 126 m 1xbc
 761 91 l 1
 700 21 625 -15 539 -15 c 0xbc
 470 -15 431 1 385 46 c 1
 323 -1 283 -14 208 -14 c 0x7c
 142 -14 90 3 55 37 c 0
 17 72 -5 129 -5 188 c 0
 -5 344 139 479 307 479 c 0
 377 479 424 459 465 412 c 1
 519 458 575 479 644 479 c 0
 740 479 810 428 810 358 c 0
 810 288 754 238 640 205 c 0
 593 191 550 184 491 181 c 1
 489 159 488 150 488 137 c 0
 488 79 521 44 575 44 c 0
 627 44 669 67 727 126 c 1xbc
305 432 m 0
 262 432 225 394 195 322 c 0
 169 259 150 168 150 108 c 0
 150 58 174 29 214 29 c 0x7c
 258 29 293 64 320 134 c 0
 348 204 370 302 370 354 c 0
 370 401 344 432 305 432 c 0
500 228 m 1
 532 233 550 237 569 244 c 0
 638 270 688 330 688 385 c 0
 688 413 671 432 644 432 c 0
 582 432 524 350 500 228 c 1
EndSplineSet
EndChar
StartChar: germandbls
Encoding: 251 223 149
Width: 574
Flags: W
HStem: -15 47<258 284> 692 45<333 346>
VStem: 358 150<221 299> 395 128<577 597>
DStem: 92 415 242 506 46 186 184 169
Fore
46 186 m 2xd0
 92 415 l 1
 139 643 212 737 344 737 c 0
 449 737 523 672 523 579 c 0xd0
 523 526 498 477 455 446 c 0
 430 428 409 419 365 410 c 1
 400 396 414 389 433 376 c 0
 482 342 508 288 508 221 c 0
 508 82 415 -15 284 -15 c 0
 250 -15 229 -11 198 1 c 1
 214 55 l 1
 230 38 242 32 259 32 c 0
 287 32 309 57 324 104 c 0
 344 167 358 248 358 299 c 0xe0
 358 340 346 372 325 386 c 0
 318 391 315 393 297 398 c 1
 279 405 272 410 272 420 c 0
 272 433 280 438 300 438 c 0
 329 438 343 442 354 454 c 0
 377 477 395 539 395 597 c 0
 395 655 373 692 339 692 c 0
 292 692 266 641 242 506 c 1
 184 169 l 1
 172 94 129 -79 98 -180 c 1
 -66 -205 l 1
 -9 -64 8 -2 46 186 c 2xd0
EndSplineSet
EndChar
StartChar: Adieresis
Encoding: 256 196 150
Width: 741
Flags: W
HStem: 0 54<-69 211 341 709> 220 54<217 417> 716 20G<419 481> 790 143<333 347 548 566>
VStem: 273 143<850.12 865> 488 143<850.12 865>
DStem: 419 736 358 515 71 157 217 274 419 736 185 220 71 157 139 139
Fore
481 736 m 1
 612 114 l 2
 622 67 641 54 702 54 c 2
 716 54 l 1
 709 0 l 1
 335 0 l 1
 342 54 l 1
 358 54 l 2
 399 54 410 55 424 62 c 0
 434 66 441 76 441 85 c 0
 441 92 440 103 437 117 c 1
 417 220 l 1
 185 220 l 1
 139 139 l 2
 130 124 125 108 125 96 c 0
 125 67 150 54 206 54 c 2
 219 54 l 1
 211 0 l 1
 -75 0 l 1
 -68 54 l 1
 -62 54 l 2
 -18 54 33 93 71 157 c 2
 419 736 l 1
 481 736 l 1
404 274 m 1
 358 515 l 1
 217 274 l 1
 404 274 l 1
345 933 m 0
 384 933 416 901 416 862 c 0
 416 822 384 790 344 790 c 0
 305 790 273 823 273 862 c 0
 273 901 305 933 345 933 c 0
560 933 m 0
 599 933 631 901 631 862 c 0
 631 822 599 790 559 790 c 0
 520 790 488 823 488 862 c 0
 488 901 520 933 560 933 c 0
EndSplineSet
KernsSLIF: 121 -48 0 0 119 3 0 0 118 -20 0 0 117 -4 0 0 116 4 0 0 39 -66 0 0 186 -61 0 0 113 5 0 0 46 32 0 0 111 -7 0 0 45 -5 0 0 172 -10 0 0 171 -10 0 0 103 14 0 0 100 -1 0 0 44 37 0 0 98 -10 0 0 97 -9 0 0 89 -13 0 0 87 -71 0 0 86 -87 0 0 85 -46 0 0 84 -12 0 0 81 -34 0 0 79 -35 0 0 71 -32 0 0 67 -35 0 0
Ligature: 0 0 'liga' A uni0308
EndChar
StartChar: Aacute
Encoding: 257 193 151
Width: 741
Flags: W
HStem: 0 54<-69 211 341 709> 220 54<217 417> 716 20G<419 481>
DStem: 419 736 358 515 71 157 217 274 419 736 185 220 71 157 139 139
Fore
481 736 m 1
 612 114 l 2
 622 67 641 54 702 54 c 2
 716 54 l 1
 709 0 l 1
 335 0 l 1
 342 54 l 1
 358 54 l 2
 399 54 410 55 424 62 c 0
 434 66 441 76 441 85 c 0
 441 92 440 103 437 117 c 1
 417 220 l 1
 185 220 l 1
 139 139 l 2
 130 124 125 108 125 96 c 0
 125 67 150 54 206 54 c 2
 219 54 l 1
 211 0 l 1
 -75 0 l 1
 -68 54 l 1
 -62 54 l 2
 -18 54 33 93 71 157 c 2
 419 736 l 1
 481 736 l 1
404 274 m 1
 358 515 l 1
 217 274 l 1
 404 274 l 1
377 774 m 1
 501 913 l 2
 534 949 547 958 571 958 c 0
 601 958 625 935 625 906 c 0
 625 888 615 872 597 862 c 2
 431 774 l 1
 377 774 l 1
EndSplineSet
KernsSLIF: 121 -48 0 0 119 3 0 0 118 -20 0 0 117 -4 0 0 116 4 0 0 39 -66 0 0 113 5 0 0 46 32 0 0 111 -7 0 0 45 -5 0 0 172 -10 0 0 171 -10 0 0 103 14 0 0 101 3 0 0 100 -1 0 0 44 37 0 0 98 -10 0 0 97 -9 0 0 89 -13 0 0 87 -71 0 0 86 -87 0 0 85 -46 0 0 84 -12 0 0 81 -34 0 0 79 -35 0 0 71 -32 0 0 67 -35 0 0
Ligature: 0 0 'liga' A acutecomb
EndChar
StartChar: Agrave
Encoding: 258 192 152
Width: 741
Flags: W
HStem: 0 54<-69 211 341 709> 220 54<217 417> 716 20G<419 481>
DStem: 419 736 358 515 71 157 217 274 419 736 185 220 71 157 139 139
Fore
481 736 m 1
 612 114 l 2
 622 67 641 54 702 54 c 2
 716 54 l 1
 709 0 l 1
 335 0 l 1
 342 54 l 1
 358 54 l 2
 399 54 410 55 424 62 c 0
 434 66 441 76 441 85 c 0
 441 92 440 103 437 117 c 1
 417 220 l 1
 185 220 l 1
 139 139 l 2
 130 124 125 108 125 96 c 0
 125 67 150 54 206 54 c 2
 219 54 l 1
 211 0 l 1
 -75 0 l 1
 -68 54 l 1
 -62 54 l 2
 -18 54 33 93 71 157 c 2
 419 736 l 1
 481 736 l 1
404 274 m 1
 358 515 l 1
 217 274 l 1
 404 274 l 1
511 774 m 1
 462 774 l 1
 321 863 l 2
 301 875 291 891 291 909 c 0
 291 937 313 958 344 958 c 0
 371 958 385 949 409 916 c 2
 511 774 l 1
EndSplineSet
KernsSLIF: 46 32 0 0 44 37 0 0 89 -13 0 0 87 -71 0 0 86 -87 0 0 85 -46 0 0 84 -12 0 0 81 -34 0 0 79 -35 0 0 71 -32 0 0 67 -35 0 0
Ligature: 0 0 'liga' A gravecomb
EndChar
StartChar: Acircumflex
Encoding: 259 194 153
Width: 741
Flags: W
HStem: 0 54<-69 211 341 709> 220 54<217 417> 716 20G<419 481>
DStem: 419 736 358 515 71 157 217 274 419 736 185 220 71 157 139 139
Fore
481 736 m 1
 612 114 l 2
 622 67 641 54 702 54 c 2
 716 54 l 1
 709 0 l 1
 335 0 l 1
 342 54 l 1
 358 54 l 2
 399 54 410 55 424 62 c 0
 434 66 441 76 441 85 c 0
 441 92 440 103 437 117 c 1
 417 220 l 1
 185 220 l 1
 139 139 l 2
 130 124 125 108 125 96 c 0
 125 67 150 54 206 54 c 2
 219 54 l 1
 211 0 l 1
 -75 0 l 1
 -68 54 l 1
 -62 54 l 2
 -18 54 33 93 71 157 c 2
 419 736 l 1
 481 736 l 1
404 274 m 1
 358 515 l 1
 217 274 l 1
 404 274 l 1
275 774 m 1
 432 950 l 1
 533 950 l 1
 617 774 l 1
 558 774 l 1
 468 862 l 1
 342 774 l 1
 275 774 l 1
EndSplineSet
KernsSLIF: 46 32 0 0 44 37 0 0 89 -13 0 0 87 -71 0 0 86 -87 0 0 85 -46 0 0 84 -12 0 0 81 -34 0 0 79 -35 0 0 71 -32 0 0 67 -35 0 0
Ligature: 0 0 'liga' A uni0302
EndChar
StartChar: Abreve
Encoding: 260 258 154
Width: 741
Flags: W
HStem: 0 54<-69 211 341 709> 220 54<217 417> 716 20G<419 481> 777 79<440 470>
DStem: 419 736 358 515 71 157 217 274 419 736 185 220 71 157 139 139
Fore
481 736 m 1
 612 114 l 2
 622 67 641 54 702 54 c 2
 716 54 l 1
 709 0 l 1
 335 0 l 1
 342 54 l 1
 358 54 l 2
 399 54 410 55 424 62 c 0
 434 66 441 76 441 85 c 0
 441 92 440 103 437 117 c 1
 417 220 l 1
 185 220 l 1
 139 139 l 2
 130 124 125 108 125 96 c 0
 125 67 150 54 206 54 c 2
 219 54 l 1
 211 0 l 1
 -75 0 l 1
 -68 54 l 1
 -62 54 l 2
 -18 54 33 93 71 157 c 2
 419 736 l 1
 481 736 l 1
404 274 m 1
 358 515 l 1
 217 274 l 1
 404 274 l 1
312 941 m 1
 361 941 l 1
 366 882 397 856 461 856 c 0
 523 856 575 891 588 941 c 1
 634 941 l 1
 631 905 617 869 591 839 c 1
 557 797 510 777 449 777 c 0
 359 777 310 826 310 915 c 0
 310 923 310 929 312 941 c 1
EndSplineSet
Ligature: 0 0 'liga' A uni0306
EndChar
StartChar: Atilde
Encoding: 261 195 155
Width: 741
Flags: W
HStem: 0 54<-69 211 341 709> 220 54<217 417> 716 20G<419 481> 796 86<514 541> 838 84<357 392>
DStem: 419 736 358 515 71 157 217 274 419 736 185 220 71 157 139 139
Fore
481 736 m 1xe0
 612 114 l 2
 622 67 641 54 702 54 c 2
 716 54 l 1
 709 0 l 1
 335 0 l 1
 342 54 l 1
 358 54 l 2
 399 54 410 55 424 62 c 0
 434 66 441 76 441 85 c 0
 441 92 440 103 437 117 c 1
 417 220 l 1
 185 220 l 1
 139 139 l 2
 130 124 125 108 125 96 c 0
 125 67 150 54 206 54 c 2
 219 54 l 1
 211 0 l 1
 -75 0 l 1
 -68 54 l 1
 -62 54 l 2
 -18 54 33 93 71 157 c 2
 419 736 l 1
 481 736 l 1xe0
404 274 m 1
 358 515 l 1
 217 274 l 1
 404 274 l 1
591 922 m 1xe8
 638 922 l 1xe8
 635 855 577 796 514 796 c 0xf0
 493 796 468 802 429 817 c 0
 384 835 372 838 357 838 c 0xe8
 335 838 320 823 315 796 c 1
 268 796 l 1xf0
 273 869 326 922 392 922 c 0xe8
 412 922 438 916 471 903 c 0
 519 884 526 882 541 882 c 0xf0
 566 882 583 896 591 922 c 1xe8
EndSplineSet
KernsSLIF: 46 32 0 0 44 37 0 0 89 -13 0 0 87 -71 0 0 86 -87 0 0 85 -46 0 0 84 -12 0 0 81 -34 0 0 79 -35 0 0 71 -32 0 0 67 -35 0 0
Ligature: 0 0 'liga' A tildecomb
EndChar
StartChar: Aring
Encoding: 262 197 156
Width: 741
Flags: W
HStem: 0 54<-69 211 341 709> 220 54<217 417> 716 20G<419 481> 783 54<462 469> 944 54<466 470>
VStem: 358 54<880.089 897> 519 54<891 897>
DStem: 419 736 358 515 71 157 217 274 419 736 185 220 71 157 139 139
Fore
481 736 m 1
 612 114 l 2
 622 67 641 54 702 54 c 2
 716 54 l 1
 709 0 l 1
 335 0 l 1
 342 54 l 1
 358 54 l 2
 399 54 410 55 424 62 c 0
 434 66 441 76 441 85 c 0
 441 92 440 103 437 117 c 1
 417 220 l 1
 185 220 l 1
 139 139 l 2
 130 124 125 108 125 96 c 0
 125 67 150 54 206 54 c 2
 219 54 l 1
 211 0 l 1
 -75 0 l 1
 -68 54 l 1
 -62 54 l 2
 -18 54 33 93 71 157 c 2
 419 736 l 1
 481 736 l 1
404 274 m 1
 358 515 l 1
 217 274 l 1
 404 274 l 1
466 998 m 0
 525 998 573 950 573 891 c 0
 573 831 525 783 464 783 c 0
 407 783 358 832 358 891 c 0
 358 949 407 998 466 998 c 0
466 944 m 0
 436 944 412 920 412 890 c 0
 412 862 436 837 465 837 c 0
 495 837 519 861 519 891 c 0
 519 920 495 944 466 944 c 0
EndSplineSet
KernsSLIF: 121 -48 0 0 119 3 0 0 118 -20 0 0 117 -4 0 0 116 4 0 0 39 -66 0 0 186 -61 0 0 113 5 0 0 46 32 0 0 111 -7 0 0 45 -5 0 0 172 -10 0 0 171 -10 0 0 103 14 0 0 101 3 0 0 100 -1 0 0 44 37 0 0 98 -10 0 0 97 -9 0 0 89 -13 0 0 87 -71 0 0 86 -87 0 0 85 -46 0 0 84 -12 0 0 81 -34 0 0 79 -35 0 0 71 -32 0 0 67 -35 0 0
Ligature: 0 0 'liga' A uni030A
EndChar
StartChar: Aogonek
Encoding: 263 260 157
Width: 741
Flags: W
HStem: 0 54<-69 211 341 642> 220 54<217 417> 716 20G<419 481>
VStem: 598 79<-91 -62>
DStem: 419 736 358 515 71 157 217 274 419 736 185 220 71 157 139 139
Fore
716 54 m 1
 709 0 l 1
 686 -22 677 -39 677 -62 c 0
 677 -84 689 -98 707 -98 c 0
 722 -98 736 -91 757 -75 c 1
 775 -106 l 1
 745 -151 711 -173 675 -173 c 0
 630 -173 598 -138 598 -91 c 0
 598 -56 612 -27 642 0 c 1
 335 0 l 1
 342 54 l 1
 358 54 l 2
 399 54 410 55 424 62 c 0
 434 66 441 76 441 85 c 0
 441 92 440 103 437 117 c 1
 417 220 l 1
 185 220 l 1
 139 139 l 2
 130 124 125 108 125 96 c 0
 125 67 150 54 206 54 c 2
 219 54 l 1
 211 0 l 1
 -75 0 l 1
 -68 54 l 1
 -62 54 l 2
 -18 54 33 93 71 157 c 2
 419 736 l 1
 481 736 l 1
 612 114 l 2
 622 67 641 54 702 54 c 2
 716 54 l 1
404 274 m 1
 358 515 l 1
 217 274 l 1
 404 274 l 1
EndSplineSet
Ligature: 0 0 'liga' A uni0328
EndChar
StartChar: Ccedilla
Encoding: 264 199 158
Width: 759
Flags: W
HStem: -222 45<290 311> -104 45<303 360> -15 62<361 399> 684 53<471 500>
VStem: 35 190<237 292> 345 101<-143 -132>
DStem: 317 -12 361 -15 257 -91 327 -62
Fore
361 -15 m 1
 327 -62 l 1
 340 -60 352 -59 360 -59 c 0
 409 -59 446 -91 446 -134 c 0
 446 -186 391 -222 311 -222 c 0
 268 -222 229 -212 202 -193 c 1
 224 -158 l 1
 256 -172 274 -177 296 -177 c 0
 325 -177 345 -161 345 -139 c 0
 345 -119 327 -104 303 -104 c 0
 295 -104 289 -105 274 -108 c 1
 257 -91 l 1
 317 -12 l 1
 138 11 35 123 35 292 c 0
 35 531 238 737 473 737 c 0
 552 737 611 711 657 655 c 1
 713 712 l 1
 759 712 l 1
 701 426 l 1
 652 432 l 1
 647 603 594 684 487 684 c 0
 421 684 361 646 320 576 c 0
 261 479 225 349 225 237 c 0
 225 121 291 47 397 47 c 0
 488 47 579 115 616 212 c 1
 679 212 l 1
 627 64 513 -18 361 -15 c 1
EndSplineSet
KernsSLIF: 65 -21 0 0
Ligature: 0 0 'liga' C uni0327
EndChar
StartChar: Cacute
Encoding: 265 262 159
Width: 759
Flags: W
HStem: -15 63<368 397> 684 53<468 500>
VStem: 35 190<238 292>
Fore
759 712 m 1
 701 426 l 1
 652 432 l 1
 647 603 594 684 487 684 c 0
 421 684 361 646 320 576 c 0
 261 479 225 349 225 238 c 0
 225 121 291 48 397 48 c 0
 488 48 579 116 616 212 c 1
 679 212 l 1
 663 161 633 112 591 70 c 0
 536 15 458 -15 368 -15 c 0
 274 -15 178 18 122 71 c 0
 67 123 35 204 35 292 c 0
 35 531 238 737 473 737 c 0
 552 737 611 711 657 655 c 1
 713 712 l 1
 759 712 l 1
416 774 m 1
 540 913 l 2
 573 949 586 958 610 958 c 0
 640 958 664 935 664 906 c 0
 664 888 654 872 636 862 c 2
 470 774 l 1
 416 774 l 1
EndSplineSet
Ligature: 0 0 'liga' C acutecomb
EndChar
StartChar: Ccaron
Encoding: 266 268 160
Width: 759
Flags: W
HStem: -15 63<368 397> 684 53<471 500>
VStem: 35 190<238 292>
Fore
759 712 m 1
 701 426 l 1
 652 432 l 1
 647 603 594 684 487 684 c 0
 421 684 361 646 320 576 c 0
 261 479 225 349 225 238 c 0
 225 121 291 48 397 48 c 0
 488 48 579 116 616 212 c 1
 679 212 l 1
 663 161 633 112 591 70 c 0
 536 15 458 -15 368 -15 c 0
 274 -15 178 18 122 71 c 0
 67 123 35 204 35 292 c 0
 35 531 238 737 473 737 c 0
 552 737 611 711 657 655 c 1
 713 712 l 1
 759 712 l 1
696 950 m 1
 539 774 l 1
 437 774 l 1
 353 950 l 1
 412 950 l 1
 502 862 l 1
 628 950 l 1
 696 950 l 1
EndSplineSet
Ligature: 0 0 'liga' C uni030C
EndChar
StartChar: Dcaron
Encoding: 267 270 161
Width: 833
Flags: W
HStem: 0 54<-43 320> 668 54<104 144 105 480>
VStem: 610 186<437 501>
DStem: 182 578 365 605 66 144 237 127
Fore
-49 0 m 1
 -42 54 l 1
 -38 54 l 2
 4 54 28 58 39 68 c 0
 47 76 47 76 66 144 c 1
 182 578 l 2
 191 612 195 632 195 641 c 0
 195 663 181 668 116 668 c 2
 98 668 l 1
 105 722 l 1
 463 722 l 2
 572 722 633 707 691 666 c 0
 760 618 796 540 796 437 c 0
 796 305 740 180 645 100 c 0
 559 28 459 0 285 0 c 2
 -49 0 l 1
281 54 m 2
 310 54 l 2
 396 54 467 91 515 162 c 0
 570 244 610 388 610 501 c 0
 610 610 558 668 461 668 c 2
 439 668 l 2
 393 668 379 655 365 605 c 1
 237 127 l 1
 229 91 228 88 228 81 c 0
 228 61 243 54 281 54 c 2
653 950 m 1
 496 774 l 1
 394 774 l 1
 310 950 l 1
 369 950 l 1
 459 862 l 1
 585 950 l 1
 653 950 l 1
EndSplineSet
Ligature: 0 0 'liga' D uni030C
EndChar
StartChar: Edieresis
Encoding: 268 203 162
Width: 741
Flags: W
HStem: 0 54<-35 602> 477 245<113 688> 668 54<112 152 113 495> 790 143<337 360 556 567>
VStem: 278 143<850.12 865> 493 143<850.12 865>
DStem: 190 578 377 620 73 144 318 401 190 578 304 347 73 144 241 111
Fore
728 722 m 1xbc
 688 477 l 1
 636 477 l 1xdc
 635 540 629 577 615 604 c 0
 595 646 548 668 478 668 c 2
 440 668 l 2
 399 668 388 659 377 620 c 1
 318 401 l 1
 339 401 l 2
 426 401 471 434 505 523 c 1
 558 516 l 1
 468 181 l 1
 415 188 l 1
 419 218 420 232 420 250 c 0
 420 315 389 347 326 347 c 2
 304 347 l 1
 241 111 l 1
 237 98 235 85 235 79 c 0
 235 61 251 54 289 54 c 2
 325 54 l 2
 405 54 463 79 528 141 c 0
 566 177 593 213 616 259 c 1
 668 248 l 1
 602 0 l 1
 -41 0 l 1
 -34 54 l 1
 -30 54 l 2
 39 54 51 60 62 102 c 2
 73 144 l 1
 190 578 l 1
 199 613 203 632 203 641 c 0
 203 663 189 668 124 668 c 2
 105 668 l 1xbc
 113 722 l 1xdc
 728 722 l 1xbc
350 933 m 0
 389 933 421 901 421 862 c 0
 421 822 389 790 349 790 c 0
 310 790 278 823 278 862 c 0
 278 901 310 933 350 933 c 0
565 933 m 0
 604 933 636 901 636 862 c 0
 636 822 604 790 564 790 c 0
 525 790 493 823 493 862 c 0
 493 901 525 933 565 933 c 0
EndSplineSet
Ligature: 0 0 'liga' E uni0308
EndChar
StartChar: Eacute
Encoding: 269 201 163
Width: 741
Flags: W
HStem: 0 54<-35 602> 477 245<113 688> 668 54<112 152 113 488>
DStem: 190 578 377 620 73 144 318 401 190 578 304 347 73 144 241 111
Fore
728 722 m 1xa0
 688 477 l 1
 636 477 l 1xc0
 635 540 629 577 615 604 c 0
 595 646 548 668 478 668 c 2
 440 668 l 2
 399 668 388 659 377 620 c 1
 318 401 l 1
 339 401 l 2
 426 401 471 434 505 523 c 1
 558 516 l 1
 468 181 l 1
 415 188 l 1
 419 218 420 232 420 250 c 0
 420 315 389 347 326 347 c 2
 304 347 l 1
 241 111 l 1
 237 98 235 85 235 79 c 0
 235 61 251 54 289 54 c 2
 325 54 l 2
 405 54 463 79 528 141 c 0
 566 177 593 213 616 259 c 1
 668 248 l 1
 602 0 l 1
 -41 0 l 1
 -34 54 l 1
 -30 54 l 2
 39 54 51 60 62 102 c 2
 73 144 l 1
 190 578 l 1
 199 613 203 632 203 641 c 0
 203 663 189 668 124 668 c 2
 105 668 l 1xa0
 113 722 l 1xc0
 728 722 l 1xa0
390 774 m 1
 514 913 l 2
 547 949 560 958 584 958 c 0
 614 958 638 935 638 906 c 0
 638 888 628 872 610 862 c 2
 444 774 l 1
 390 774 l 1
EndSplineSet
Ligature: 0 0 'liga' E acutecomb
EndChar
StartChar: Egrave
Encoding: 270 200 164
Width: 741
Flags: W
HStem: 0 54<-35 602> 477 245<113 688> 668 54<112 152 113 498>
DStem: 190 578 377 620 73 144 318 401 190 578 304 347 73 144 241 111
Fore
728 722 m 1xa0
 688 477 l 1
 636 477 l 1xc0
 635 540 629 577 615 604 c 0
 595 646 548 668 478 668 c 2
 440 668 l 2
 399 668 388 659 377 620 c 1
 318 401 l 1
 339 401 l 2
 426 401 471 434 505 523 c 1
 558 516 l 1
 468 181 l 1
 415 188 l 1
 419 218 420 232 420 250 c 0
 420 315 389 347 326 347 c 2
 304 347 l 1
 241 111 l 1
 237 98 235 85 235 79 c 0
 235 61 251 54 289 54 c 2
 325 54 l 2
 405 54 463 79 528 141 c 0
 566 177 593 213 616 259 c 1
 668 248 l 1
 602 0 l 1
 -41 0 l 1
 -34 54 l 1
 -30 54 l 2
 39 54 51 60 62 102 c 2
 73 144 l 1
 190 578 l 1
 199 613 203 632 203 641 c 0
 203 663 189 668 124 668 c 2
 105 668 l 1xa0
 113 722 l 1xc0
 728 722 l 1xa0
545 774 m 1
 496 774 l 1
 355 863 l 2
 335 875 325 891 325 909 c 0
 325 937 347 958 378 958 c 0
 405 958 419 949 443 916 c 2
 545 774 l 1
EndSplineSet
Ligature: 0 0 'liga' E gravecomb
EndChar
StartChar: Ecircumflex
Encoding: 271 202 165
Width: 741
Flags: W
HStem: 0 54<-35 602> 477 245<113 688> 668 54<112 152 113 488>
DStem: 190 578 377 620 73 144 318 401 190 578 304 347 73 144 241 111
Fore
728 722 m 1xa0
 688 477 l 1
 636 477 l 1xc0
 635 540 629 577 615 604 c 0
 595 646 548 668 478 668 c 2
 440 668 l 2
 399 668 388 659 377 620 c 1
 318 401 l 1
 339 401 l 2
 426 401 471 434 505 523 c 1
 558 516 l 1
 468 181 l 1
 415 188 l 1
 419 218 420 232 420 250 c 0
 420 315 389 347 326 347 c 2
 304 347 l 1
 241 111 l 1
 237 98 235 85 235 79 c 0
 235 61 251 54 289 54 c 2
 325 54 l 2
 405 54 463 79 528 141 c 0
 566 177 593 213 616 259 c 1
 668 248 l 1
 602 0 l 1
 -41 0 l 1
 -34 54 l 1
 -30 54 l 2
 39 54 51 60 62 102 c 2
 73 144 l 1
 190 578 l 1
 199 613 203 632 203 641 c 0
 203 663 189 668 124 668 c 2
 105 668 l 1xa0
 113 722 l 1xc0
 728 722 l 1xa0
280 774 m 1
 437 950 l 1
 538 950 l 1
 622 774 l 1
 563 774 l 1
 473 862 l 1
 347 774 l 1
 280 774 l 1
EndSplineSet
Ligature: 0 0 'liga' E uni0302
EndChar
StartChar: Ecaron
Encoding: 272 282 166
Width: 741
Flags: W
HStem: 0 54<-35 602> 477 245<113 688> 668 54<112 152 113 502>
DStem: 190 578 377 620 73 144 318 401 190 578 304 347 73 144 241 111
Fore
728 722 m 1xa0
 688 477 l 1
 636 477 l 1xc0
 635 540 629 577 615 604 c 0
 595 646 548 668 478 668 c 2
 440 668 l 2
 399 668 388 659 377 620 c 1
 318 401 l 1
 339 401 l 2
 426 401 471 434 505 523 c 1
 558 516 l 1
 468 181 l 1
 415 188 l 1
 419 218 420 232 420 250 c 0
 420 315 389 347 326 347 c 2
 304 347 l 1
 241 111 l 1
 237 98 235 85 235 79 c 0
 235 61 251 54 289 54 c 2
 325 54 l 2
 405 54 463 79 528 141 c 0
 566 177 593 213 616 259 c 1
 668 248 l 1
 602 0 l 1
 -41 0 l 1
 -34 54 l 1
 -30 54 l 2
 39 54 51 60 62 102 c 2
 73 144 l 1
 190 578 l 1
 199 613 203 632 203 641 c 0
 203 663 189 668 124 668 c 2
 105 668 l 1xa0
 113 722 l 1xc0
 728 722 l 1xa0
657 950 m 1
 500 774 l 1
 398 774 l 1
 314 950 l 1
 373 950 l 1
 463 862 l 1
 589 950 l 1
 657 950 l 1
EndSplineSet
Ligature: 0 0 'liga' E uni030C
EndChar
StartChar: Edotaccent
Encoding: 273 278 167
Width: 741
Flags: W
HStem: 0 54<-35 602> 477 245<113 688> 668 54<112 152 113 488> 790 143<466 480>
VStem: 399 143<850.12 865>
DStem: 190 578 377 620 73 144 318 401 190 578 304 347 73 144 241 111
Fore
728 722 m 1xb8
 688 477 l 1
 636 477 l 1xd8
 635 540 629 577 615 604 c 0
 595 646 548 668 478 668 c 2
 440 668 l 2
 399 668 388 659 377 620 c 1
 318 401 l 1
 339 401 l 2
 426 401 471 434 505 523 c 1
 558 516 l 1
 468 181 l 1
 415 188 l 1
 419 218 420 232 420 250 c 0
 420 315 389 347 326 347 c 2
 304 347 l 1
 241 111 l 1
 237 98 235 85 235 79 c 0
 235 61 251 54 289 54 c 2
 325 54 l 2
 405 54 463 79 528 141 c 0
 566 177 593 213 616 259 c 1
 668 248 l 1
 602 0 l 1
 -41 0 l 1
 -34 54 l 1
 -30 54 l 2
 39 54 51 60 62 102 c 2
 73 144 l 1
 190 578 l 1
 199 613 203 632 203 641 c 0
 203 663 189 668 124 668 c 2
 105 668 l 1xb8
 113 722 l 1xd8
 728 722 l 1xb8
471 933 m 0
 510 933 542 901 542 862 c 0
 542 822 510 790 470 790 c 0
 431 790 399 823 399 862 c 0
 399 901 431 933 471 933 c 0
EndSplineSet
Ligature: 0 0 'liga' E uni0307
EndChar
StartChar: Eogonek
Encoding: 274 280 168
Width: 741
Flags: W
HStem: -173 75<568 600> 0 54<-35 535> 477 245<113 688> 668 54<112 152 113 493>
VStem: 491 79<-91 -62>
DStem: 190 578 377 620 73 144 318 401 190 578 304 347 73 144 241 111
Fore
668 248 m 1xd8
 602 0 l 1
 579 -22 570 -39 570 -62 c 0
 570 -84 582 -98 600 -98 c 0
 615 -98 629 -92 650 -75 c 1
 668 -106 l 1
 638 -150 604 -173 568 -173 c 0
 523 -173 491 -138 491 -91 c 0
 491 -56 505 -27 535 0 c 1
 -41 0 l 1
 -34 54 l 1
 -30 54 l 2
 39 54 51 60 62 102 c 2
 73 144 l 1
 190 578 l 1
 199 613 203 632 203 641 c 0
 203 663 189 668 124 668 c 2
 105 668 l 1xd8
 113 722 l 1xe8
 728 722 l 1xd8
 688 477 l 1
 636 477 l 1xe8
 635 540 629 577 615 604 c 0
 595 646 548 668 478 668 c 2
 440 668 l 2
 399 668 388 659 377 620 c 1
 318 401 l 1
 339 401 l 2
 426 401 471 434 505 523 c 1
 558 516 l 1
 468 181 l 1
 415 188 l 1
 419 218 420 232 420 250 c 0
 420 315 389 347 326 347 c 2
 304 347 l 1
 241 111 l 1
 237 98 235 85 235 79 c 0
 235 61 251 54 289 54 c 2
 325 54 l 2
 405 54 463 79 528 141 c 0
 566 177 593 213 616 259 c 1
 668 248 l 1xd8
EndSplineSet
Ligature: 0 0 'liga' E uni0328
EndChar
StartChar: Gbreve
Encoding: 275 286 169
Width: 815
Flags: W
HStem: -15 52<346 371> 282 54<429 487 430 795> 683 54<481 515> 777 79<497 528>
VStem: 34 188<229 284>
Fore
775 715 m 1
 718 432 l 1
 667 439 l 1
 666 492 659 533 644 576 c 0
 619 646 569 683 498 683 c 0
 419 683 352 632 298 531 c 0
 253 447 222 322 222 229 c 0
 222 181 232 133 248 103 c 0
 269 64 315 37 363 37 c 0
 426 37 480 81 504 152 c 0
 514 182 528 241 528 255 c 0
 528 278 516 282 451 282 c 2
 423 282 l 1
 430 336 l 1
 802 336 l 1
 795 282 l 1
 785 282 l 2
 716 282 704 276 694 234 c 0
 690 220 686 205 682 192 c 1
 627 -14 l 1
 579 -14 l 1
 560 81 l 1
 506 16 438 -15 347 -15 c 0
 277 -15 207 6 149 44 c 0
 77 92 34 182 34 284 c 0
 34 529 241 737 485 737 c 0
 568 737 616 716 670 657 c 1
 730 715 l 1
 775 715 l 1
369 941 m 1
 418 941 l 1
 423 882 454 856 518 856 c 0
 580 856 632 891 645 941 c 1
 691 941 l 1
 688 905 674 869 648 839 c 1
 614 797 567 777 506 777 c 0
 416 777 367 826 367 915 c 0
 367 923 367 929 369 941 c 1
EndSplineSet
Ligature: 0 0 'liga' G uni0306
EndChar
StartChar: Idieresis
Encoding: 276 207 170
Width: 444
Flags: W
HStem: 0 54<-35 332> 668 54<112 152 113 479> 790 143<204 216 422 429>
VStem: 140 143<850.12 865> 355 143<850.12 865>
DStem: 192 578 369 578 76 144 253 144
Fore
332 0 m 1
 -41 0 l 1
 -34 54 l 1
 -27 54 l 2
 15 54 39 58 49 68 c 0
 58 76 58 76 76 144 c 2
 192 578 l 1
 202 612 206 632 206 641 c 0
 206 663 192 668 127 668 c 2
 105 668 l 1
 113 722 l 1
 486 722 l 1
 479 668 l 1
 472 668 l 2
 430 668 406 664 396 654 c 1
 387 647 387 647 369 578 c 1
 253 144 l 1
 239 89 239 89 239 81 c 0
 239 59 253 54 318 54 c 2
 340 54 l 1
 332 0 l 1
212 933 m 0
 251 933 283 901 283 862 c 0
 283 822 251 790 211 790 c 0
 172 790 140 823 140 862 c 0
 140 901 172 933 212 933 c 0
427 933 m 0
 466 933 498 901 498 862 c 0
 498 822 466 790 426 790 c 0
 387 790 355 823 355 862 c 0
 355 901 387 933 427 933 c 0
EndSplineSet
Ligature: 0 0 'liga' I uni0308
EndChar
StartChar: Iacute
Encoding: 277 205 171
Width: 444
Flags: W
HStem: 0 54<-35 332> 668 54<112 152 113 479>
DStem: 192 578 369 578 76 144 253 144
Fore
332 0 m 1
 -41 0 l 1
 -34 54 l 1
 -27 54 l 2
 15 54 39 58 49 68 c 0
 58 76 58 76 76 144 c 2
 192 578 l 1
 202 612 206 632 206 641 c 0
 206 663 192 668 127 668 c 2
 105 668 l 1
 113 722 l 1
 486 722 l 1
 479 668 l 1
 472 668 l 2
 430 668 406 664 396 654 c 1
 387 647 387 647 369 578 c 1
 253 144 l 1
 239 89 239 89 239 81 c 0
 239 59 253 54 318 54 c 2
 340 54 l 1
 332 0 l 1
179 774 m 1
 303 913 l 2
 336 949 349 958 373 958 c 0
 403 958 427 935 427 906 c 0
 427 888 417 872 399 862 c 2
 233 774 l 1
 179 774 l 1
EndSplineSet
Ligature: 0 0 'liga' I acutecomb
EndChar
StartChar: Igrave
Encoding: 278 204 172
Width: 444
Flags: W
HStem: 0 54<-35 332> 668 54<112 158 113 479>
DStem: 192 578 369 578 76 144 253 144
Fore
332 0 m 1
 -41 0 l 1
 -34 54 l 1
 -27 54 l 2
 15 54 39 58 49 68 c 0
 58 76 58 76 76 144 c 2
 192 578 l 1
 202 612 206 632 206 641 c 0
 206 663 192 668 127 668 c 2
 105 668 l 1
 113 722 l 1
 486 722 l 1
 479 668 l 1
 472 668 l 2
 430 668 406 664 396 654 c 1
 387 647 387 647 369 578 c 1
 253 144 l 1
 239 89 239 89 239 81 c 0
 239 59 253 54 318 54 c 2
 340 54 l 1
 332 0 l 1
376 774 m 1
 327 774 l 1
 186 863 l 2
 166 875 156 891 156 909 c 0
 156 937 178 958 209 958 c 0
 236 958 250 949 274 916 c 2
 376 774 l 1
EndSplineSet
Ligature: 0 0 'liga' I gravecomb
EndChar
StartChar: Icircumflex
Encoding: 279 206 173
Width: 444
Flags: W
HStem: 0 54<-35 332> 668 54<112 152 113 479>
DStem: 192 578 369 578 76 144 253 144
Fore
332 0 m 1
 -41 0 l 1
 -34 54 l 1
 -27 54 l 2
 15 54 39 58 49 68 c 0
 58 76 58 76 76 144 c 2
 192 578 l 1
 202 612 206 632 206 641 c 0
 206 663 192 668 127 668 c 2
 105 668 l 1
 113 722 l 1
 486 722 l 1
 479 668 l 1
 472 668 l 2
 430 668 406 664 396 654 c 1
 387 647 387 647 369 578 c 1
 253 144 l 1
 239 89 239 89 239 81 c 0
 239 59 253 54 318 54 c 2
 340 54 l 1
 332 0 l 1
137 774 m 1
 294 950 l 1
 395 950 l 1
 479 774 l 1
 420 774 l 1
 330 862 l 1
 204 774 l 1
 137 774 l 1
EndSplineSet
Ligature: 0 0 'liga' I uni0302
EndChar
StartChar: Idotaccent
Encoding: 280 304 174
Width: 444
Flags: W
HStem: 0 54<-35 332> 668 54<112 152 113 479> 790 143<319 344>
VStem: 260 143<850.12 865>
DStem: 192 578 369 578 76 144 253 144
Fore
332 0 m 1
 -41 0 l 1
 -34 54 l 1
 -27 54 l 2
 15 54 39 58 49 68 c 0
 58 76 58 76 76 144 c 2
 192 578 l 1
 202 612 206 632 206 641 c 0
 206 663 192 668 127 668 c 2
 105 668 l 1
 113 722 l 1
 486 722 l 1
 479 668 l 1
 472 668 l 2
 430 668 406 664 396 654 c 1
 387 647 387 647 369 578 c 1
 253 144 l 1
 239 89 239 89 239 81 c 0
 239 59 253 54 318 54 c 2
 340 54 l 1
 332 0 l 1
332 933 m 0
 371 933 403 901 403 862 c 0
 403 822 371 790 331 790 c 0
 292 790 260 823 260 862 c 0
 260 901 292 933 332 933 c 0
EndSplineSet
Ligature: 0 0 'liga' I uni0307
EndChar
StartChar: Lacute
Encoding: 281 313 175
Width: 704
Flags: W
HStem: 0 54<-35 602> 668 54<112 152 113 487>
DStem: 190 578 366 578 73 144 250 144
Fore
618 266 m 1
 670 255 l 1
 602 0 l 1
 -41 0 l 1
 -34 54 l 1
 -30 54 l 2
 12 54 36 58 47 68 c 0
 55 76 55 76 73 144 c 1
 190 578 l 1
 199 613 203 632 203 641 c 0
 203 663 189 668 124 668 c 2
 105 668 l 1
 113 722 l 1
 495 722 l 1
 487 668 l 1
 469 668 l 2
 427 668 403 664 393 654 c 0
 384 646 384 646 366 578 c 2
 250 144 l 1
 240 109 236 89 236 80 c 0
 236 60 249 54 289 54 c 2
 325 54 l 2
 405 54 463 79 528 141 c 0
 570 180 596 217 618 266 c 1
309 774 m 1
 433 913 l 2
 466 949 479 958 503 958 c 0
 533 958 557 935 557 906 c 0
 557 888 547 872 529 862 c 2
 363 774 l 1
 309 774 l 1
EndSplineSet
Ligature: 0 0 'liga' L acutecomb
EndChar
StartChar: Lcaron
Encoding: 282 317 176
Width: 704
Flags: W
HStem: 0 54<-35 602> 668 54<112 152 113 487>
VStem: 605 179<618 640>
DStem: 190 578 366 578 73 144 250 144
Fore
618 266 m 1
 670 255 l 1
 602 0 l 1
 -41 0 l 1
 -34 54 l 1
 -30 54 l 2
 12 54 36 58 47 68 c 0
 55 76 55 76 73 144 c 1
 190 578 l 1
 199 613 203 632 203 641 c 0
 203 663 189 668 124 668 c 2
 105 668 l 1
 113 722 l 1
 495 722 l 1
 487 668 l 1
 469 668 l 2
 427 668 403 664 393 654 c 0
 384 646 384 646 366 578 c 2
 250 144 l 1
 240 109 236 89 236 80 c 0
 236 60 249 54 289 54 c 2
 325 54 l 2
 405 54 463 79 528 141 c 0
 570 180 596 217 618 266 c 1
595 411 m 1
 576 448 l 1
 659 485 699 526 699 572 c 1
 689 570 683 569 675 569 c 0
 631 569 605 595 605 640 c 0
 605 688 640 722 690 722 c 0
 746 722 784 680 784 618 c 0
 784 531 718 459 595 411 c 1
EndSplineSet
Ligature: 0 0 'liga' L uni030C
EndChar
StartChar: Nacute
Encoding: 283 323 177
Width: 852
Flags: W
HStem: 0 54<202 227> 668 54<95 160 635 651.657 635 905>
DStem: 204 636 248 552 91 217 158 217 248 552 350 722 544 -14 618 215 696 505 763 505 618 215 624 -14
Fore
350 722 m 1
 618 215 l 1
 696 505 l 1
 717 585 718 591 718 613 c 0
 718 650 688 668 628 668 c 1
 635 722 l 1
 912 722 l 1
 905 668 l 1
 871 668 844 659 824 641 c 0
 796 614 794 611 763 505 c 1
 624 -14 l 1
 544 -14 l 1
 248 552 l 1
 158 217 l 1
 138 137 137 130 137 109 c 0
 137 72 166 54 224 54 c 2
 235 54 l 1
 227 0 l 1
 -57 0 l 1
 -50 54 l 1
 -16 55 11 64 31 81 c 0
 59 107 61 113 91 217 c 1
 204 636 l 1
 192 659 176 668 145 668 c 2
 89 668 l 1
 96 722 l 1
 350 722 l 1
463 774 m 1
 587 913 l 2
 620 949 633 958 657 958 c 0
 687 958 711 935 711 906 c 0
 711 888 701 872 683 862 c 2
 517 774 l 1
 463 774 l 1
EndSplineSet
Ligature: 0 0 'liga' N acutecomb
EndChar
StartChar: Ncaron
Encoding: 284 327 178
Width: 852
Flags: W
HStem: 0 54<202 227> 668 54<95 160 635 651.657 635 905>
DStem: 204 636 248 552 91 217 158 217 248 552 350 722 544 -14 618 215 696 505 763 505 618 215 624 -14
Fore
350 722 m 1
 618 215 l 1
 696 505 l 1
 717 585 718 591 718 613 c 0
 718 650 688 668 628 668 c 1
 635 722 l 1
 912 722 l 1
 905 668 l 1
 871 668 844 659 824 641 c 0
 796 614 794 611 763 505 c 1
 624 -14 l 1
 544 -14 l 1
 248 552 l 1
 158 217 l 1
 138 137 137 130 137 109 c 0
 137 72 166 54 224 54 c 2
 235 54 l 1
 227 0 l 1
 -57 0 l 1
 -50 54 l 1
 -16 55 11 64 31 81 c 0
 59 107 61 113 91 217 c 1
 204 636 l 1
 192 659 176 668 145 668 c 2
 89 668 l 1
 96 722 l 1
 350 722 l 1
743 950 m 1
 586 774 l 1
 484 774 l 1
 400 950 l 1
 459 950 l 1
 549 862 l 1
 675 950 l 1
 743 950 l 1
EndSplineSet
Ligature: 0 0 'liga' N uni030C
EndChar
StartChar: Ntilde
Encoding: 285 209 179
Width: 852
Flags: W
HStem: 0 54<202 227> 668 54<95 160 635 651.657 635 905> 796 86<586 613> 838 84<429 464>
DStem: 204 636 248 552 91 217 158 217 248 552 350 722 544 -14 618 215 696 505 763 505 618 215 624 -14
Fore
350 722 m 1xc0
 618 215 l 1
 696 505 l 1
 717 585 718 591 718 613 c 0
 718 650 688 668 628 668 c 1
 635 722 l 1
 912 722 l 1
 905 668 l 1
 871 668 844 659 824 641 c 0
 796 614 794 611 763 505 c 1
 624 -14 l 1
 544 -14 l 1
 248 552 l 1
 158 217 l 1
 138 137 137 130 137 109 c 0
 137 72 166 54 224 54 c 2
 235 54 l 1
 227 0 l 1
 -57 0 l 1
 -50 54 l 1
 -16 55 11 64 31 81 c 0
 59 107 61 113 91 217 c 1
 204 636 l 1
 192 659 176 668 145 668 c 2
 89 668 l 1
 96 722 l 1
 350 722 l 1xc0
663 922 m 1xd0
 710 922 l 1xd0
 707 855 649 796 586 796 c 0xe0
 565 796 540 802 501 817 c 0
 456 835 444 838 429 838 c 0xd0
 407 838 392 823 387 796 c 1
 340 796 l 1xe0
 345 869 398 922 464 922 c 0xd0
 484 922 510 916 543 903 c 0
 591 884 598 882 613 882 c 0xe0
 638 882 655 896 663 922 c 1xd0
EndSplineSet
Ligature: 0 0 'liga' N tildecomb
EndChar
StartChar: Odieresis
Encoding: 286 214 180
Width: 833
Flags: W
HStem: -15 54<342 357> 683 54<475 501> 790 143<403 408 611 629>
VStem: 36 179<193 286> 334 143<850.12 865> 549 143<850.12 865> 613 184<441 520>
Fore
490 737 m 0xfa
 582 737 655 708 714 646 c 0
 769 590 797 520 797 441 c 0
 797 193 589 -15 342 -15 c 0
 157 -15 36 104 36 286 c 0
 36 406 88 526 176 610 c 0
 267 696 368 737 490 737 c 0xfa
487 683 m 0
 412 683 352 633 300 528 c 0
 251 428 215 287 215 193 c 0
 215 98 264 39 342 39 c 0
 415 39 477 90 533 196 c 0
 582 291 613 415 613 520 c 0
 613 568 605 603 586 631 c 0
 566 662 526 683 487 683 c 0
406 933 m 0
 445 933 477 901 477 862 c 0
 477 822 445 790 405 790 c 0
 366 790 334 823 334 862 c 0
 334 901 366 933 406 933 c 0
621 933 m 0
 660 933 692 901 692 862 c 0
 692 822 660 790 620 790 c 0
 581 790 549 823 549 862 c 0xfc
 549 901 581 933 621 933 c 0
EndSplineSet
KernsSLIF: 89 -26 0 0 88 -45 0 0 87 -35 0 0 86 -38 0 0 84 -4 0 0 65 -49 0 0
Ligature: 0 0 'liga' O uni0308
EndChar
StartChar: Oacute
Encoding: 287 211 181
Width: 833
Flags: W
HStem: -15 54<324.757 357> 683 54<468.793 501>
VStem: 36 179<193 286> 613 184<441 520>
Fore
490 737 m 0
 582 737 655 708 714 646 c 0
 769 590 797 520 797 441 c 0
 797 193 589 -15 342 -15 c 0
 157 -15 36 104 36 286 c 0
 36 406 88 526 176 610 c 0
 267 696 368 737 490 737 c 0
487 683 m 0
 412 683 352 633 300 528 c 0
 251 428 215 287 215 193 c 0
 215 98 264 39 342 39 c 0
 415 39 477 90 533 196 c 0
 582 291 613 415 613 520 c 0
 613 568 605 603 586 631 c 0
 566 662 526 683 487 683 c 0
433 774 m 1
 557 913 l 2
 590 949 603 958 627 958 c 0
 657 958 681 935 681 906 c 0
 681 888 671 872 653 862 c 2
 487 774 l 1
 433 774 l 1
EndSplineSet
KernsSLIF: 89 -26 0 0 87 -35 0 0 86 -38 0 0 84 -4 0 0 65 -49 0 0
Ligature: 0 0 'liga' O acutecomb
EndChar
StartChar: Ograve
Encoding: 288 210 182
Width: 833
Flags: W
HStem: -15 54<324.757 357> 683 54<468 501>
VStem: 36 179<193 286> 613 184<441 520>
Fore
490 737 m 0
 582 737 655 708 714 646 c 0
 769 590 797 520 797 441 c 0
 797 193 589 -15 342 -15 c 0
 157 -15 36 104 36 286 c 0
 36 406 88 526 176 610 c 0
 267 696 368 737 490 737 c 0
487 683 m 0
 412 683 352 633 300 528 c 0
 251 428 215 287 215 193 c 0
 215 98 264 39 342 39 c 0
 415 39 477 90 533 196 c 0
 582 291 613 415 613 520 c 0
 613 568 605 603 586 631 c 0
 566 662 526 683 487 683 c 0
571 774 m 1
 522 774 l 1
 381 863 l 2
 361 875 351 891 351 909 c 0
 351 937 373 958 404 958 c 0
 431 958 445 949 469 916 c 2
 571 774 l 1
EndSplineSet
KernsSLIF: 89 -26 0 0 86 -38 0 0 84 -4 0 0
Ligature: 0 0 'liga' O gravecomb
EndChar
StartChar: Ocircumflex
Encoding: 289 212 183
Width: 833
Flags: W
HStem: -15 54<324.757 357> 683 54<478 501>
VStem: 36 179<193 286> 613 184<441 520>
Fore
490 737 m 0
 582 737 655 708 714 646 c 0
 769 590 797 520 797 441 c 0
 797 193 589 -15 342 -15 c 0
 157 -15 36 104 36 286 c 0
 36 406 88 526 176 610 c 0
 267 696 368 737 490 737 c 0
487 683 m 0
 412 683 352 633 300 528 c 0
 251 428 215 287 215 193 c 0
 215 98 264 39 342 39 c 0
 415 39 477 90 533 196 c 0
 582 291 613 415 613 520 c 0
 613 568 605 603 586 631 c 0
 566 662 526 683 487 683 c 0
323 774 m 1
 480 950 l 1
 581 950 l 1
 665 774 l 1
 606 774 l 1
 516 862 l 1
 390 774 l 1
 323 774 l 1
EndSplineSet
KernsSLIF: 89 -26 0 0 86 -38 0 0 84 -4 0 0
Ligature: 0 0 'liga' O uni0302
EndChar
StartChar: Otilde
Encoding: 290 213 184
Width: 833
Flags: W
HStem: -15 54<342 357> 683 54<468.793 501> 796 86<577 604> 838 84<420 455>
VStem: 36 179<193 286> 613 184<441 520>
Fore
490 737 m 0xcc
 582 737 655 708 714 646 c 0
 769 590 797 520 797 441 c 0
 797 193 589 -15 342 -15 c 0
 157 -15 36 104 36 286 c 0
 36 406 88 526 176 610 c 0
 267 696 368 737 490 737 c 0xcc
487 683 m 0
 412 683 352 633 300 528 c 0
 251 428 215 287 215 193 c 0
 215 98 264 39 342 39 c 0
 415 39 477 90 533 196 c 0
 582 291 613 415 613 520 c 0
 613 568 605 603 586 631 c 0
 566 662 526 683 487 683 c 0
654 922 m 1xdc
 701 922 l 1xdc
 698 855 640 796 577 796 c 0xec
 556 796 531 802 492 817 c 0
 447 835 435 838 420 838 c 0xdc
 398 838 383 823 378 796 c 1
 331 796 l 1xec
 336 869 389 922 455 922 c 0xdc
 475 922 501 916 534 903 c 0
 582 884 589 882 604 882 c 0xec
 629 882 646 896 654 922 c 1xdc
EndSplineSet
KernsSLIF: 89 -26 0 0 86 -38 0 0 84 -4 0 0
Ligature: 0 0 'liga' O tildecomb
EndChar
StartChar: Ohungarumlaut
Encoding: 291 336 185
Width: 833
Flags: W
HStem: -15 54<342 357> 683 54<468 501>
VStem: 36 179<193 286> 613 184<441 520>
Fore
490 737 m 0
 582 737 655 708 714 646 c 0
 769 590 797 520 797 441 c 0
 797 193 589 -15 342 -15 c 0
 157 -15 36 104 36 286 c 0
 36 406 88 526 176 610 c 0
 267 696 368 737 490 737 c 0
487 683 m 0
 412 683 352 633 300 528 c 0
 251 428 215 287 215 193 c 0
 215 98 264 39 342 39 c 0
 415 39 477 90 533 196 c 0
 582 291 613 415 613 520 c 0
 613 568 605 603 586 631 c 0
 566 662 526 683 487 683 c 0
273 774 m 1
 397 913 l 2
 430 949 443 958 467 958 c 0
 497 958 521 935 521 906 c 0
 521 888 511 872 493 862 c 2
 327 774 l 1
 273 774 l 1
474 774 m 1
 598 913 l 2
 631 949 644 958 668 958 c 0
 698 958 722 935 722 906 c 0
 722 888 712 872 694 862 c 2
 528 774 l 1
 474 774 l 1
EndSplineSet
Ligature: 0 0 'liga' O uni030B
EndChar
StartChar: Racute
Encoding: 292 340 186
Width: 796
Flags: W
HStem: 0 54<-35 333> 668 54<111 152 112 479>
VStem: 424 179<112 149> 567 184<553 572>
DStem: 189 578 380 630 73 144 319 404 189 578 304 350 73 144 249 144
Fore
304 350 m 1xe0
 249 144 l 1
 241 112 236 90 236 81 c 0
 236 59 250 54 315 54 c 2
 341 54 l 1
 333 0 l 1
 -41 0 l 1
 -34 54 l 1
 -30 54 l 2
 12 54 36 58 46 68 c 0
 55 76 55 76 73 144 c 2
 189 578 l 1
 200 618 203 632 203 641 c 0
 203 663 189 668 124 668 c 2
 105 668 l 1
 112 722 l 1
 459 722 l 2
 557 722 623 712 671 690 c 0
 719 668 751 615 751 555 c 0xd0
 751 441 653 374 464 359 c 1
 515 345 538 331 564 304 c 0
 592 273 603 239 603 181 c 2
 603 147 l 2xe0
 603 81 603 81 610 72 c 0
 615 65 621 61 628 61 c 0
 646 61 668 82 682 114 c 0
 687 125 690 132 699 157 c 1
 742 136 l 1
 708 33 652 -15 567 -15 c 0xd0
 483 -15 424 44 424 127 c 0
 424 148 427 179 431 211 c 0
 434 232 436 254 436 269 c 0
 436 324 403 350 334 350 c 2
 304 350 l 1xe0
319 404 m 1
 353 404 l 2
 443 404 469 409 502 435 c 1
 542 464 567 517 567 570 c 0
 567 633 529 668 459 668 c 2
 434 668 l 2
 398 668 388 661 380 630 c 1
 319 404 l 1
355 774 m 1
 479 913 l 2
 512 949 525 958 549 958 c 0
 579 958 603 935 603 906 c 0xe0
 603 888 593 872 575 862 c 2
 409 774 l 1
 355 774 l 1
EndSplineSet
Ligature: 0 0 'liga' R acutecomb
EndChar
StartChar: Rcaron
Encoding: 293 344 187
Width: 796
Flags: W
HStem: 0 54<-35 333> 668 54<111 152 112 478>
VStem: 424 179<112 149> 567 184<553 572>
DStem: 189 578 380 630 73 144 319 404 189 578 304 350 73 144 249 144
Fore
304 350 m 1xe0
 249 144 l 1
 241 112 236 90 236 81 c 0
 236 59 250 54 315 54 c 2
 341 54 l 1
 333 0 l 1
 -41 0 l 1
 -34 54 l 1
 -30 54 l 2
 12 54 36 58 46 68 c 0
 55 76 55 76 73 144 c 2
 189 578 l 1
 200 618 203 632 203 641 c 0
 203 663 189 668 124 668 c 2
 105 668 l 1
 112 722 l 1
 459 722 l 2
 557 722 623 712 671 690 c 0
 719 668 751 615 751 555 c 0xd0
 751 441 653 374 464 359 c 1
 515 345 538 331 564 304 c 0
 592 273 603 239 603 181 c 2
 603 147 l 2xe0
 603 81 603 81 610 72 c 0
 615 65 621 61 628 61 c 0
 646 61 668 82 682 114 c 0
 687 125 690 132 699 157 c 1
 742 136 l 1
 708 33 652 -15 567 -15 c 0xd0
 483 -15 424 44 424 127 c 0
 424 148 427 179 431 211 c 0
 434 232 436 254 436 269 c 0
 436 324 403 350 334 350 c 2
 304 350 l 1xe0
319 404 m 1
 353 404 l 2
 443 404 469 409 502 435 c 1
 542 464 567 517 567 570 c 0
 567 633 529 668 459 668 c 2
 434 668 l 2
 398 668 388 661 380 630 c 1
 319 404 l 1
635 950 m 1
 478 774 l 1
 376 774 l 1
 292 950 l 1
 351 950 l 1
 441 862 l 1
 567 950 l 1
 635 950 l 1
EndSplineSet
Ligature: 0 0 'liga' R uni030C
EndChar
StartChar: Sacute
Encoding: 294 346 188
Width: 685
Flags: W
HStem: -15 54<297 338> 683 54<366 386>
VStem: 102 135<495 575> 474 138<152 224>
Fore
666 715 m 1
 622 452 l 1
 570 461 l 1
 568 517 561 551 545 584 c 0
 513 647 453 683 380 683 c 0
 294 683 237 640 237 575 c 0
 237 548 248 521 269 503 c 1
 282 490 308 478 349 464 c 0
 423 440 485 414 522 392 c 0
 580 359 612 299 612 224 c 0
 612 83 493 -15 320 -15 c 0
 230 -15 169 8 103 65 c 1
 45 0 l 1
 1 0 l 1
 51 283 l 1
 103 275 l 1
 103 260 l 2
 103 126 187 39 317 39 c 0
 411 39 474 85 474 152 c 0
 474 211 438 239 303 285 c 0
 219 313 189 329 158 359 c 0
 121 394 102 441 102 495 c 0
 102 633 216 737 368 737 c 0
 447 737 507 714 568 661 c 1
 621 715 l 1
 666 715 l 1
299 774 m 1
 423 913 l 2
 456 949 469 958 493 958 c 0
 523 958 547 935 547 906 c 0
 547 888 537 872 519 862 c 2
 353 774 l 1
 299 774 l 1
EndSplineSet
Ligature: 0 0 'liga' S acutecomb
EndChar
StartChar: Scaron
Encoding: 295 352 189
Width: 685
Flags: W
HStem: -15 54<301 338> 683 54<366 386>
VStem: 102 135<495 575> 474 138<152 224>
Fore
666 715 m 1
 622 452 l 1
 570 461 l 1
 568 517 561 551 545 584 c 0
 513 647 453 683 380 683 c 0
 294 683 237 640 237 575 c 0
 237 548 248 521 269 503 c 1
 282 490 308 478 349 464 c 0
 423 440 485 414 522 392 c 0
 580 359 612 299 612 224 c 0
 612 83 493 -15 320 -15 c 0
 230 -15 169 8 103 65 c 1
 45 0 l 1
 1 0 l 1
 51 283 l 1
 103 275 l 1
 103 260 l 2
 103 126 187 39 317 39 c 0
 411 39 474 85 474 152 c 0
 474 211 438 239 303 285 c 0
 219 313 189 329 158 359 c 0
 121 394 102 441 102 495 c 0
 102 633 216 737 368 737 c 0
 447 737 507 714 568 661 c 1
 621 715 l 1
 666 715 l 1
606 950 m 1
 449 774 l 1
 347 774 l 1
 263 950 l 1
 322 950 l 1
 412 862 l 1
 538 950 l 1
 606 950 l 1
EndSplineSet
Ligature: 0 0 'liga' S uni030C
EndChar
StartChar: Scedilla
Encoding: 296 350 190
Width: 685
Flags: W
HStem: -222 45<224 245> -104 45<236 291> -15 54<295 338> 683 54<366 386>
VStem: 102 135<495 575> 279 101<-143 -132> 474 138<152 223>
DStem: 253 -10 295 -14 191 -91 260 -62
Fore
666 715 m 1
 622 452 l 1
 570 461 l 1
 568 517 561 551 545 584 c 0
 513 647 453 683 380 683 c 0
 294 683 237 640 237 575 c 0
 237 547 248 521 269 503 c 1
 282 490 308 478 349 464 c 0
 422 440 485 414 522 392 c 0
 580 359 612 299 612 223 c 0
 612 82 493 -15 320 -15 c 0
 315 -15 307 -15 295 -14 c 1
 260 -62 l 1
 273 -60 286 -59 291 -59 c 0
 343 -59 380 -90 380 -134 c 0
 380 -186 325 -222 245 -222 c 0
 202 -222 162 -212 136 -193 c 1
 158 -158 l 1
 189 -172 208 -177 229 -177 c 0
 259 -177 279 -162 279 -139 c 0
 279 -119 261 -104 236 -104 c 0
 229 -104 223 -105 207 -108 c 1
 191 -91 l 1
 253 -10 l 1
 198 -1 149 23 103 65 c 1
 45 0 l 1
 1 0 l 1
 51 283 l 1
 103 275 l 1
 103 260 l 2
 103 126 187 39 317 39 c 0
 411 39 474 85 474 152 c 0
 474 211 438 239 303 285 c 0
 219 313 189 329 158 359 c 0
 121 394 102 441 102 495 c 0
 102 633 216 737 368 737 c 0
 447 737 507 714 568 661 c 1
 621 715 l 1
 666 715 l 1
EndSplineSet
Ligature: 0 0 'liga' S uni0327
EndChar
StartChar: Tcaron
Encoding: 297 356 191
Width: 722
Flags: W
HStem: 0 54<72 463> 668 54<115 317 115 557>
DStem: 333 629 507 623 203 144 379 144
Fore
762 722 m 1
 718 439 l 1
 665 444 l 1
 667 467 668 492 668 504 c 0
 668 609 626 668 550 668 c 0
 521 668 519 666 507 623 c 1
 379 144 l 2
 367 100 365 90 365 81 c 0
 365 59 379 54 445 54 c 2
 470 54 l 1
 463 0 l 1
 66 0 l 1
 73 54 l 1
 100 54 l 2
 142 54 166 58 176 68 c 0
 185 76 185 76 203 144 c 2
 333 629 l 1
 336 639 337 648 337 653 c 0
 337 663 327 668 309 668 c 0
 224 668 163 603 94 439 c 1
 44 455 l 1
 115 722 l 1
 762 722 l 1
658 950 m 1
 501 774 l 1
 399 774 l 1
 315 950 l 1
 374 950 l 1
 464 862 l 1
 590 950 l 1
 658 950 l 1
EndSplineSet
Ligature: 0 0 'liga' T uni030C
EndChar
StartChar: Udieresis
Encoding: 298 220 192
Width: 833
Flags: W
HStem: -15 62<371 409> 668 54<101 137 102 470 621 638.394> 790 143<423 441 647 653>
VStem: 88 171<184 198> 364 143<850.12 865> 579 143<850.12 865>
DStem: 179 578 355 578 105 303 274 274 682 506 749 506 615 254 675 227
Fore
95 668 m 1
 102 722 l 1
 478 722 l 1
 470 668 l 1
 458 668 l 2
 416 668 392 664 382 654 c 0
 373 646 373 646 355 578 c 2
 274 274 l 1
 263 234 259 210 259 186 c 0
 259 98 314 47 409 47 c 0
 464 47 506 65 544 106 c 1
 578 140 594 175 615 254 c 2
 682 506 l 2
 703 585 704 592 704 613 c 0
 704 651 675 668 614 668 c 1
 621 722 l 1
 895 722 l 1
 888 668 l 1
 862 669 829 658 810 641 c 0
 782 616 779 609 749 506 c 1
 675 227 l 2
 630 58 537 -15 371 -15 c 0
 301 -15 243 -3 200 19 c 0
 135 54 88 127 88 196 c 0
 88 224 94 261 105 303 c 2
 179 578 l 1
 191 624 193 632 193 641 c 0
 193 663 179 668 113 668 c 2
 95 668 l 1
436 933 m 0
 475 933 507 901 507 862 c 0
 507 822 475 790 435 790 c 0
 396 790 364 823 364 862 c 0
 364 901 396 933 436 933 c 0
651 933 m 0
 690 933 722 901 722 862 c 0
 722 822 690 790 650 790 c 0
 611 790 579 823 579 862 c 0
 579 901 611 933 651 933 c 0
EndSplineSet
KernsSLIF: 114 -36 0 0 46 -36 0 0 112 -37 0 0 110 -35 0 0 109 -39 0 0 44 -23 0 0 98 18 0 0 65 -51 0 0
Ligature: 0 0 'liga' U uni0308
EndChar
StartChar: Uacute
Encoding: 299 218 193
Width: 833
Flags: W
HStem: -15 62<371 409> 668 54<101 137 102 470 621 638.394>
VStem: 88 171<184 198>
DStem: 179 578 355 578 105 303 274 274 682 506 749 506 615 254 675 227
Fore
95 668 m 1
 102 722 l 1
 478 722 l 1
 470 668 l 1
 458 668 l 2
 416 668 392 664 382 654 c 0
 373 646 373 646 355 578 c 2
 274 274 l 1
 263 234 259 210 259 186 c 0
 259 98 314 47 409 47 c 0
 464 47 506 65 544 106 c 1
 578 140 594 175 615 254 c 2
 682 506 l 2
 703 585 704 592 704 613 c 0
 704 651 675 668 614 668 c 1
 621 722 l 1
 895 722 l 1
 888 668 l 1
 862 669 829 658 810 641 c 0
 782 616 779 609 749 506 c 1
 675 227 l 2
 630 58 537 -15 371 -15 c 0
 301 -15 243 -3 200 19 c 0
 135 54 88 127 88 196 c 0
 88 224 94 261 105 303 c 2
 179 578 l 1
 191 624 193 632 193 641 c 0
 193 663 179 668 113 668 c 2
 95 668 l 1
466 774 m 1
 590 913 l 2
 623 949 636 958 660 958 c 0
 690 958 714 935 714 906 c 0
 714 888 704 872 686 862 c 2
 520 774 l 1
 466 774 l 1
EndSplineSet
KernsSLIF: 114 -36 0 0 46 -36 0 0 112 -37 0 0 110 -35 0 0 109 -39 0 0 44 -23 0 0 65 -51 0 0
Ligature: 0 0 'liga' U acutecomb
EndChar
StartChar: Ugrave
Encoding: 300 217 194
Width: 833
Flags: W
HStem: -15 62<371 409> 668 54<101 137 102 470 621 638.394>
VStem: 88 171<184 198>
DStem: 179 578 355 578 105 303 274 274 682 506 749 506 615 254 675 227
Fore
95 668 m 1
 102 722 l 1
 478 722 l 1
 470 668 l 1
 458 668 l 2
 416 668 392 664 382 654 c 0
 373 646 373 646 355 578 c 2
 274 274 l 1
 263 234 259 210 259 186 c 0
 259 98 314 47 409 47 c 0
 464 47 506 65 544 106 c 1
 578 140 594 175 615 254 c 2
 682 506 l 2
 703 585 704 592 704 613 c 0
 704 651 675 668 614 668 c 1
 621 722 l 1
 895 722 l 1
 888 668 l 1
 862 669 829 658 810 641 c 0
 782 616 779 609 749 506 c 1
 675 227 l 2
 630 58 537 -15 371 -15 c 0
 301 -15 243 -3 200 19 c 0
 135 54 88 127 88 196 c 0
 88 224 94 261 105 303 c 2
 179 578 l 1
 191 624 193 632 193 641 c 0
 193 663 179 668 113 668 c 2
 95 668 l 1
604 774 m 1
 555 774 l 1
 414 863 l 2
 394 875 384 891 384 909 c 0
 384 937 406 958 437 958 c 0
 464 958 478 949 502 916 c 2
 604 774 l 1
EndSplineSet
KernsSLIF: 65 -51 0 0
Ligature: 0 0 'liga' U gravecomb
EndChar
StartChar: Ucircumflex
Encoding: 301 219 195
Width: 833
Flags: W
HStem: -15 62<371 409> 668 54<101 137 102 470 621 638.394>
VStem: 88 171<184 198>
DStem: 179 578 355 578 105 303 274 274 682 506 749 506 615 254 675 227
Fore
95 668 m 1
 102 722 l 1
 478 722 l 1
 470 668 l 1
 458 668 l 2
 416 668 392 664 382 654 c 0
 373 646 373 646 355 578 c 2
 274 274 l 1
 263 234 259 210 259 186 c 0
 259 98 314 47 409 47 c 0
 464 47 506 65 544 106 c 1
 578 140 594 175 615 254 c 2
 682 506 l 2
 703 585 704 592 704 613 c 0
 704 651 675 668 614 668 c 1
 621 722 l 1
 895 722 l 1
 888 668 l 1
 862 669 829 658 810 641 c 0
 782 616 779 609 749 506 c 1
 675 227 l 2
 630 58 537 -15 371 -15 c 0
 301 -15 243 -3 200 19 c 0
 135 54 88 127 88 196 c 0
 88 224 94 261 105 303 c 2
 179 578 l 1
 191 624 193 632 193 641 c 0
 193 663 179 668 113 668 c 2
 95 668 l 1
366 774 m 1
 523 950 l 1
 624 950 l 1
 708 774 l 1
 649 774 l 1
 559 862 l 1
 433 774 l 1
 366 774 l 1
EndSplineSet
KernsSLIF: 65 -51 0 0
Ligature: 0 0 'liga' U uni0302
EndChar
StartChar: Uring
Encoding: 302 366 196
Width: 833
Flags: W
HStem: -15 62<371 409> 668 54<101 137 102 471 621 638.394> 783 54<567 585> 944 54<575 585>
VStem: 88 171<184 198> 467 54<880 898> 628 54<891 898>
DStem: 179 578 355 578 105 303 274 274 682 506 749 506 615 254 675 227
Fore
95 668 m 1
 102 722 l 1
 478 722 l 1
 470 668 l 1
 458 668 l 2
 416 668 392 664 382 654 c 0
 373 646 373 646 355 578 c 2
 274 274 l 1
 263 234 259 210 259 186 c 0
 259 98 314 47 409 47 c 0
 464 47 506 65 544 106 c 1
 578 140 594 175 615 254 c 2
 682 506 l 2
 703 585 704 592 704 613 c 0
 704 651 675 668 614 668 c 1
 621 722 l 1
 895 722 l 1
 888 668 l 1
 862 669 829 658 810 641 c 0
 782 616 779 609 749 506 c 1
 675 227 l 2
 630 58 537 -15 371 -15 c 0
 301 -15 243 -3 200 19 c 0
 135 54 88 127 88 196 c 0
 88 224 94 261 105 303 c 2
 179 578 l 1
 191 624 193 632 193 641 c 0
 193 663 179 668 113 668 c 2
 95 668 l 1
575 998 m 0
 634 998 682 950 682 891 c 0
 682 831 634 783 573 783 c 0
 516 783 467 832 467 891 c 0
 467 949 516 998 575 998 c 0
575 944 m 0
 545 944 521 920 521 890 c 0
 521 862 545 837 574 837 c 0
 604 837 628 861 628 891 c 0
 628 920 604 944 575 944 c 0
EndSplineSet
Ligature: 0 0 'liga' U uni030A
EndChar
StartChar: Uhungarumlaut
Encoding: 303 368 197
Width: 833
Flags: W
HStem: -15 62<371 409> 668 54<101 137 102 470 621 638.394>
VStem: 88 171<184 198>
DStem: 179 578 355 578 105 303 274 274 682 506 749 506 615 254 675 227
Fore
95 668 m 1
 102 722 l 1
 478 722 l 1
 470 668 l 1
 458 668 l 2
 416 668 392 664 382 654 c 0
 373 646 373 646 355 578 c 2
 274 274 l 1
 263 234 259 210 259 186 c 0
 259 98 314 47 409 47 c 0
 464 47 506 65 544 106 c 1
 578 140 594 175 615 254 c 2
 682 506 l 2
 703 585 704 592 704 613 c 0
 704 651 675 668 614 668 c 1
 621 722 l 1
 895 722 l 1
 888 668 l 1
 862 669 829 658 810 641 c 0
 782 616 779 609 749 506 c 1
 675 227 l 2
 630 58 537 -15 371 -15 c 0
 301 -15 243 -3 200 19 c 0
 135 54 88 127 88 196 c 0
 88 224 94 261 105 303 c 2
 179 578 l 1
 191 624 193 632 193 641 c 0
 193 663 179 668 113 668 c 2
 95 668 l 1
373 774 m 1
 497 913 l 2
 530 949 543 958 567 958 c 0
 597 958 621 935 621 906 c 0
 621 888 611 872 593 862 c 2
 427 774 l 1
 373 774 l 1
574 774 m 1
 698 913 l 2
 731 949 744 958 768 958 c 0
 798 958 822 935 822 906 c 0
 822 888 812 872 794 862 c 2
 628 774 l 1
 574 774 l 1
EndSplineSet
Ligature: 0 0 'liga' U uni030B
EndChar
StartChar: Yacute
Encoding: 304 221 198
Width: 704
Flags: W
HStem: 0 54<74 457> 668 54<21 48 22 381 484 528>
DStem: 123 611 303 610 240 307 394 379 553 589 616 567 394 379 416 307
Fore
394 379 m 1
 553 589 l 2
 564 603 570 619 570 632 c 0
 570 655 549 668 513 668 c 2
 477 668 l 1
 485 722 l 1
 777 722 l 1
 770 668 l 1
 707 666 675 644 616 567 c 2
 416 307 l 1
 373 144 l 2
 362 102 359 90 359 81 c 0
 359 59 373 54 439 54 c 2
 464 54 l 1
 457 0 l 1
 68 0 l 1
 75 54 l 1
 94 54 l 2
 136 54 160 58 170 68 c 0
 179 76 179 76 197 144 c 2
 240 307 l 1
 123 611 l 2
 106 656 87 668 38 668 c 2
 15 668 l 1
 22 722 l 1
 388 722 l 1
 381 668 l 1
 338 668 l 2
 304 668 294 663 294 644 c 0
 294 636 296 627 303 610 c 2
 394 379 l 1
369 774 m 1
 493 913 l 2
 526 949 539 958 563 958 c 0
 593 958 617 935 617 906 c 0
 617 888 607 872 589 862 c 2
 423 774 l 1
 369 774 l 1
EndSplineSet
Ligature: 0 0 'liga' Y acutecomb
EndChar
StartChar: Zacute
Encoding: 305 377 199
Width: 704
Flags: W
HStem: 0 54<197 582> 668 54<134 486>
DStem: 486 668 707 668 -21 54 197 54
Fore
715 722 m 1
 707 668 l 1
 197 54 l 1
 288 54 l 2
 432 54 522 117 601 273 c 1
 652 260 l 1
 582 0 l 1
 -29 0 l 1
 -21 54 l 1
 486 668 l 1
 407 668 l 2
 278 668 196 612 117 468 c 1
 68 478 l 1
 134 722 l 1
 715 722 l 1
375 774 m 1
 499 913 l 2
 532 949 545 958 569 958 c 0
 599 958 623 935 623 906 c 0
 623 888 613 872 595 862 c 2
 429 774 l 1
 375 774 l 1
EndSplineSet
Ligature: 0 0 'liga' Z acutecomb
EndChar
StartChar: Zcaron
Encoding: 306 381 200
Width: 704
Flags: W
HStem: 0 54<197 582> 668 54<134 486>
DStem: 486 668 707 668 -21 54 197 54
Fore
715 722 m 1
 707 668 l 1
 197 54 l 1
 288 54 l 2
 432 54 522 117 601 273 c 1
 652 260 l 1
 582 0 l 1
 -29 0 l 1
 -21 54 l 1
 486 668 l 1
 407 668 l 2
 278 668 196 612 117 468 c 1
 68 478 l 1
 134 722 l 1
 715 722 l 1
632 950 m 1
 475 774 l 1
 373 774 l 1
 289 950 l 1
 348 950 l 1
 438 862 l 1
 564 950 l 1
 632 950 l 1
EndSplineSet
Ligature: 0 0 'liga' Z uni030C
EndChar
StartChar: Zdotaccent
Encoding: 307 379 201
Width: 704
Flags: W
HStem: 0 54<197 582> 668 54<134 486> 790 143<418 424>
VStem: 350 143<850.12 865>
DStem: 486 668 707 668 -21 54 197 54
Fore
715 722 m 1
 707 668 l 1
 197 54 l 1
 288 54 l 2
 432 54 522 117 601 273 c 1
 652 260 l 1
 582 0 l 1
 -29 0 l 1
 -21 54 l 1
 486 668 l 1
 407 668 l 2
 278 668 196 612 117 468 c 1
 68 478 l 1
 134 722 l 1
 715 722 l 1
422 933 m 0
 461 933 493 901 493 862 c 0
 493 822 461 790 421 790 c 0
 382 790 350 823 350 862 c 0
 350 901 382 933 422 933 c 0
EndSplineSet
Ligature: 0 0 'liga' Z uni0307
EndChar
StartChar: Amacron
Encoding: 308 256 202
Width: 741
Flags: W
HStem: 0 54<-69 211 341 709> 220 54<217 417> 716 20G<419 481> 814 80<316 630>
DStem: 419 736 358 515 71 157 217 274 419 736 185 220 71 157 139 139
Fore
481 736 m 1
 612 114 l 2
 622 67 641 54 702 54 c 2
 716 54 l 1
 709 0 l 1
 335 0 l 1
 342 54 l 1
 358 54 l 2
 399 54 410 55 424 62 c 0
 434 66 441 76 441 85 c 0
 441 92 440 103 437 117 c 1
 417 220 l 1
 185 220 l 1
 139 139 l 2
 130 124 125 108 125 96 c 0
 125 67 150 54 206 54 c 2
 219 54 l 1
 211 0 l 1
 -75 0 l 1
 -68 54 l 1
 -62 54 l 2
 -18 54 33 93 71 157 c 2
 419 736 l 1
 481 736 l 1
404 274 m 1
 358 515 l 1
 217 274 l 1
 404 274 l 1
317 894 m 1
 651 894 l 1
 630 814 l 1
 296 814 l 1
 317 894 l 1
EndSplineSet
Ligature: 0 0 'liga' A uni0304
EndChar
StartChar: Tcommaaccent
Encoding: 309 354 203
Width: 722
Flags: W
HStem: -213 153<228 243> 0 54<72 463> 668 54<115 317 115 557>
VStem: 158 179<-164 -142>
DStem: 333 629 507 623 203 144 379 144
Fore
762 722 m 1
 718 439 l 1
 665 444 l 1
 667 467 668 492 668 504 c 0
 668 609 626 668 550 668 c 0
 521 668 519 666 507 623 c 1
 379 144 l 2
 367 100 365 90 365 81 c 0
 365 59 379 54 445 54 c 2
 470 54 l 1
 463 0 l 1
 66 0 l 1
 73 54 l 1
 100 54 l 2
 142 54 166 58 176 68 c 0
 185 76 185 76 203 144 c 2
 333 629 l 1
 336 639 337 648 337 653 c 0
 337 663 327 668 309 668 c 0
 224 668 163 603 94 439 c 1
 44 455 l 1
 115 722 l 1
 762 722 l 1
148 -371 m 1
 129 -334 l 1
 212 -297 252 -256 252 -211 c 1
 242 -212 236 -213 228 -213 c 0
 184 -213 158 -187 158 -142 c 0
 158 -94 193 -60 243 -60 c 0
 299 -60 337 -102 337 -164 c 0
 337 -251 271 -323 148 -371 c 1
EndSplineSet
Ligature: 0 0 'liga' T uni0327
EndChar
StartChar: Ydieresis
Encoding: 310 376 204
Width: 704
Flags: W
HStem: 0 54<74 457> 668 54<21 48 22 381 484 528> 790 143<318 340 540 555>
VStem: 256 143<850.12 865> 471 143<850.12 865>
DStem: 123 611 303 610 240 307 394 379 553 589 616 567 394 379 416 307
Fore
394 379 m 1
 553 589 l 2
 564 603 570 619 570 632 c 0
 570 655 549 668 513 668 c 2
 477 668 l 1
 485 722 l 1
 777 722 l 1
 770 668 l 1
 707 666 675 644 616 567 c 2
 416 307 l 1
 373 144 l 2
 362 102 359 90 359 81 c 0
 359 59 373 54 439 54 c 2
 464 54 l 1
 457 0 l 1
 68 0 l 1
 75 54 l 1
 94 54 l 2
 136 54 160 58 170 68 c 0
 179 76 179 76 197 144 c 2
 240 307 l 1
 123 611 l 2
 106 656 87 668 38 668 c 2
 15 668 l 1
 22 722 l 1
 388 722 l 1
 381 668 l 1
 338 668 l 2
 304 668 294 663 294 644 c 0
 294 636 296 627 303 610 c 2
 394 379 l 1
328 933 m 0
 367 933 399 901 399 862 c 0
 399 822 367 790 327 790 c 0
 288 790 256 823 256 862 c 0
 256 901 288 933 328 933 c 0
543 933 m 0
 582 933 614 901 614 862 c 0
 614 822 582 790 542 790 c 0
 503 790 471 823 471 862 c 0
 471 901 503 933 543 933 c 0
EndSplineSet
Ligature: 0 0 'liga' Y uni0308
EndChar
StartChar: Emacron
Encoding: 311 274 205
Width: 741
Flags: W
HStem: 0 54<-35 602> 477 245<113 688> 668 54<112 152 113 488> 814 80<296 610>
DStem: 190 578 377 620 73 144 318 401 190 578 304 347 73 144 241 111
Fore
728 722 m 1xb0
 688 477 l 1
 636 477 l 1xd0
 635 540 629 577 615 604 c 0
 595 646 548 668 478 668 c 2
 440 668 l 2
 399 668 388 659 377 620 c 1
 318 401 l 1
 339 401 l 2
 426 401 471 434 505 523 c 1
 558 516 l 1
 468 181 l 1
 415 188 l 1
 419 218 420 232 420 250 c 0
 420 315 389 347 326 347 c 2
 304 347 l 1
 241 111 l 1
 237 98 235 85 235 79 c 0
 235 61 251 54 289 54 c 2
 325 54 l 2
 405 54 463 79 528 141 c 0
 566 177 593 213 616 259 c 1
 668 248 l 1
 602 0 l 1
 -41 0 l 1
 -34 54 l 1
 -30 54 l 2
 39 54 51 60 62 102 c 2
 73 144 l 1
 190 578 l 1
 199 613 203 632 203 641 c 0
 203 663 189 668 124 668 c 2
 105 668 l 1xb0
 113 722 l 1xd0
 728 722 l 1xb0
297 894 m 1
 631 894 l 1
 610 814 l 1
 276 814 l 1
 297 894 l 1
EndSplineSet
Ligature: 0 0 'liga' E uni0304
EndChar
StartChar: Imacron
Encoding: 312 298 206
Width: 444
Flags: W
HStem: 0 54<-35 332> 668 54<112 151 113 479> 814 80<169 483>
DStem: 192 578 369 578 76 144 253 144
Fore
332 0 m 1
 -41 0 l 1
 -34 54 l 1
 -27 54 l 2
 15 54 39 58 49 68 c 0
 58 76 58 76 76 144 c 2
 192 578 l 1
 202 612 206 632 206 641 c 0
 206 663 192 668 127 668 c 2
 105 668 l 1
 113 722 l 1
 486 722 l 1
 479 668 l 1
 472 668 l 2
 430 668 406 664 396 654 c 1
 387 647 387 647 369 578 c 1
 253 144 l 1
 239 89 239 89 239 81 c 0
 239 59 253 54 318 54 c 2
 340 54 l 1
 332 0 l 1
170 894 m 1
 504 894 l 1
 483 814 l 1
 149 814 l 1
 170 894 l 1
EndSplineSet
Ligature: 0 0 'liga' I uni0304
EndChar
StartChar: Iogonek
Encoding: 313 302 207
Width: 444
Flags: W
HStem: -173 75<298 330> 0 54<-35 265> 668 54<112 152 113 479>
VStem: 221 79<-91 -62>
DStem: 192 578 369 578 76 144 253 144
Fore
486 722 m 1
 479 668 l 1
 472 668 l 2
 430 668 406 664 396 654 c 1
 387 647 387 647 369 578 c 1
 253 144 l 1
 239 89 239 89 239 81 c 0
 239 59 253 54 318 54 c 2
 340 54 l 1
 332 0 l 1
 309 -22 300 -39 300 -62 c 0
 300 -84 312 -98 330 -98 c 0
 345 -98 359 -92 380 -75 c 1
 398 -106 l 1
 368 -150 335 -173 298 -173 c 0
 253 -173 221 -138 221 -91 c 0
 221 -56 235 -27 265 0 c 1
 -41 0 l 1
 -34 54 l 1
 -27 54 l 2
 15 54 39 58 49 68 c 0
 58 76 58 76 76 144 c 2
 192 578 l 1
 202 612 206 632 206 641 c 0
 206 663 192 668 127 668 c 2
 105 668 l 1
 113 722 l 1
 486 722 l 1
EndSplineSet
Ligature: 0 0 'liga' I uni0328
EndChar
StartChar: Kcommaaccent
Encoding: 314 310 208
Width: 778
Flags: W
HStem: -213 153<296 311> 0 54<-35 318 381 749> 668 54<112 152 113 481 532 574>
VStem: 226 179<-164 -142>
DStem: 189 578 366 578 74 145 305 353 360 320 491 437 462 107 634 129 572 601 653 587 305 353 491 437
Fore
305 353 m 1
 572 601 l 2
 593 621 602 633 602 643 c 0
 602 659 587 668 561 668 c 2
 526 668 l 1
 533 722 l 1
 832 722 l 1
 825 668 l 1
 755 664 712 644 653 587 c 1
 491 437 l 1
 634 129 l 2
 666 59 673 54 742 54 c 2
 757 54 l 1
 749 0 l 1
 375 0 l 1
 382 54 l 1
 413 54 l 2
 459 54 473 59 473 76 c 0
 473 84 473 84 462 107 c 2
 360 320 l 1
 276 243 l 1
 250 144 l 1
 240 110 236 90 236 81 c 0
 236 59 250 54 315 54 c 2
 326 54 l 1
 318 0 l 1
 -41 0 l 1
 -34 54 l 1
 -30 54 l 2
 12 54 36 59 47 68 c 0
 55 76 55 76 74 145 c 1
 189 578 l 1
 199 613 203 632 203 641 c 0
 203 663 189 668 124 668 c 2
 105 668 l 1
 113 722 l 1
 488 722 l 1
 481 668 l 1
 469 668 l 2
 427 668 403 664 393 654 c 0
 384 646 384 646 366 578 c 1
 305 353 l 1
216 -371 m 1
 197 -334 l 1
 280 -297 320 -256 320 -211 c 1
 310 -212 304 -213 296 -213 c 0
 252 -213 226 -187 226 -142 c 0
 226 -94 261 -60 311 -60 c 0
 367 -60 405 -102 405 -164 c 0
 405 -251 339 -323 216 -371 c 1
EndSplineSet
Ligature: 0 0 'liga' K uni0327
EndChar
StartChar: Lcommaaccent
Encoding: 315 315 209
Width: 704
Flags: W
HStem: -213 153<259 274> 0 54<-35 602> 668 54<112 162 113 487>
VStem: 189 179<-164 -142>
DStem: 190 578 366 578 73 144 250 144
Fore
618 266 m 1
 670 255 l 1
 602 0 l 1
 -41 0 l 1
 -34 54 l 1
 -30 54 l 2
 12 54 36 58 47 68 c 0
 55 76 55 76 73 144 c 1
 190 578 l 1
 199 613 203 632 203 641 c 0
 203 663 189 668 124 668 c 2
 105 668 l 1
 113 722 l 1
 495 722 l 1
 487 668 l 1
 469 668 l 2
 427 668 403 664 393 654 c 0
 384 646 384 646 366 578 c 2
 250 144 l 1
 240 109 236 89 236 80 c 0
 236 60 249 54 289 54 c 2
 325 54 l 2
 405 54 463 79 528 141 c 0
 570 180 596 217 618 266 c 1
179 -371 m 1
 160 -334 l 1
 243 -297 283 -256 283 -211 c 1
 273 -212 267 -213 259 -213 c 0
 215 -213 189 -187 189 -142 c 0
 189 -94 224 -60 274 -60 c 0
 330 -60 368 -102 368 -164 c 0
 368 -251 302 -323 179 -371 c 1
EndSplineSet
Ligature: 0 0 'liga' L uni0327
EndChar
StartChar: Ncommaaccent
Encoding: 316 325 210
Width: 852
Flags: W
HStem: -213 153<293 308> 0 54<202 227> 668 54<95 160 635 651.657 635 905>
VStem: 223 179<-164 -142>
DStem: 204 636 248 552 91 217 158 217 248 552 350 722 544 -14 618 215 696 505 763 505 618 215 624 -14
Fore
350 722 m 1
 618 215 l 1
 696 505 l 1
 717 585 718 591 718 613 c 0
 718 650 688 668 628 668 c 1
 635 722 l 1
 912 722 l 1
 905 668 l 1
 871 668 844 659 824 641 c 0
 796 614 794 611 763 505 c 1
 624 -14 l 1
 544 -14 l 1
 248 552 l 1
 158 217 l 1
 138 137 137 130 137 109 c 0
 137 72 166 54 224 54 c 2
 235 54 l 1
 227 0 l 1
 -57 0 l 1
 -50 54 l 1
 -16 55 11 64 31 81 c 0
 59 107 61 113 91 217 c 1
 204 636 l 1
 192 659 176 668 145 668 c 2
 89 668 l 1
 96 722 l 1
 350 722 l 1
213 -371 m 1
 194 -334 l 1
 277 -297 317 -256 317 -211 c 1
 307 -212 301 -213 293 -213 c 0
 249 -213 223 -187 223 -142 c 0
 223 -94 258 -60 308 -60 c 0
 364 -60 402 -102 402 -164 c 0
 402 -251 336 -323 213 -371 c 1
EndSplineSet
Ligature: 0 0 'liga' N uni0327
EndChar
StartChar: Omacron
Encoding: 317 332 211
Width: 833
Flags: W
HStem: -15 54<324.757 357> 683 54<468.793 501> 814 80<369 683>
VStem: 36 179<193 286> 613 184<441 520>
Fore
490 737 m 0
 582 737 655 708 714 646 c 0
 769 590 797 520 797 441 c 0
 797 193 589 -15 342 -15 c 0
 157 -15 36 104 36 286 c 0
 36 406 88 526 176 610 c 0
 267 696 368 737 490 737 c 0
487 683 m 0
 412 683 352 633 300 528 c 0
 251 428 215 287 215 193 c 0
 215 98 264 39 342 39 c 0
 415 39 477 90 533 196 c 0
 582 291 613 415 613 520 c 0
 613 568 605 603 586 631 c 0
 566 662 526 683 487 683 c 0
370 894 m 1
 704 894 l 1
 683 814 l 1
 349 814 l 1
 370 894 l 1
EndSplineSet
Ligature: 0 0 'liga' O uni0304
EndChar
StartChar: Rcommaaccent
Encoding: 318 342 212
Width: 796
Flags: W
HStem: -213 153<265 280> 0 54<-35 333> 668 54<111 152 112 472>
VStem: 195 179<-164 -142> 424 179<108 149> 567 184<553 574>
DStem: 189 578 380 630 73 144 319 404 189 578 304 350 73 144 249 144
Fore
304 350 m 1xf8
 249 144 l 1
 241 112 236 90 236 81 c 0
 236 59 250 54 315 54 c 2
 341 54 l 1
 333 0 l 1
 -41 0 l 1
 -34 54 l 1
 -30 54 l 2
 12 54 36 58 46 68 c 0
 55 76 55 76 73 144 c 2
 189 578 l 1
 200 618 203 632 203 641 c 0
 203 663 189 668 124 668 c 2
 105 668 l 1
 112 722 l 1
 459 722 l 2
 557 722 623 712 671 690 c 0
 719 668 751 615 751 555 c 0xf4
 751 441 653 374 464 359 c 1
 515 345 538 331 564 304 c 0
 592 273 603 239 603 181 c 2
 603 147 l 2xf8
 603 81 603 81 610 72 c 0
 615 65 621 61 628 61 c 0
 646 61 668 82 682 114 c 0
 687 125 690 132 699 157 c 1
 742 136 l 1
 708 33 652 -15 567 -15 c 0xf4
 483 -15 424 44 424 127 c 0
 424 148 427 179 431 211 c 0
 434 232 436 254 436 269 c 0
 436 324 403 350 334 350 c 2
 304 350 l 1xf8
319 404 m 1
 353 404 l 2
 443 404 469 409 502 435 c 1
 542 464 567 517 567 570 c 0
 567 633 529 668 459 668 c 2
 434 668 l 2
 398 668 388 661 380 630 c 1
 319 404 l 1
185 -371 m 1
 166 -334 l 1
 249 -297 289 -256 289 -211 c 1
 279 -212 273 -213 265 -213 c 0
 221 -213 195 -187 195 -142 c 0
 195 -94 230 -60 280 -60 c 0
 336 -60 374 -102 374 -164 c 0
 374 -251 308 -323 185 -371 c 1
EndSplineSet
Ligature: 0 0 'liga' R uni0327
EndChar
StartChar: Gcommaaccent
Encoding: 319 290 213
Width: 815
Flags: W
HStem: -213 153<274 289> -15 52<346 371> 282 54<429 487 430 795> 683 54<481 515>
VStem: 34 188<229 284> 204 179<-164 -142>
Fore
775 715 m 1xf8
 718 432 l 1
 667 439 l 1
 666 492 659 533 644 576 c 0
 619 646 569 683 498 683 c 0
 419 683 352 632 298 531 c 0
 253 447 222 322 222 229 c 0
 222 181 232 133 248 103 c 0
 269 64 315 37 363 37 c 0
 426 37 480 81 504 152 c 0
 514 182 528 241 528 255 c 0
 528 278 516 282 451 282 c 2
 423 282 l 1
 430 336 l 1
 802 336 l 1
 795 282 l 1
 785 282 l 2
 716 282 704 276 694 234 c 0
 690 220 686 205 682 192 c 1
 627 -14 l 1
 579 -14 l 1
 560 81 l 1
 506 16 438 -15 347 -15 c 0
 277 -15 207 6 149 44 c 0
 77 92 34 182 34 284 c 0
 34 529 241 737 485 737 c 0
 568 737 616 716 670 657 c 1
 730 715 l 1
 775 715 l 1xf8
194 -371 m 1
 175 -334 l 1
 258 -297 298 -256 298 -211 c 1
 288 -212 282 -213 274 -213 c 0
 230 -213 204 -187 204 -142 c 0
 204 -94 239 -60 289 -60 c 0
 345 -60 383 -102 383 -164 c 0xf4
 383 -251 317 -323 194 -371 c 1
EndSplineSet
Ligature: 0 0 'liga' G uni0327
EndChar
StartChar: Umacron
Encoding: 320 362 214
Width: 833
Flags: W
HStem: -15 62<371 409> 668 54<101 137 102 470 621 638.394> 814 80<422 736>
VStem: 88 171<184 198>
DStem: 179 578 355 578 105 303 274 274 682 506 749 506 615 254 675 227
Fore
95 668 m 1
 102 722 l 1
 478 722 l 1
 470 668 l 1
 458 668 l 2
 416 668 392 664 382 654 c 0
 373 646 373 646 355 578 c 2
 274 274 l 1
 263 234 259 210 259 186 c 0
 259 98 314 47 409 47 c 0
 464 47 506 65 544 106 c 1
 578 140 594 175 615 254 c 2
 682 506 l 2
 703 585 704 592 704 613 c 0
 704 651 675 668 614 668 c 1
 621 722 l 1
 895 722 l 1
 888 668 l 1
 862 669 829 658 810 641 c 0
 782 616 779 609 749 506 c 1
 675 227 l 2
 630 58 537 -15 371 -15 c 0
 301 -15 243 -3 200 19 c 0
 135 54 88 127 88 196 c 0
 88 224 94 261 105 303 c 2
 179 578 l 1
 191 624 193 632 193 641 c 0
 193 663 179 668 113 668 c 2
 95 668 l 1
423 894 m 1
 757 894 l 1
 736 814 l 1
 402 814 l 1
 423 894 l 1
EndSplineSet
Ligature: 0 0 'liga' U uni0304
EndChar
StartChar: Uogonek
Encoding: 321 370 215
Width: 833
Flags: W
HStem: -173 75<495 528> -15 62<369 409> 668 54<101 137 102 470 621 638.394>
VStem: 88 171<178 198> 418 79<-91 -63>
DStem: 179 578 355 578 105 303 274 274 682 506 749 506 615 254 675 227
Fore
621 722 m 1
 895 722 l 1
 888 668 l 1
 862 669 829 658 810 641 c 0
 782 616 779 609 749 506 c 1
 675 227 l 1
 644 120 636 108 541 24 c 0
 518 3 497 -39 497 -63 c 0
 497 -83 510 -98 528 -98 c 0
 542 -98 556 -92 577 -75 c 1
 595 -106 l 1
 565 -150 531 -173 495 -173 c 0
 450 -173 418 -138 418 -91 c 0
 418 -59 428 -35 453 -8 c 1
 423 -13 400 -15 369 -15 c 0
 301 -15 243 -3 200 19 c 0
 135 54 88 127 88 196 c 0
 88 224 94 261 105 303 c 2
 179 578 l 1
 191 624 193 632 193 641 c 0
 193 663 179 668 113 668 c 2
 95 668 l 1
 102 722 l 1
 478 722 l 1
 470 668 l 1
 458 668 l 2
 416 668 392 664 382 654 c 0
 373 646 373 646 355 578 c 2
 274 274 l 1
 263 234 259 210 259 186 c 0
 259 98 314 47 409 47 c 0
 464 47 506 65 544 106 c 1
 578 140 594 175 615 254 c 2
 682 506 l 2
 703 585 704 592 704 613 c 0
 704 651 675 668 614 668 c 1
 621 722 l 1
EndSplineSet
Ligature: 0 0 'liga' U uni0328
EndChar
StartChar: adieresis
Encoding: 322 228 216
Width: 667
Flags: W
HStem: -14 70<188 239> 424 55<301 333> 542 143<270 288 478 503>
VStem: 15 163<135 167> 204 143<614 626> 351 138<73 86> 419 143<614 626>
Fore
440 464 m 1xfc
 597 464 l 1
 499 132 l 1
 489 93 489 93 489 86 c 0
 489 78 496 70 503 70 c 0
 520 70 570 124 607 182 c 1
 646 157 l 1
 629 128 607 97 580 66 c 0
 531 11 486 -15 436 -15 c 0
 396 -15 363 8 354 41 c 0
 351 49 351 51 351 73 c 1
 303 11 257 -14 188 -14 c 0
 87 -14 15 61 15 167 c 0
 15 329 153 479 301 479 c 0
 360 479 402 458 426 416 c 1
 440 464 l 1xfc
333 424 m 0
 292 424 258 393 227 328 c 0
 198 268 178 188 178 135 c 0
 178 87 202 56 239 56 c 0
 278 56 314 89 343 153 c 0
 373 217 395 301 395 351 c 0
 395 394 370 424 333 424 c 0
276 685 m 0
 315 685 347 653 347 614 c 0
 347 574 315 542 275 542 c 0
 236 542 204 575 204 614 c 0
 204 653 236 685 276 685 c 0
491 685 m 0
 530 685 562 653 562 614 c 0
 562 574 530 542 490 542 c 0
 451 542 419 575 419 614 c 0xfa
 419 653 451 685 491 685 c 0
EndSplineSet
KernsSLIF: 121 -18 0 0 118 -16 0 0
Ligature: 0 0 'liga' a uni0308
EndChar
StartChar: aacute
Encoding: 323 225 217
Width: 667
Flags: W
HStem: -14 70<188 239> 424 55<301 333>
VStem: 15 163<135 167> 351 138<73 86>
Fore
440 464 m 1
 597 464 l 1
 499 132 l 1
 489 93 489 93 489 86 c 0
 489 78 496 70 503 70 c 0
 520 70 570 124 607 182 c 1
 646 157 l 1
 629 128 607 97 580 66 c 0
 531 11 486 -15 436 -15 c 0
 396 -15 363 8 354 41 c 0
 351 49 351 51 351 73 c 1
 303 11 257 -14 188 -14 c 0
 87 -14 15 61 15 167 c 0
 15 329 153 479 301 479 c 0
 360 479 402 458 426 416 c 1
 440 464 l 1
333 424 m 0
 292 424 258 393 227 328 c 0
 198 268 178 188 178 135 c 0
 178 87 202 56 239 56 c 0
 278 56 314 89 343 153 c 0
 373 217 395 301 395 351 c 0
 395 394 370 424 333 424 c 0
297 535 m 1
 421 674 l 2
 455 711 467 719 491 719 c 0
 521 719 545 696 545 667 c 0
 545 648 535 633 517 623 c 2
 351 535 l 1
 297 535 l 1
EndSplineSet
KernsSLIF: 121 -18 0 0 118 -16 0 0
Ligature: 0 0 'liga' a acutecomb
EndChar
StartChar: agrave
Encoding: 324 224 218
Width: 667
Flags: W
HStem: -14 70<188 239> 424 55<301 333>
VStem: 15 163<135 167> 351 138<73 86>
Fore
440 464 m 1
 597 464 l 1
 499 132 l 1
 489 93 489 93 489 86 c 0
 489 78 496 70 503 70 c 0
 520 70 570 124 607 182 c 1
 646 157 l 1
 629 128 607 97 580 66 c 0
 531 11 486 -15 436 -15 c 0
 396 -15 363 8 354 41 c 0
 351 49 351 51 351 73 c 1
 303 11 257 -14 188 -14 c 0
 87 -14 15 61 15 167 c 0
 15 329 153 479 301 479 c 0
 360 479 402 458 426 416 c 1
 440 464 l 1
333 424 m 0
 292 424 258 393 227 328 c 0
 198 268 178 188 178 135 c 0
 178 87 202 56 239 56 c 0
 278 56 314 89 343 153 c 0
 373 217 395 301 395 351 c 0
 395 394 370 424 333 424 c 0
448 535 m 1
 399 535 l 1
 258 624 l 2
 238 636 228 652 228 670 c 0
 228 698 250 719 281 719 c 0
 308 719 322 710 346 677 c 2
 448 535 l 1
EndSplineSet
KernsSLIF: 121 -18 0 0 118 -16 0 0
Ligature: 0 0 'liga' a gravecomb
EndChar
StartChar: acircumflex
Encoding: 325 226 219
Width: 667
Flags: W
HStem: -14 70<188 239> 424 55<301 333> 689 20G<360 461>
VStem: 15 163<135 167> 351 138<73 86>
Fore
440 464 m 1
 597 464 l 1
 499 132 l 1
 489 93 489 93 489 86 c 0
 489 78 496 70 503 70 c 0
 520 70 570 124 607 182 c 1
 646 157 l 1
 629 128 607 97 580 66 c 0
 531 11 486 -15 436 -15 c 0
 396 -15 363 8 354 41 c 0
 351 49 351 51 351 73 c 1
 303 11 257 -14 188 -14 c 0
 87 -14 15 61 15 167 c 0
 15 329 153 479 301 479 c 0
 360 479 402 458 426 416 c 1
 440 464 l 1
333 424 m 0
 292 424 258 393 227 328 c 0
 198 268 178 188 178 135 c 0
 178 87 202 56 239 56 c 0
 278 56 314 89 343 153 c 0
 373 217 395 301 395 351 c 0
 395 394 370 424 333 424 c 0
203 535 m 1
 360 709 l 1
 461 709 l 1
 545 535 l 1
 486 535 l 1
 396 621 l 1
 270 535 l 1
 203 535 l 1
EndSplineSet
Ligature: 0 0 'liga' a uni0302
EndChar
StartChar: abreve
Encoding: 326 259 220
Width: 667
Flags: W
HStem: -14 70<188 239> 424 55<301 333> 537 79<366 395> 681 20G<236 282 510 557>
VStem: 15 163<135 167> 351 138<73 86>
Fore
440 464 m 1
 597 464 l 1
 499 132 l 1
 489 93 489 93 489 86 c 0
 489 78 496 70 503 70 c 0
 520 70 570 124 607 182 c 1
 646 157 l 1
 629 128 607 97 580 66 c 0
 531 11 486 -15 436 -15 c 0
 396 -15 363 8 354 41 c 0
 351 49 351 51 351 73 c 1
 303 11 257 -14 188 -14 c 0
 87 -14 15 61 15 167 c 0
 15 329 153 479 301 479 c 0
 360 479 402 458 426 416 c 1
 440 464 l 1
333 424 m 0
 292 424 258 393 227 328 c 0
 198 268 178 188 178 135 c 0
 178 87 202 56 239 56 c 0
 278 56 314 89 343 153 c 0
 373 217 395 301 395 351 c 0
 395 394 370 424 333 424 c 0
236 701 m 1
 282 701 l 1
 287 641 317 616 383 616 c 0
 445 616 497 650 510 701 c 1
 557 701 l 1
 554 665 540 629 515 599 c 0
 480 557 434 537 373 537 c 0
 285 537 234 586 234 672 c 0
 234 678 235 688 236 701 c 1
EndSplineSet
Ligature: 0 0 'liga' a uni0306
EndChar
StartChar: atilde
Encoding: 327 227 221
Width: 667
Flags: W
HStem: -14 70<188 239> 424 55<301 333> 557 86<455 482> 599 84<298 333>
VStem: 15 163<135 167> 351 138<73 86>
Fore
440 464 m 1xcc
 597 464 l 1
 499 132 l 1
 489 93 489 93 489 86 c 0
 489 78 496 70 503 70 c 0
 520 70 570 124 607 182 c 1
 646 157 l 1
 629 128 607 97 580 66 c 0
 531 11 486 -15 436 -15 c 0
 396 -15 363 8 354 41 c 0
 351 49 351 51 351 73 c 1
 303 11 257 -14 188 -14 c 0
 87 -14 15 61 15 167 c 0
 15 329 153 479 301 479 c 0
 360 479 402 458 426 416 c 1
 440 464 l 1xcc
333 424 m 0
 292 424 258 393 227 328 c 0
 198 268 178 188 178 135 c 0
 178 87 202 56 239 56 c 0
 278 56 314 89 343 153 c 0
 373 217 395 301 395 351 c 0
 395 394 370 424 333 424 c 0
532 683 m 1xdc
 579 683 l 1xdc
 576 616 518 557 455 557 c 0xec
 434 557 409 563 370 578 c 0
 325 596 313 599 298 599 c 0xdc
 276 599 261 584 256 557 c 1
 209 557 l 1xec
 214 630 267 683 333 683 c 0xdc
 353 683 379 677 412 664 c 0
 460 645 467 643 482 643 c 0xec
 507 643 524 657 532 683 c 1xdc
EndSplineSet
Ligature: 0 0 'liga' a tildecomb
EndChar
StartChar: aring
Encoding: 328 229 222
Width: 667
Flags: W
HStem: -14 70<188 239> 424 55<301 333> 530 54<382 400> 691 54<392 400>
VStem: 15 163<135 167> 284 54<627.089 642> 445 54<638 642>
Fore
440 464 m 1
 597 464 l 1
 499 132 l 1
 489 93 489 93 489 86 c 0
 489 78 496 70 503 70 c 0
 520 70 570 124 607 182 c 1
 646 157 l 1
 629 128 607 97 580 66 c 0
 531 11 486 -15 436 -15 c 0
 396 -15 363 8 354 41 c 0
 351 49 351 51 351 73 c 1
 303 11 257 -14 188 -14 c 0
 87 -14 15 61 15 167 c 0
 15 329 153 479 301 479 c 0
 360 479 402 458 426 416 c 1
 440 464 l 1
333 424 m 0
 292 424 258 393 227 328 c 0
 198 268 178 188 178 135 c 0
 178 87 202 56 239 56 c 0
 278 56 314 89 343 153 c 0
 373 217 395 301 395 351 c 0
 395 394 370 424 333 424 c 0
392 745 m 0
 451 745 499 697 499 638 c 0
 499 578 451 530 390 530 c 0
 333 530 284 579 284 638 c 0
 284 696 333 745 392 745 c 0
392 691 m 0
 362 691 338 667 338 637 c 0
 338 609 362 584 391 584 c 0
 421 584 445 608 445 638 c 0
 445 667 421 691 392 691 c 0
EndSplineSet
KernsSLIF: 121 -18 0 0 118 -16 0 0
Ligature: 0 0 'liga' a uni030A
EndChar
StartChar: aogonek
Encoding: 329 261 223
Width: 667
Flags: W
HStem: -173 243<499 512> -14 70<188 239> 424 55<301 333>
VStem: 15 163<135 167> 351 138<73 86> 435 79<-91 -64>
Fore
607 182 m 1xb8
 646 157 l 1
 643 151 640 147 640 147 c 1
 592 78 l 1
 551 17 l 2
 522 -25 514 -43 514 -64 c 0
 514 -84 527 -99 544 -99 c 0
 559 -99 573 -92 594 -75 c 1
 612 -106 l 1
 582 -150 548 -173 512 -173 c 0
 467 -173 435 -138 435 -91 c 0xb4
 435 -61 445 -36 467 -11 c 1
 453 -14 446 -15 437 -15 c 0
 396 -15 363 7 354 41 c 0
 351 49 351 51 351 73 c 1
 303 11 257 -14 188 -14 c 0x78
 87 -14 15 61 15 167 c 0
 15 329 153 479 301 479 c 0
 360 479 402 458 426 416 c 1
 440 464 l 1
 597 464 l 1
 499 132 l 1
 489 93 489 93 489 86 c 0
 489 78 496 70 503 70 c 0
 520 70 570 124 607 182 c 1xb8
333 424 m 0
 292 424 258 393 227 328 c 0
 198 268 178 188 178 135 c 0
 178 87 202 56 239 56 c 0x70
 278 56 314 89 343 153 c 0
 373 217 395 301 395 351 c 0
 395 394 370 424 333 424 c 0
EndSplineSet
Ligature: 0 0 'liga' a uni0328
EndChar
StartChar: cacute
Encoding: 330 263 224
Width: 537
Flags: W
HStem: -14 61<210 250> 431 47<316 340>
VStem: 3 165<141 171> 323 164<329 350>
Fore
406 147 m 1
 442 116 l 1
 370 26 298 -14 210 -14 c 0
 84 -14 3 58 3 171 c 0
 3 338 146 478 316 478 c 0
 420 478 487 427 487 350 c 0
 487 294 453 257 401 257 c 0
 355 257 323 287 323 329 c 0
 323 357 333 373 361 390 c 0
 370 396 373 399 373 406 c 0
 373 421 355 431 331 431 c 0
 289 431 251 401 220 344 c 0
 190 289 168 203 168 141 c 0
 168 86 202 47 250 47 c 0
 298 47 347 78 406 147 c 1
225 535 m 1
 349 674 l 2
 383 711 395 719 419 719 c 0
 449 719 473 696 473 667 c 0
 473 648 463 633 445 623 c 2
 279 535 l 1
 225 535 l 1
EndSplineSet
Ligature: 0 0 'liga' c acutecomb
EndChar
StartChar: ccaron
Encoding: 331 269 225
Width: 537
Flags: W
HStem: -14 61<210 250> 431 47<316 340> 691 20G<172 231 447 515>
VStem: 3 165<141 171> 323 164<329 350>
Fore
406 147 m 1
 442 116 l 1
 370 26 298 -14 210 -14 c 0
 84 -14 3 58 3 171 c 0
 3 338 146 478 316 478 c 0
 420 478 487 427 487 350 c 0
 487 294 453 257 401 257 c 0
 355 257 323 287 323 329 c 0
 323 357 333 373 361 390 c 0
 370 396 373 399 373 406 c 0
 373 421 355 431 331 431 c 0
 289 431 251 401 220 344 c 0
 190 289 168 203 168 141 c 0
 168 86 202 47 250 47 c 0
 298 47 347 78 406 147 c 1
515 711 m 1
 358 535 l 1
 256 535 l 1
 172 711 l 1
 231 711 l 1
 321 623 l 1
 447 711 l 1
 515 711 l 1
EndSplineSet
Ligature: 0 0 'liga' c uni030C
EndChar
StartChar: ccedilla
Encoding: 332 231 226
Width: 537
Flags: W
HStem: -220 45<130 149> -102 44<140 198> -15 61<214 250> 432 47<316 340>
VStem: 3 165<140 171> 183 101<-141 -131> 323 164<329 350>
DStem: 157 -10 199 -14 95 -89 164 -61
Fore
199 -14 m 1
 164 -61 l 1
 178 -59 189 -58 198 -58 c 0
 247 -58 284 -90 284 -133 c 0
 284 -185 229 -220 149 -220 c 0
 106 -220 67 -210 40 -191 c 1
 62 -156 l 1
 94 -170 113 -175 133 -175 c 0
 163 -175 183 -159 183 -137 c 0
 183 -117 165 -102 140 -102 c 0
 133 -102 126 -103 111 -106 c 1
 95 -89 l 1
 157 -10 l 1
 59 10 3 75 3 171 c 0
 3 338 146 479 316 479 c 0
 420 479 487 428 487 350 c 0
 487 294 453 257 401 257 c 0
 355 257 323 287 323 329 c 0
 323 357 333 374 361 391 c 0
 370 396 373 400 373 407 c 0
 373 422 355 432 331 432 c 0
 288 432 251 402 220 345 c 0
 190 289 168 203 168 140 c 0
 168 85 202 46 250 46 c 0
 298 46 348 78 406 147 c 1
 442 116 l 1
 371 27 298 -15 214 -15 c 0
 213 -15 206 -15 199 -14 c 1
EndSplineSet
Ligature: 0 0 'liga' c uni0327
EndChar
StartChar: dcaron
Encoding: 333 271 227
Width: 780
Flags: W
HStem: -14 70<174 224> 423 55<286 319> 569 153<731 746>
VStem: 0 164<135 167> 661 179<618 640>
DStem: 459 578 663 736 411 416 484 132
Fore
663 736 m 1
 484 132 l 1
 474 93 474 93 474 85 c 0
 474 77 481 69 488 69 c 0
 506 69 554 121 593 182 c 1
 632 157 l 1
 615 128 593 97 566 66 c 0
 517 11 472 -15 422 -15 c 0
 369 -15 337 15 336 64 c 1
 336 71 l 1
 281 8 239 -14 174 -14 c 0
 72 -14 0 61 0 167 c 0
 0 328 138 478 286 478 c 0
 345 478 386 458 411 416 c 1
 459 578 l 2
 470 615 474 634 474 644 c 0
 474 669 462 675 413 675 c 2
 381 675 l 1
 388 722 l 1
 663 736 l 1
319 423 m 0
 278 423 243 392 213 328 c 0
 184 267 164 188 164 135 c 0
 164 86 187 56 224 56 c 0
 263 56 299 89 329 153 c 0
 358 216 380 300 380 351 c 0
 380 393 355 423 319 423 c 0
651 411 m 1
 632 448 l 1
 715 485 755 526 755 572 c 1
 745 570 739 569 731 569 c 0
 687 569 661 595 661 640 c 0
 661 688 696 722 746 722 c 0
 802 722 840 680 840 618 c 0
 840 531 774 459 651 411 c 1
EndSplineSet
Ligature: 0 0 'liga' d uni030C
EndChar
StartChar: edieresis
Encoding: 334 235 228
Width: 519
Flags: W
HStem: -14 59<202 243> 432 47<301 319> 542 143<200 211 413 432>
VStem: -2 159<137 171> 137 143<614 616> 356 122<358 385>
Fore
395 126 m 1xf4
 430 91 l 1
 367 20 293 -14 202 -14 c 0
 70 -14 -2 51 -2 171 c 0
 -2 335 146 479 314 479 c 0
 408 479 478 427 478 358 c 0
 478 288 422 238 308 205 c 0
 261 191 218 184 159 181 c 1
 157 155 157 149 157 137 c 0
 157 80 190 45 243 45 c 0
 295 45 335 66 395 126 c 1xf4
168 228 m 1
 201 233 218 237 238 244 c 0
 306 270 356 330 356 385 c 0
 356 414 339 432 312 432 c 0
 250 432 191 350 168 228 c 1
209 685 m 0
 248 685 280 653 280 614 c 0
 280 574 248 542 208 542 c 0
 169 542 137 575 137 614 c 0xec
 137 653 169 685 209 685 c 0
424 685 m 0
 463 685 495 653 495 614 c 0
 495 574 463 542 423 542 c 0
 384 542 352 575 352 614 c 0
 352 653 384 685 424 685 c 0
EndSplineSet
Ligature: 0 0 'liga' e uni0308
EndChar
StartChar: eacute
Encoding: 335 233 229
Width: 519
Flags: W
HStem: -14 59<202 243> 432 47<301 319>
VStem: -2 159<137 171> 356 122<358 385>
Fore
395 126 m 1
 430 91 l 1
 367 20 293 -14 202 -14 c 0
 70 -14 -2 51 -2 171 c 0
 -2 335 146 479 314 479 c 0
 408 479 478 427 478 358 c 0
 478 288 422 238 308 205 c 0
 261 191 218 184 159 181 c 1
 157 155 157 149 157 137 c 0
 157 80 190 45 243 45 c 0
 295 45 335 66 395 126 c 1
168 228 m 1
 201 233 218 237 238 244 c 0
 306 270 356 330 356 385 c 0
 356 414 339 432 312 432 c 0
 250 432 191 350 168 228 c 1
230 535 m 1
 354 674 l 2
 388 711 400 719 424 719 c 0
 454 719 478 696 478 667 c 0
 478 648 468 633 450 623 c 2
 284 535 l 1
 230 535 l 1
EndSplineSet
KernsSLIF: 121 -2 0 0 119 -13 0 0 118 -27 0 0
Ligature: 0 0 'liga' e acutecomb
EndChar
StartChar: egrave
Encoding: 336 232 230
Width: 519
Flags: W
HStem: -14 59<202 243> 432 47<301 319>
VStem: -2 159<137 171> 356 122<358 385>
Fore
395 126 m 1
 430 91 l 1
 367 20 293 -14 202 -14 c 0
 70 -14 -2 51 -2 171 c 0
 -2 335 146 479 314 479 c 0
 408 479 478 427 478 358 c 0
 478 288 422 238 308 205 c 0
 261 191 218 184 159 181 c 1
 157 155 157 149 157 137 c 0
 157 80 190 45 243 45 c 0
 295 45 335 66 395 126 c 1
168 228 m 1
 201 233 218 237 238 244 c 0
 306 270 356 330 356 385 c 0
 356 414 339 432 312 432 c 0
 250 432 191 350 168 228 c 1
387 535 m 1
 338 535 l 1
 197 624 l 2
 177 636 167 652 167 670 c 0
 167 698 189 719 220 719 c 0
 247 719 261 710 285 677 c 2
 387 535 l 1
EndSplineSet
Ligature: 0 0 'liga' e gravecomb
EndChar
StartChar: ecircumflex
Encoding: 337 234 231
Width: 519
Flags: W
HStem: -14 59<202 243> 432 47<301 319> 689 20G<290 391>
VStem: -2 159<137 171> 356 122<358 385>
Fore
395 126 m 1
 430 91 l 1
 367 20 293 -14 202 -14 c 0
 70 -14 -2 51 -2 171 c 0
 -2 335 146 479 314 479 c 0
 408 479 478 427 478 358 c 0
 478 288 422 238 308 205 c 0
 261 191 218 184 159 181 c 1
 157 155 157 149 157 137 c 0
 157 80 190 45 243 45 c 0
 295 45 335 66 395 126 c 1
168 228 m 1
 201 233 218 237 238 244 c 0
 306 270 356 330 356 385 c 0
 356 414 339 432 312 432 c 0
 250 432 191 350 168 228 c 1
133 535 m 1
 290 709 l 1
 391 709 l 1
 475 535 l 1
 416 535 l 1
 326 621 l 1
 200 535 l 1
 133 535 l 1
EndSplineSet
KernsSLIF: 121 -2 0 0 119 -13 0 0 118 -27 0 0
Ligature: 0 0 'liga' e uni0302
EndChar
StartChar: ecaron
Encoding: 338 283 232
Width: 519
Flags: W
HStem: -14 59<202 243> 432 47<300 319> 691 20G<153 212 428 496>
VStem: -2 159<137 171> 356 122<358 385>
Fore
395 126 m 1
 430 91 l 1
 367 20 293 -14 202 -14 c 0
 70 -14 -2 51 -2 171 c 0
 -2 335 146 479 314 479 c 0
 408 479 478 427 478 358 c 0
 478 288 422 238 308 205 c 0
 261 191 218 184 159 181 c 1
 157 155 157 149 157 137 c 0
 157 80 190 45 243 45 c 0
 295 45 335 66 395 126 c 1
168 228 m 1
 201 233 218 237 238 244 c 0
 306 270 356 330 356 385 c 0
 356 414 339 432 312 432 c 0
 250 432 191 350 168 228 c 1
496 711 m 1
 339 535 l 1
 237 535 l 1
 153 711 l 1
 212 711 l 1
 302 623 l 1
 428 711 l 1
 496 711 l 1
EndSplineSet
Ligature: 0 0 'liga' e uni030C
EndChar
StartChar: edotaccent
Encoding: 339 279 233
Width: 519
Flags: W
HStem: -14 59<202 243> 432 47<301 319> 542 143<333 351>
VStem: -2 159<137 171> 268 143<614 616> 356 122<358 385>
Fore
395 126 m 1xf4
 430 91 l 1
 367 20 293 -14 202 -14 c 0
 70 -14 -2 51 -2 171 c 0
 -2 335 146 479 314 479 c 0
 408 479 478 427 478 358 c 0
 478 288 422 238 308 205 c 0
 261 191 218 184 159 181 c 1
 157 155 157 149 157 137 c 0
 157 80 190 45 243 45 c 0
 295 45 335 66 395 126 c 1xf4
168 228 m 1
 201 233 218 237 238 244 c 0
 306 270 356 330 356 385 c 0
 356 414 339 432 312 432 c 0
 250 432 191 350 168 228 c 1
340 685 m 0
 379 685 411 653 411 614 c 0
 411 574 379 542 339 542 c 0
 300 542 268 575 268 614 c 0xf8
 268 653 300 685 340 685 c 0
EndSplineSet
Ligature: 0 0 'liga' e uni0307
EndChar
StartChar: eogonek
Encoding: 340 281 234
Width: 519
Flags: W
HStem: -173 74<304 337> -14 59<202 243> 432 47<301 319>
VStem: -2 159<137 171> 228 79<-91 -65> 356 122<358 385>
Fore
395 126 m 1
 430 91 l 1
 423 83 418 78 417 77 c 2
 360 30 l 2
 329 5 307 -35 307 -65 c 0
 307 -84 320 -99 337 -99 c 0
 352 -99 366 -92 386 -75 c 1
 405 -106 l 1
 375 -151 341 -173 304 -173 c 0
 260 -173 228 -138 228 -91 c 0
 228 -60 238 -36 262 -9 c 1
 238 -13 223 -14 202 -14 c 0
 70 -14 -2 51 -2 171 c 0
 -2 335 146 479 314 479 c 0
 408 479 478 427 478 358 c 0
 478 288 422 238 308 205 c 0
 261 191 218 184 159 181 c 1
 157 155 157 149 157 137 c 0
 157 80 190 45 243 45 c 0
 295 45 335 66 395 126 c 1
168 228 m 1
 201 233 218 237 238 244 c 0
 306 270 356 330 356 385 c 0
 356 414 339 432 312 432 c 0
 250 432 191 350 168 228 c 1
EndSplineSet
Ligature: 0 0 'liga' e uni0328
EndChar
StartChar: gbreve
Encoding: 341 287 235
Width: 611
Flags: W
HStem: -202 47<157 210> 157 48<287 317> 408 125<530 549> 432 47<296 319> 537 79<333 367> 681 20G<208 254 482 529>
VStem: -66 123<-93 -83> 69 153<277 304> 379 148<314 361>
Fore
399 463 m 1xdf80
 448 512 487 533 530 533 c 0
 573 533 602 506 602 466 c 0
 602 432 580 408 549 408 c 0xef80
 525 408 510 421 499 451 c 0
 494 463 489 468 482 468 c 0
 471 468 461 461 448 444 c 1
 499 414 527 368 527 314 c 0
 527 223 439 157 317 157 c 0
 298 157 235 162 200 167 c 0
 185 169 173 170 166 170 c 0
 139 170 119 156 119 139 c 0
 119 118 134 108 168 105 c 0
 258 96 322 88 346 83 c 0
 419 66 450 30 450 -35 c 0
 450 -143 352 -202 172 -202 c 0
 21 -202 -66 -161 -66 -91 c 0
 -66 -41 -26 -10 60 6 c 1
 15 30 0 51 0 86 c 0
 0 139 42 181 120 206 c 1
 84 236 69 264 69 304 c 0
 69 407 162 479 296 479 c 0
 335 479 363 475 399 463 c 1xdf80
317 432 m 0xdf80
 289 432 267 417 251 389 c 0
 233 357 222 315 222 277 c 0
 222 232 247 205 287 205 c 0
 315 205 338 221 353 253 c 0
 369 285 379 328 379 361 c 0
 379 402 353 432 317 432 c 0xdf80
141 -27 m 0
 85 -27 57 -46 57 -85 c 0
 57 -131 98 -155 177 -155 c 0
 276 -155 329 -131 329 -85 c 0
 329 -61 316 -48 285 -40 c 0
 261 -34 184 -27 141 -27 c 0
208 701 m 1
 254 701 l 1
 259 641 289 616 355 616 c 0
 417 616 469 650 482 701 c 1
 529 701 l 1
 526 665 512 629 487 599 c 0
 452 557 406 537 345 537 c 0
 257 537 206 586 206 672 c 0
 206 678 207 688 208 701 c 1
EndSplineSet
Ligature: 0 0 'liga' g uni0306
EndChar
StartChar: idieresis
Encoding: 342 239 236
Width: 389
Flags: W
HStem: -15 79<146 213> 542 143<117 135 336 343>
VStem: 52 143<614 626> 267 143<614 626>
DStem: 108 319 312 478 57 149 207 122
Fore
312 478 m 1
 207 122 l 2
 198 91 197 88 197 80 c 0
 197 71 204 64 213 64 c 0
 233 64 266 101 314 177 c 1
 353 149 l 1
 285 35 222 -15 146 -15 c 0
 86 -15 42 23 42 75 c 0
 42 94 44 105 57 149 c 2
 108 319 l 2
 119 356 123 375 123 386 c 0
 123 411 111 417 62 417 c 2
 38 417 l 1
 45 464 l 1
 312 478 l 1
124 685 m 0
 163 685 195 653 195 614 c 0
 195 574 163 542 123 542 c 0
 84 542 52 575 52 614 c 0
 52 653 84 685 124 685 c 0
339 685 m 0
 378 685 410 653 410 614 c 0
 410 574 378 542 338 542 c 0
 299 542 267 575 267 614 c 0
 267 653 299 685 339 685 c 0
EndSplineSet
Ligature: 0 0 'liga' i uni0308
EndChar
StartChar: iacute
Encoding: 343 237 237
Width: 389
Flags: W
HStem: -15 79<146 213>
DStem: 108 319 312 478 57 149 207 122
Fore
312 478 m 1
 207 122 l 2
 198 91 197 88 197 80 c 0
 197 71 204 64 213 64 c 0
 233 64 266 101 314 177 c 1
 353 149 l 1
 285 35 222 -15 146 -15 c 0
 86 -15 42 23 42 75 c 0
 42 94 44 105 57 149 c 2
 108 319 l 2
 119 356 123 375 123 386 c 0
 123 411 111 417 62 417 c 2
 38 417 l 1
 45 464 l 1
 312 478 l 1
151 535 m 1
 275 674 l 2
 309 711 321 719 345 719 c 0
 375 719 399 696 399 667 c 0
 399 648 389 633 371 623 c 2
 205 535 l 1
 151 535 l 1
EndSplineSet
Ligature: 0 0 'liga' i acutecomb
EndChar
StartChar: igrave
Encoding: 344 236 238
Width: 389
Flags: W
HStem: -15 79<146 213>
DStem: 108 319 312 478 57 149 207 122
Fore
312 478 m 1
 207 122 l 2
 198 91 197 88 197 80 c 0
 197 71 204 64 213 64 c 0
 233 64 266 101 314 177 c 1
 353 149 l 1
 285 35 222 -15 146 -15 c 0
 86 -15 42 23 42 75 c 0
 42 94 44 105 57 149 c 2
 108 319 l 2
 119 356 123 375 123 386 c 0
 123 411 111 417 62 417 c 2
 38 417 l 1
 45 464 l 1
 312 478 l 1
289 535 m 1
 240 535 l 1
 99 624 l 2
 79 636 69 652 69 670 c 0
 69 698 91 719 122 719 c 0
 149 719 163 710 187 677 c 2
 289 535 l 1
EndSplineSet
Ligature: 0 0 'liga' i gravecomb
EndChar
StartChar: icircumflex
Encoding: 345 238 239
Width: 389
Flags: W
HStem: -15 79<146 213> 689 20G<198 299>
DStem: 108 319 312 478 57 149 207 122
Fore
312 478 m 1
 207 122 l 2
 198 91 197 88 197 80 c 0
 197 71 204 64 213 64 c 0
 233 64 266 101 314 177 c 1
 353 149 l 1
 285 35 222 -15 146 -15 c 0
 86 -15 42 23 42 75 c 0
 42 94 44 105 57 149 c 2
 108 319 l 2
 119 356 123 375 123 386 c 0
 123 411 111 417 62 417 c 2
 38 417 l 1
 45 464 l 1
 312 478 l 1
41 535 m 1
 198 709 l 1
 299 709 l 1
 383 535 l 1
 324 535 l 1
 234 621 l 1
 108 535 l 1
 41 535 l 1
EndSplineSet
Ligature: 0 0 'liga' i uni0302
EndChar
StartChar: lacute
Encoding: 346 314 240
Width: 389
Flags: W
HStem: -15 78<128 193>
DStem: 166 578 370 736 49 182 188 122
Fore
370 736 m 1
 188 122 l 1
 183 106 l 2
 180 96 178 85 178 80 c 0
 178 70 185 63 193 63 c 0
 215 63 260 110 300 176 c 1
 339 149 l 1
 318 111 288 74 253 41 c 0
 212 2 174 -15 128 -15 c 0
 67 -15 26 22 26 76 c 0
 26 99 31 125 49 182 c 1
 166 578 l 2
 177 615 181 633 181 644 c 0
 181 669 169 675 120 675 c 2
 96 675 l 1
 103 722 l 1
 370 736 l 1
151 774 m 1
 275 913 l 2
 309 950 321 958 345 958 c 0
 375 958 399 935 399 906 c 0
 399 887 389 872 371 862 c 2
 205 774 l 1
 151 774 l 1
EndSplineSet
Ligature: 0 0 'liga' l acutecomb
EndChar
StartChar: lcaron
Encoding: 347 318 241
Width: 486
Flags: W
HStem: -15 78<128 193> 569 153<437 452>
VStem: 26 152<74 82> 367 179<618 640>
DStem: 166 578 370 736 49 182 188 122
Fore
370 736 m 1
 188 122 l 1
 183 106 l 2
 180 96 178 85 178 80 c 0
 178 70 185 63 193 63 c 0
 215 63 260 110 300 176 c 1
 339 149 l 1
 318 111 288 74 253 41 c 0
 212 2 174 -15 128 -15 c 0
 67 -15 26 22 26 76 c 0
 26 99 31 125 49 182 c 1
 166 578 l 2
 177 615 181 633 181 644 c 0
 181 669 169 675 120 675 c 2
 96 675 l 1
 103 722 l 1
 370 736 l 1
357 411 m 1
 338 448 l 1
 421 485 461 526 461 572 c 1
 451 570 445 569 437 569 c 0
 393 569 367 595 367 640 c 0
 367 688 402 722 452 722 c 0
 508 722 546 680 546 618 c 0
 546 531 480 459 357 411 c 1
EndSplineSet
Ligature: 0 0 'liga' l uni030C
EndChar
StartChar: nacute
Encoding: 348 324 242
Width: 685
Flags: W
HStem: 0 21G<3 160> 459 20G<421.5 491>
VStem: 329 154<76 84> 420 151<366 376>
Fore
285 478 m 1xd0
 253 346 l 1
 328 442 385 479 458 479 c 0
 524 479 571 436 571 376 c 0xd0
 571 343 563 309 540 248 c 1
 493 120 l 1
 483 90 483 90 483 82 c 0
 483 74 490 66 497 66 c 0
 515 66 541 92 594 166 c 1
 603 177 l 1
 642 152 l 1
 565 33 504 -15 431 -15 c 0
 369 -15 329 20 329 76 c 0xe0
 329 102 333 117 349 163 c 1
 411 332 l 2
 417 348 420 361 420 368 c 0
 420 381 405 394 390 394 c 0
 366 394 333 370 295 325 c 0
 251 272 226 220 198 127 c 2
 160 0 l 1
 3 0 l 1
 98 319 l 2
 109 357 113 375 113 386 c 0
 113 411 101 417 52 417 c 2
 28 417 l 1
 35 464 l 1
 285 478 l 1xd0
299 535 m 1
 423 674 l 2
 457 711 469 719 493 719 c 0
 523 719 547 696 547 667 c 0
 547 648 537 633 519 623 c 2
 353 535 l 1
 299 535 l 1
EndSplineSet
Ligature: 0 0 'liga' n acutecomb
EndChar
StartChar: ncaron
Encoding: 349 328 243
Width: 685
Flags: W
HStem: 0 21G<3 160> 459 20G<421.5 491> 691 20G<236 295 511 579>
VStem: 329 154<76 84> 420 151<366 376>
Fore
285 478 m 1xe8
 253 346 l 1
 328 442 385 479 458 479 c 0
 524 479 571 436 571 376 c 0xe8
 571 343 563 309 540 248 c 1
 493 120 l 1
 483 90 483 90 483 82 c 0
 483 74 490 66 497 66 c 0
 515 66 541 92 594 166 c 1
 603 177 l 1
 642 152 l 1
 565 33 504 -15 431 -15 c 0
 369 -15 329 20 329 76 c 0xf0
 329 102 333 117 349 163 c 1
 411 332 l 2
 417 348 420 361 420 368 c 0
 420 381 405 394 390 394 c 0
 366 394 333 370 295 325 c 0
 251 272 226 220 198 127 c 2
 160 0 l 1
 3 0 l 1
 98 319 l 2
 109 357 113 375 113 386 c 0
 113 411 101 417 52 417 c 2
 28 417 l 1
 35 464 l 1
 285 478 l 1xe8
579 711 m 1
 422 535 l 1
 320 535 l 1
 236 711 l 1
 295 711 l 1
 385 623 l 1
 511 711 l 1
 579 711 l 1
EndSplineSet
Ligature: 0 0 'liga' n uni030C
EndChar
StartChar: ntilde
Encoding: 350 241 244
Width: 685
Flags: W
HStem: 0 21G<3 160> 459 20G<421.5 491> 557 86<446 473> 599 84<289 324>
VStem: 329 154<76 84> 420 151<366 376>
Fore
285 478 m 1xc4
 253 346 l 1
 328 442 385 479 458 479 c 0
 524 479 571 436 571 376 c 0xc4
 571 343 563 309 540 248 c 1
 493 120 l 1
 483 90 483 90 483 82 c 0
 483 74 490 66 497 66 c 0
 515 66 541 92 594 166 c 1
 603 177 l 1
 642 152 l 1
 565 33 504 -15 431 -15 c 0
 369 -15 329 20 329 76 c 0xc8
 329 102 333 117 349 163 c 1
 411 332 l 2
 417 348 420 361 420 368 c 0
 420 381 405 394 390 394 c 0
 366 394 333 370 295 325 c 0
 251 272 226 220 198 127 c 2
 160 0 l 1
 3 0 l 1
 98 319 l 2
 109 357 113 375 113 386 c 0
 113 411 101 417 52 417 c 2
 28 417 l 1
 35 464 l 1
 285 478 l 1xc4
523 683 m 1xd0
 570 683 l 1xd0
 567 616 509 557 446 557 c 0xe0
 425 557 400 563 361 578 c 0
 316 596 304 599 289 599 c 0xd0
 267 599 252 584 247 557 c 1
 200 557 l 1xe0
 205 630 258 683 324 683 c 0xd0
 344 683 370 677 403 664 c 0
 451 645 458 643 473 643 c 0xe0
 498 643 515 657 523 683 c 1xd0
EndSplineSet
Ligature: 0 0 'liga' n tildecomb
EndChar
StartChar: odieresis
Encoding: 351 246 245
Width: 574
Flags: W
HStem: -14 43<217 242> 432 47<312 331> 542 143<230 251 455 460>
VStem: 10 155<108 187> 171 143<614 616> 385 155<285 354> 386 143<614 616>
Fore
324 479 m 0xfc
 385 479 445 459 484 425 c 0
 520 394 540 345 540 285 c 0
 540 116 401 -14 220 -14 c 0
 157 -14 105 4 70 37 c 0
 33 71 10 129 10 187 c 0
 10 345 154 479 324 479 c 0xfc
320 432 m 0
 277 432 240 394 210 322 c 0
 184 259 165 168 165 108 c 0
 165 58 189 29 229 29 c 0
 272 29 308 64 335 134 c 0
 363 204 385 302 385 354 c 0
 385 401 359 432 320 432 c 0
243 685 m 0
 282 685 314 653 314 614 c 0
 314 574 282 542 242 542 c 0
 203 542 171 575 171 614 c 0
 171 653 203 685 243 685 c 0
458 685 m 0
 497 685 529 653 529 614 c 0
 529 574 497 542 457 542 c 0
 418 542 386 575 386 614 c 0xfa
 386 653 418 685 458 685 c 0
EndSplineSet
KernsSLIF: 121 7 0 0 119 -2 0 0 118 -18 0 0 116 -7 0 0
Ligature: 0 0 'liga' o uni0308
EndChar
StartChar: oacute
Encoding: 352 243 246
Width: 574
Flags: W
HStem: -14 43<217 235> 432 47<313 330>
VStem: 10 155<108 187> 385 155<285 354>
Fore
324 479 m 0
 385 479 445 459 484 425 c 0
 520 394 540 345 540 285 c 0
 540 116 401 -14 220 -14 c 0
 157 -14 105 4 70 37 c 0
 33 71 10 129 10 187 c 0
 10 345 154 479 324 479 c 0
320 432 m 0
 277 432 240 394 210 322 c 0
 184 259 165 168 165 108 c 0
 165 58 189 29 229 29 c 0
 272 29 308 64 335 134 c 0
 363 204 385 302 385 354 c 0
 385 401 359 432 320 432 c 0
274 535 m 1
 398 674 l 2
 432 711 444 719 468 719 c 0
 498 719 522 696 522 667 c 0
 522 648 512 633 494 623 c 2
 328 535 l 1
 274 535 l 1
EndSplineSet
KernsSLIF: 121 7 0 0 119 -2 0 0 118 -18 0 0
Ligature: 0 0 'liga' o acutecomb
EndChar
StartChar: ograve
Encoding: 353 242 247
Width: 574
Flags: W
HStem: -14 43<217 239> 432 47<313 331>
VStem: 10 155<108 187> 385 155<285 354>
Fore
324 479 m 0
 385 479 445 459 484 425 c 0
 520 394 540 345 540 285 c 0
 540 116 401 -14 220 -14 c 0
 157 -14 105 4 70 37 c 0
 33 71 10 129 10 187 c 0
 10 345 154 479 324 479 c 0
320 432 m 0
 277 432 240 394 210 322 c 0
 184 259 165 168 165 108 c 0
 165 58 189 29 229 29 c 0
 272 29 308 64 335 134 c 0
 363 204 385 302 385 354 c 0
 385 401 359 432 320 432 c 0
404 535 m 1
 355 535 l 1
 214 624 l 2
 194 636 184 652 184 670 c 0
 184 698 206 719 237 719 c 0
 264 719 278 710 302 677 c 2
 404 535 l 1
EndSplineSet
KernsSLIF: 121 7 0 0 119 -2 0 0 118 -18 0 0
Ligature: 0 0 'liga' o gravecomb
EndChar
StartChar: ocircumflex
Encoding: 354 244 248
Width: 574
Flags: W
HStem: -14 43<217 240> 432 47<313 330> 689 20G<328 429>
VStem: 10 155<108 187> 385 155<285 354>
Fore
324 479 m 0
 385 479 445 459 484 425 c 0
 520 394 540 345 540 285 c 0
 540 116 401 -14 220 -14 c 0
 157 -14 105 4 70 37 c 0
 33 71 10 129 10 187 c 0
 10 345 154 479 324 479 c 0
320 432 m 0
 277 432 240 394 210 322 c 0
 184 259 165 168 165 108 c 0
 165 58 189 29 229 29 c 0
 272 29 308 64 335 134 c 0
 363 204 385 302 385 354 c 0
 385 401 359 432 320 432 c 0
171 535 m 1
 328 709 l 1
 429 709 l 1
 513 535 l 1
 454 535 l 1
 364 621 l 1
 238 535 l 1
 171 535 l 1
EndSplineSet
KernsSLIF: 116 -7 0 0
Ligature: 0 0 'liga' o uni0302
EndChar
StartChar: otilde
Encoding: 355 245 249
Width: 574
Flags: W
HStem: -14 43<216 235> 432 47<313 331> 557 86<414 441> 599 84<257 292>
VStem: 10 155<108 187> 385 155<285 354>
Fore
324 479 m 0xcc
 385 479 445 459 484 425 c 0
 520 394 540 345 540 285 c 0
 540 116 401 -14 220 -14 c 0
 157 -14 105 4 70 37 c 0
 33 71 10 129 10 187 c 0
 10 345 154 479 324 479 c 0xcc
320 432 m 0
 277 432 240 394 210 322 c 0
 184 259 165 168 165 108 c 0
 165 58 189 29 229 29 c 0
 272 29 308 64 335 134 c 0
 363 204 385 302 385 354 c 0
 385 401 359 432 320 432 c 0
491 683 m 1xdc
 538 683 l 1xdc
 535 616 477 557 414 557 c 0xec
 393 557 368 563 329 578 c 0
 284 596 272 599 257 599 c 0xdc
 235 599 220 584 215 557 c 1
 168 557 l 1xec
 173 630 226 683 292 683 c 0xdc
 312 683 338 677 371 664 c 0
 419 645 426 643 441 643 c 0xec
 466 643 483 657 491 683 c 1xdc
EndSplineSet
Ligature: 0 0 'liga' o tildecomb
EndChar
